<svg width="40" height="40" viewBox="0 0 40 40" fill="none" xmlns="http://www.w3.org/2000/svg">
<circle cx="20" cy="20" r="19.5" stroke="#666666"/>
<path d="M24.0325 11H15.9672C13.2283 11 11 13.2284 11 15.9673V24.0327C11 26.7717 13.2283 29 15.9672 29H24.0325C26.7717 29 29 26.7716 29 24.0327V15.9673C29.0001 13.2284 26.7717 11 24.0325 11ZM27.4031 24.0327C27.4031 25.8911 25.8911 27.403 24.0327 27.403H15.9672C14.1089 27.4031 12.597 25.8911 12.597 24.0327V15.9673C12.597 14.109 14.1089 12.597 15.9672 12.597H24.0325C25.891 12.597 27.403 14.109 27.403 15.9673V24.0327H27.4031ZM20 15.3621C17.4425 15.3621 15.3619 17.4427 15.3619 20.0002C15.3619 22.5576 17.4425 24.6381 20 24.6381C22.5575 24.6381 24.6381 22.5576 24.6381 20.0002C24.6381 17.4427 22.5575 15.3621 20 15.3621ZM20 23.041C18.3232 23.041 16.9589 21.6769 16.9589 20.0001C16.9589 18.3232 18.3231 16.959 20 16.959C21.6769 16.959 23.0411 18.3232 23.0411 20.0001C23.0411 21.6769 21.6768 23.041 20 23.041ZM24.8327 14.0079C24.525 14.0079 24.2227 14.1324 24.0054 14.3507C23.787 14.5679 23.6615 14.8703 23.6615 15.179C23.6615 15.4869 23.7871 15.7891 24.0054 16.0074C24.2226 16.2246 24.525 16.3502 24.8327 16.3502C25.1414 16.3502 25.4427 16.2246 25.661 16.0074C25.8793 15.7891 26.0038 15.4867 26.0038 15.179C26.0038 14.8703 25.8793 14.5679 25.661 14.3507C25.4438 14.1324 25.1414 14.0079 24.8327 14.0079Z" fill="#666666"/>
</svg>
