<svg width="12" height="17" viewBox="0 0 12 17" fill="none" xmlns="http://www.w3.org/2000/svg">
<path d="M7.67773 7.81808C8.17997 7.31585 8.43108 6.70982 8.43108 6C8.43108 5.29018 8.17997 4.68415 7.67773 4.18192C7.1755 3.67969 6.56948 3.42857 5.85965 3.42857C5.14983 3.42857 4.54381 3.67969 4.04157 4.18192C3.53934 4.68415 3.28823 5.29018 3.28823 6C3.28823 6.70982 3.53934 7.31585 4.04157 7.81808C4.54381 8.32031 5.14983 8.57143 5.85965 8.57143C6.56948 8.57143 7.1755 8.32031 7.67773 7.81808ZM11.0025 6C11.0025 6.72991 10.892 7.32924 10.671 7.79799L7.01479 15.5725C6.90765 15.7935 6.74693 15.9676 6.53265 16.0949C6.32506 16.2221 6.10073 16.2857 5.85965 16.2857C5.61858 16.2857 5.3909 16.2221 5.17662 16.0949C4.96903 15.9676 4.81501 15.7935 4.71457 15.5725L1.04827 7.79799C0.827288 7.32924 0.716797 6.72991 0.716797 6C0.716797 4.58036 1.21903 3.3683 2.22349 2.36384C3.22796 1.35937 4.44001 0.857142 5.85965 0.857142C7.2793 0.857142 8.49135 1.35937 9.49582 2.36384C10.5003 3.3683 11.0025 4.58036 11.0025 6Z" fill="#333333"/>
</svg>
