<svg width="15" height="15" viewBox="0 0 15 15" fill="none" xmlns="http://www.w3.org/2000/svg">
<path d="M14.9925 12.0268C14.9925 12.2076 14.959 12.4453 14.892 12.74C14.8251 13.0279 14.7547 13.2556 14.6811 13.423C14.5405 13.7578 14.132 14.1127 13.4556 14.4877C12.8262 14.8292 12.2034 15 11.5873 15C11.4065 15 11.2291 14.99 11.055 14.9699C10.8876 14.9431 10.6967 14.8996 10.4824 14.8393C10.2681 14.779 10.1074 14.7321 10.0003 14.6987C9.89983 14.6585 9.71568 14.5882 9.44782 14.4877C9.17997 14.3873 9.0159 14.327 8.95564 14.3069C8.29939 14.0725 7.71345 13.7946 7.19782 13.4732C6.34068 12.9442 5.4534 12.2243 4.53599 11.3136C3.62528 10.3962 2.90541 9.50893 2.3764 8.65179C2.05497 8.13616 1.77706 7.55022 1.54269 6.89397C1.5226 6.8337 1.46233 6.66964 1.36189 6.40179C1.26144 6.13393 1.19113 5.94978 1.15095 5.84933C1.11747 5.74219 1.07059 5.58147 1.01032 5.36719C0.950056 5.1529 0.906529 4.96205 0.879743 4.79464C0.859654 4.62054 0.849609 4.44308 0.849609 4.26228C0.849609 3.6462 1.02037 3.02344 1.36189 2.39397C1.73689 1.71763 2.0918 1.30915 2.42662 1.16853C2.59403 1.09487 2.82171 1.02455 3.10965 0.957589C3.4043 0.890624 3.64202 0.857142 3.82282 0.857142C3.91657 0.857142 3.98689 0.867187 4.03376 0.887276C4.1543 0.927455 4.33175 1.18192 4.56613 1.65067C4.63979 1.7779 4.74023 1.9587 4.86747 2.19308C4.9947 2.42745 5.11189 2.64174 5.21903 2.83594C5.32617 3.02344 5.42997 3.20089 5.53041 3.3683C5.5505 3.39509 5.60742 3.47879 5.70117 3.61942C5.80162 3.76004 5.87528 3.88058 5.92215 3.98103C5.96903 4.07478 5.99247 4.16853 5.99247 4.26228C5.99247 4.3962 5.89537 4.56362 5.70117 4.76451C5.51367 4.9654 5.30608 5.14955 5.0784 5.31696C4.85742 5.48437 4.64983 5.66183 4.45564 5.84933C4.26814 6.03683 4.17439 6.19085 4.17439 6.31138C4.17439 6.37165 4.19113 6.44866 4.22461 6.54241C4.25809 6.62946 4.28488 6.69643 4.30497 6.7433C4.33175 6.79018 4.37863 6.87054 4.44559 6.98437C4.51925 7.09821 4.55943 7.16183 4.56613 7.17522C5.07506 8.09263 5.65765 8.87946 6.3139 9.53571C6.97015 10.192 7.75698 10.7746 8.67439 11.2835C8.68778 11.2902 8.7514 11.3304 8.86523 11.404C8.97907 11.471 9.05943 11.5179 9.10631 11.5446C9.15318 11.5647 9.22015 11.5915 9.3072 11.625C9.40095 11.6585 9.47796 11.6752 9.53823 11.6752C9.65876 11.6752 9.81278 11.5815 10.0003 11.394C10.1878 11.1998 10.3652 10.9922 10.5326 10.7712C10.7001 10.5435 10.8842 10.3359 11.0851 10.1484C11.286 9.95424 11.4534 9.85714 11.5873 9.85714C11.6811 9.85714 11.7748 9.88058 11.8686 9.92746C11.969 9.97433 12.0896 10.048 12.2302 10.1484C12.3708 10.2422 12.4545 10.2991 12.4813 10.3192C12.6487 10.4196 12.8262 10.5234 13.0137 10.6306C13.2079 10.7377 13.4222 10.8549 13.6565 10.9821C13.8909 11.1094 14.0717 11.2098 14.1989 11.2835C14.6677 11.5179 14.9222 11.6953 14.9623 11.8158C14.9824 11.8627 14.9925 11.933 14.9925 12.0268Z" fill="#333333"/>
</svg>
