<svg width="13" height="13" viewBox="0 0 13 13" fill="none" xmlns="http://www.w3.org/2000/svg">
<circle opacity="0.4" cx="6.5" cy="6.5" r="6.5" fill="#C4C4C4"/>
<path d="M5.44727 9.45214V8.32705H4.72754V7.78932H5.44727V7.05305H4.72754V6.42432H5.44727V3.54541H7.00254C7.72502 3.54541 8.25999 3.69156 8.60745 3.98386C8.96042 4.27617 9.1369 4.70083 9.1369 5.25786C9.1369 5.82041 8.94663 6.26162 8.56608 6.5815C8.18554 6.89586 7.62575 7.05305 6.88672 7.05305H6.19181V7.78932H7.55681V8.32705H6.19181V9.45214H5.44727ZM6.19181 6.42432H6.77918C7.28105 6.42432 7.66987 6.34159 7.94563 6.17614C8.2269 6.01068 8.36754 5.71287 8.36754 5.28268C8.36754 4.90765 8.25172 4.62914 8.02008 4.44714C7.78845 4.26514 7.42721 4.17414 6.93636 4.17414H6.19181V6.42432Z" fill="#666666"/>
</svg>
