<svg width="116" height="61" viewBox="0 0 116 61" fill="none" xmlns="http://www.w3.org/2000/svg">
<path d="M108.716 47.3303H6.57482C3.02995 47.3303 0.15625 50.2035 0.15625 53.7479C0.15625 57.2923 3.02995 60.1655 6.57482 60.1655H108.716C112.261 60.1655 115.135 57.2923 115.135 53.7479C115.135 50.2035 112.261 47.3303 108.716 47.3303Z" fill="#B2D87F"/>
<path d="M69.5558 15.3799C69.5558 15.3277 69.5558 15.2735 69.5468 15.2194C69.5273 15.067 69.4984 14.9158 69.4602 14.7669C69.4215 14.7595 69.3815 14.7632 69.3448 14.7777C69.2823 14.7851 69.2213 14.8028 69.1645 14.83C69.1337 14.8444 69.1051 14.8632 69.0798 14.8859C68.7219 14.9492 68.3698 15.0414 68.0268 15.1618C67.6663 15.2916 67.1056 15.6684 66.7432 15.3691C66.7181 15.3448 66.6866 15.3283 66.6523 15.3216C66.6181 15.3148 66.5826 15.3182 66.5502 15.3313C66.4763 15.2718 66.3285 15.3078 66.3447 15.4178C66.2888 15.3978 66.2285 15.3927 66.17 15.4031C66.1115 15.4136 66.0567 15.4392 66.0111 15.4773C65.9404 15.5386 65.8877 15.6179 65.8584 15.7068C65.8292 15.7957 65.8247 15.8908 65.8453 15.9821C65.8727 16.1097 65.9398 16.2253 66.037 16.3124C66.1341 16.3995 66.2564 16.4537 66.3862 16.4671C66.3745 16.5943 66.3745 16.7222 66.3862 16.8493C66.3862 16.88 66.3862 16.9124 66.3862 16.9449C66.1957 17.1366 66.0226 17.3448 65.8687 17.5669C65.851 17.5903 65.8415 17.6188 65.8417 17.648C64.4985 19.4041 67.1272 20.2263 67.4806 19.451C67.5548 19.1275 67.5073 18.788 67.3471 18.4973C67.2642 18.3314 67.5671 18.0483 67.6284 17.8698C67.8196 17.9495 68.0212 18.0016 68.227 18.0249C68.3392 18.0647 68.4624 18.0602 68.5713 18.0122C68.831 17.9059 68.9897 17.6012 69.1321 17.3758C69.3295 17.0928 69.4596 16.7684 69.5125 16.4275C69.5125 16.395 69.5125 16.3626 69.5125 16.3319C69.4422 15.9966 69.3538 15.6179 69.5558 15.3799Z" fill="#F19080"/>
<path d="M67.3971 18.5695C67.3574 18.5695 67.3683 18.6651 67.1122 18.6362C66.8562 18.6074 66.8832 16.9685 66.8544 16.653C66.8544 16.653 65.7023 17.7618 65.7402 18.2089C65.8049 18.5786 65.9631 18.9256 66.1999 19.2168C66.355 19.3556 66.8039 19.7126 67.0329 19.6585C67.2619 19.6044 67.819 18.6055 67.3971 18.5695Z" fill="#F5AE94"/>
<path d="M102.147 9.83925H65.3914C61.9658 9.83925 43.4782 9.8068 40.0453 9.83925C39.7857 9.83925 39.7388 10.2431 40.0021 10.2449C46.1592 10.2774 67.3621 10.2449 73.5174 10.2449H102.17C102.435 10.2467 102.408 9.83925 102.147 9.83925Z" fill="#E3731A"/>
<path d="M96.9532 43.9424C96.7005 43.6158 96.4239 43.3084 96.1257 43.0228C95.8787 42.783 95.5848 42.4928 95.4712 42.1772L95.3125 41.997C95.2919 41.9765 95.2645 41.9644 95.2355 41.9631C95.2066 41.9617 95.1781 41.9711 95.1557 41.9895C95.1332 42.0079 95.1184 42.034 95.1141 42.0627C95.1098 42.0914 95.1162 42.1206 95.1322 42.1448L95.1845 42.2151H95.1232C94.5661 42.2151 94.0162 42.235 93.4807 42.0691C93.4866 42.0372 93.481 42.0042 93.4648 41.9761C93.4487 41.9479 93.4231 41.9264 93.3926 41.9154C93.3621 41.9044 93.3286 41.9045 93.2982 41.9158C93.2678 41.9271 93.2424 41.9489 93.2265 41.9771C93.1906 42.0363 93.1628 42.0999 93.1436 42.1664C93.1436 42.2349 93.1436 42.3071 93.1436 42.381C93.1374 42.5068 93.1604 42.6323 93.2107 42.7477C93.2611 42.8631 93.3375 42.9653 93.4339 43.0463C93.6558 43.2128 93.8876 43.3657 94.128 43.5042C94.3583 43.6776 94.5688 43.8759 94.7554 44.0956C95.1153 44.5407 95.5869 44.8823 96.1221 45.0854C96.2927 45.0884 96.4616 45.0501 96.6143 44.9736C96.9947 44.8601 97.3066 44.586 97.0956 44.1515C97.0518 44.0794 97.0043 44.0096 96.9532 43.9424Z" fill="#C00C1A"/>
<path d="M84.1044 22.2313C82.1789 19.3898 82.4385 15.7064 82.0689 12.4448C82.0527 12.2969 81.8399 12.3366 81.8453 12.479C81.8814 13.3967 81.9751 14.3126 82.0472 15.2268C82.1193 16.1409 82.1842 17.0081 82.3105 17.8933C82.5376 19.4745 82.9704 21.0449 83.8718 22.3827C83.9728 22.536 84.2054 22.3791 84.1044 22.2313Z" fill="#C66615"/>
<path d="M98.4303 20.8085C98.4237 20.7993 98.4176 20.7897 98.4123 20.7797C98.3708 20.7382 98.3312 20.695 98.2915 20.6517C98.2543 20.6104 98.2194 20.567 98.1869 20.5219H98.1581C98.1075 20.476 98.045 20.4453 97.9778 20.4336C97.9474 20.4273 97.9162 20.4273 97.8858 20.4336L97.8101 20.457L97.7416 20.484C97.6786 20.5005 97.6138 20.509 97.5486 20.5093L97.4134 20.5345C97.333 20.5564 97.256 20.5892 97.1844 20.6319C96.9511 20.6606 96.7164 20.6768 96.4813 20.6805C96.1286 20.6529 95.7747 20.6451 95.4212 20.6571C94.6657 20.6733 93.8526 20.7292 93.153 20.3885C92.8009 20.1929 92.4769 19.9503 92.1902 19.6673C91.8675 19.3824 91.5412 19.1011 91.1986 18.8361C91.2036 18.8059 91.1988 18.7749 91.1849 18.7475C91.1711 18.7202 91.1489 18.6981 91.1215 18.6842C91.0942 18.6703 91.0632 18.6655 91.033 18.6705C91.0028 18.6754 90.9749 18.6899 90.9534 18.7117C90.683 19.0182 90.3656 19.2616 90.0754 19.5447C90.0628 19.558 90.0536 19.5741 90.0483 19.5916C90.0429 19.6091 90.0417 19.6276 90.0447 19.6456C90.0051 19.6907 89.8229 19.9233 89.8824 19.972C90.3796 20.3606 90.9031 20.7142 91.4493 21.0303C91.8574 21.275 92.2998 21.4573 92.7618 21.5712C92.9715 21.6858 93.2046 21.7512 93.4433 21.7623C93.8663 21.8194 94.2938 21.8351 94.7198 21.8092C95.1687 21.784 95.6213 21.7065 96.0594 21.656C96.2631 21.6325 96.4669 21.6109 96.6706 21.6037C96.75 21.6037 96.8293 21.6037 96.9104 21.6037C96.9194 21.6343 96.9303 21.665 96.9411 21.6956C96.9551 21.7492 96.9796 21.7994 97.0132 21.8434C97.0496 21.8766 97.094 21.8997 97.1421 21.9105C97.1901 21.9212 97.2402 21.9193 97.2872 21.9048C97.3601 21.9494 97.4458 21.9684 97.5306 21.9589C97.7158 21.9258 97.897 21.8738 98.0715 21.8038L98.0986 21.793C98.1523 21.806 98.2083 21.806 98.262 21.7928C98.3156 21.7796 98.3653 21.7537 98.4069 21.7172C98.4509 21.6634 98.481 21.5995 98.4945 21.5313C98.5081 21.4631 98.5046 21.3926 98.4844 21.326C98.5295 21.3008 98.5746 21.2755 98.6178 21.2467C98.5663 21.0962 98.5036 20.9497 98.4303 20.8085Z" fill="#F19080"/>
<path d="M96.9229 20.715C96.2773 20.5741 95.6242 20.47 94.9667 20.4031C94.3483 20.3418 93.674 20.2589 93.0574 20.3526H93.0411L92.9943 20.3346C92.9349 20.3126 92.8781 20.2842 92.8248 20.2499C92.7455 20.1561 92.6445 20.0696 92.5688 19.983C92.4264 19.8118 92.2911 19.6332 92.1469 19.4602C91.9251 19.1915 91.6817 18.894 91.341 18.7822H91.3265L91.2814 18.7696C91.2436 18.7606 91.1967 18.7949 91.2039 18.8309C91.0906 18.9591 90.9964 19.103 90.9245 19.2582C90.9149 19.2781 90.9118 19.3005 90.9157 19.3222C90.9196 19.3439 90.9302 19.3637 90.9461 19.379C90.9929 19.4257 91.0464 19.4652 91.1048 19.4962C91.6557 20.2614 92.4699 20.7963 93.3909 20.9981C94.5178 21.2325 95.7348 21.1117 96.8815 21.0432C96.9082 21.0431 96.9342 21.0339 96.9551 21.0172C96.9761 21.0005 96.9908 20.9773 96.9969 20.9512C97.0135 20.9326 97.0249 20.91 97.0302 20.8857C97.0354 20.8613 97.0343 20.8359 97.0268 20.8122C97.0194 20.7884 97.0059 20.7669 96.9877 20.7499C96.9695 20.7329 96.9472 20.7208 96.9229 20.715Z" fill="#F5AE94"/>
<path d="M66.9281 15.3077C66.796 15.2821 66.6623 15.2665 66.5279 15.2608C66.4073 15.2229 66.2806 15.2088 66.1546 15.2194C66.0643 15.2498 65.9816 15.2994 65.9122 15.3647C65.8428 15.4301 65.7884 15.5096 65.7526 15.598L65.7039 15.6611C65.6841 15.6864 65.657 15.717 65.6336 15.7495C65.6242 15.7483 65.6147 15.7493 65.6058 15.7523C65.5969 15.7553 65.5888 15.7603 65.5821 15.7669C65.5753 15.7735 65.5701 15.7815 65.5669 15.7903C65.5636 15.7991 65.5624 15.8086 65.5633 15.8179C65.5785 16.0586 65.6202 16.2968 65.6877 16.5283C65.69 16.5351 65.6938 16.5413 65.6987 16.5466C65.7036 16.5519 65.7095 16.5561 65.7161 16.559C65.7227 16.5619 65.7298 16.5633 65.737 16.5633C65.7442 16.5633 65.7514 16.5619 65.758 16.559H65.7688C65.9636 16.6397 66.176 16.6689 66.3854 16.6437C66.3755 16.5768 66.3755 16.5087 66.3854 16.4418C66.2402 16.4211 66.1042 16.3584 65.9941 16.2615C65.9246 16.1599 65.8784 16.0441 65.8589 15.9225C65.8794 15.7666 65.9503 15.6216 66.0609 15.5096C66.3187 15.3294 66.6523 15.5691 66.9191 15.4105C66.9678 15.387 66.9786 15.3239 66.9281 15.3077Z" fill="#E95A21"/>
<path d="M65.3659 15.9678C65.3628 15.955 65.3561 15.9433 65.3466 15.9342C65.3371 15.9251 65.3251 15.919 65.3122 15.9165C65.2992 15.914 65.2859 15.9153 65.2737 15.9203C65.2614 15.9252 65.2509 15.9335 65.2433 15.9443C64.6285 15.6558 63.792 15.5639 63.3304 16.1553C63.1211 16.4317 62.9737 16.75 62.8984 17.0885C62.8231 17.427 62.8216 17.7778 62.8941 18.1169C62.903 18.1428 62.9202 18.1651 62.943 18.1804C62.9657 18.1957 62.9929 18.2031 63.0203 18.2016C63.3106 18.1527 63.5983 18.0889 63.8821 18.0105C64.194 17.9167 64.4969 17.7004 64.8142 17.6499C64.8404 17.6478 64.8651 17.6374 64.8849 17.6202C64.9047 17.603 64.9185 17.58 64.9242 17.5544C64.9621 17.1794 65.137 16.981 65.3533 16.698C65.503 16.4978 65.4002 16.1895 65.3659 15.9678Z" fill="#E95A21"/>
<path d="M89.5827 12.2592C89.5748 12.2412 89.5616 12.2261 89.5448 12.2159C89.5448 12.2159 89.7251 12.0969 89.5953 12.0068C89.2888 11.9455 89.3465 11.0368 89.3122 11.0097C89.2383 10.952 88.4612 11.2188 88.3801 11.2603C88.2719 11.3144 88.7136 11.8229 88.7191 11.913C88.7046 11.9509 88.6956 11.9887 88.6794 12.023C88.6442 12.1112 88.5886 12.1899 88.5171 12.2526C88.4457 12.3153 88.3604 12.3602 88.2683 12.3836C88.061 12.4647 87.8591 12.5639 87.6499 12.3944C87.572 12.3031 87.511 12.1987 87.4696 12.0861C87.4742 12.0745 87.4742 12.0616 87.4696 12.05C87.4667 12.035 87.4599 12.0211 87.4497 12.0096C87.4396 11.9982 87.4265 11.9897 87.4119 11.9851C87.3931 11.972 87.3708 11.965 87.3479 11.965C87.325 11.965 87.3027 11.972 87.2839 11.9851C87.2687 11.9817 87.2528 11.9819 87.2377 11.9857C87.2225 11.9895 87.2085 11.9967 87.1966 12.0069C87.1847 12.017 87.1753 12.0298 87.1692 12.0441C87.1631 12.0585 87.1604 12.0741 87.1613 12.0897C87.1884 12.4503 87.2406 13.2057 87.7022 13.2904C87.7115 13.3048 87.7253 13.3157 87.7415 13.3214C87.7576 13.3271 87.7752 13.3273 87.7915 13.3219C87.8077 13.3166 87.8218 13.306 87.8314 13.2918C87.841 13.2776 87.8457 13.2607 87.8446 13.2436C87.8415 13.1748 87.8312 13.1065 87.814 13.0399C88.1078 13.258 88.4018 12.8199 88.6524 12.7117C88.8435 12.6306 89.2437 12.9118 89.4384 12.8055C89.5033 12.7803 89.5605 12.7387 89.6043 12.6847C89.6522 12.5454 89.6445 12.3929 89.5827 12.2592Z" fill="#F19080"/>
<path d="M89.815 10.6508C89.8012 10.6357 89.7828 10.6254 89.7627 10.6215C89.7426 10.6176 89.7217 10.6203 89.7032 10.6292C89.4076 10.759 89.0884 9.99089 88.9406 9.80519C88.7788 9.59085 88.5629 9.42347 88.315 9.3202C87.7056 9.08762 87.0691 9.3689 86.5571 9.69523C86.2794 9.87553 86.0162 10.0558 85.7439 10.2613C85.5084 10.4096 85.3328 10.6363 85.2481 10.9014C85.2031 11.1819 85.2305 11.4692 85.3275 11.7362C85.4435 12.0576 85.4648 12.4055 85.3888 12.7386C85.355 12.759 85.325 12.7853 85.3004 12.8162C85.2955 12.826 85.2932 12.837 85.2937 12.848C85.2942 12.859 85.2975 12.8697 85.3033 12.879C85.3091 12.8884 85.3171 12.8962 85.3267 12.9016C85.3363 12.907 85.3471 12.9099 85.3581 12.9099C85.3772 12.907 85.3959 12.9022 85.414 12.8955C85.4252 12.8996 85.4374 12.9002 85.449 12.8973C85.4606 12.8944 85.471 12.8882 85.4789 12.8792H85.4934C85.5366 12.8648 85.5835 12.8576 85.6268 12.8414C85.6369 12.8369 85.6459 12.8302 85.653 12.8218C85.6602 12.8133 85.6654 12.8034 85.6682 12.7927C85.9495 12.7206 85.9296 12.2915 86.1424 12.1202C86.2797 12.0107 86.4546 11.9595 86.6292 11.9778C86.7338 11.9958 86.8312 12.1004 86.9393 12.1328C87.0714 12.1658 87.2104 12.1576 87.3378 12.1094C87.7997 11.9264 88.249 11.7132 88.6828 11.4711C89.0704 11.2908 89.5518 11.1322 89.8673 10.8293C89.8836 10.8172 89.8958 10.8004 89.9022 10.7812C89.9086 10.762 89.909 10.7413 89.9033 10.7219C89.8976 10.7024 89.8861 10.6852 89.8703 10.6725C89.8546 10.6598 89.8353 10.6522 89.815 10.6508Z" fill="#FFD523"/>
<path d="M89.7665 17.0153C89.4906 16.7521 89.2256 16.4852 88.9425 16.222C88.7748 16.0633 88.5999 15.8758 88.4016 15.7208C88.3083 15.547 88.1755 15.3976 88.014 15.2845C88.0033 15.2776 87.9918 15.2721 87.9797 15.2682C87.9689 15.252 86.2002 14.0332 86.1768 14.0224C85.9436 14.1139 85.7406 14.2688 85.5908 14.4695C85.6485 14.8301 88.0428 16.4672 88.1871 16.8134C88.3048 17.0814 88.3936 17.3613 88.4521 17.6481C88.5164 18.0093 88.5574 18.3743 88.5747 18.7407C88.5874 18.9733 88.6126 19.2203 88.6054 19.4619C88.7298 19.5953 88.8614 19.7216 88.9858 19.846C89.2598 20.12 89.5447 20.3869 89.8278 20.6447C89.9432 20.5347 90.0802 20.4392 90.1884 20.3472L90.3795 20.1903C90.5201 19.992 90.686 19.8117 90.8338 19.617C91.0206 19.3869 91.1809 19.1365 91.3116 18.8705C91.3529 18.7632 91.3861 18.653 91.4108 18.5406C90.8645 18.0448 90.311 17.5345 89.7665 17.0153Z" fill="#F05A64"/>
<path d="M85.4558 15.6434C85.3404 15.4955 85.0375 15.4955 85.0122 15.7263C84.9942 15.8814 85.0122 16.031 84.9906 16.1861C84.9582 16.3418 84.9161 16.4954 84.8644 16.6458C84.7864 16.9785 84.6187 17.2835 84.3794 17.5275C83.8241 18.0431 83.1642 18.4488 82.6215 18.9807C82.5849 19.0144 82.5581 19.0574 82.5439 19.1051C82.6034 19.179 82.6611 19.2511 82.7242 19.3232C82.7513 19.3575 82.7819 19.3899 82.8126 19.4224C82.8594 19.4178 82.9044 19.4023 82.9442 19.3773C83.3223 19.1218 83.6865 18.8461 84.035 18.5515C84.3649 18.2919 84.7562 18.0413 85.0104 17.7041C85.2209 17.4089 85.3711 17.075 85.4521 16.7215C85.5405 16.3952 85.6865 15.9409 85.4558 15.6434Z" fill="#F05A64"/>
<path d="M74.4695 23.3799C74.408 23.3136 74.3338 23.2603 74.2513 23.2231C74.2283 23.1408 74.1821 23.0669 74.1181 23.0103C74.0542 22.9537 73.9752 22.9168 73.8907 22.9039C73.6649 22.9063 73.4404 22.9397 73.2237 23.0031C72.9857 23.0428 72.7098 23.0031 72.4862 23.0878C71.9814 22.9761 71.4802 22.8571 70.979 22.7273C70.6472 22.6443 70.2938 22.6083 70.0558 22.3667C69.8251 22.2657 69.5438 21.8654 69.4771 21.7717C69.4374 21.714 69.3401 21.5914 69.2463 21.4381C69.11 21.5698 68.9594 21.686 68.7974 21.7843C68.5648 21.9412 68.3268 22.089 68.0942 22.244C68.2277 22.5289 68.5684 22.785 68.7866 23.0013C69.0089 23.2358 69.284 23.4138 69.5889 23.5205C69.6011 23.5411 69.6173 23.559 69.6364 23.5732C69.6556 23.5875 69.6775 23.5977 69.7007 23.6035C69.9529 23.6288 70.2063 23.6396 70.4597 23.636C70.777 23.6558 71.0944 23.6937 71.4099 23.7243C71.9058 23.7834 72.4062 23.7967 72.9045 23.764C72.9167 23.8346 72.9538 23.8986 73.0091 23.9443C73.2045 24.0606 73.4196 24.1401 73.6438 24.1787C73.6854 24.1859 73.7282 24.1783 73.7647 24.1572C73.8013 24.1361 73.8293 24.1029 73.8439 24.0632C73.9376 24.0632 74.0242 24.0488 74.1071 24.038C74.1933 24.0342 74.2772 24.0089 74.3511 23.9645C74.4251 23.9201 74.4869 23.858 74.5308 23.7838C74.5626 23.7181 74.5738 23.6445 74.5629 23.5724C74.5519 23.5002 74.5194 23.4331 74.4695 23.3799Z" fill="#F19080"/>
<path d="M68.3699 19.6135C68.2146 19.2834 68.0001 18.9845 67.7371 18.7318C67.5935 18.6428 67.4588 18.5402 67.335 18.4253C67.3134 18.5335 67.4756 18.9013 67.4179 19.105C67.472 19.1699 67.5279 19.2348 67.5802 19.3016C67.571 19.3102 67.5636 19.3206 67.5586 19.3322C67.4306 19.6135 67.6577 20.0534 67.7497 20.331C67.8182 20.5312 67.8813 20.7331 67.9408 20.935C67.9711 21.0079 67.9946 21.0833 68.0111 21.1604C68.0111 21.2253 67.9552 21.2974 67.948 21.3786C67.9385 21.4511 67.9552 21.5245 67.9949 21.5859L67.7443 21.7932C67.6876 21.8318 67.6466 21.8894 67.6288 21.9555C67.6109 22.0217 67.6174 22.092 67.6469 22.1538C67.701 22.2674 68.0417 22.7056 68.168 22.6479C68.6598 22.3829 69.106 22.0408 69.4895 21.6346C69.5797 21.5985 68.6602 20.1147 68.3699 19.6135Z" fill="#0D873D"/>
<path d="M93.4755 42.1882C93.6757 42.2784 93.8596 42.3992 94.0579 42.4911C94.3446 42.6263 94.725 42.7273 95.0225 42.5722L95.0766 42.538C95.1374 42.2587 95.1544 41.9716 95.127 41.687C94.9143 39.7813 93.7658 36.0978 93.1654 34.2786C92.5621 32.5312 91.8349 30.8291 90.9893 29.1852C90.5764 28.3505 90.1491 27.5211 89.7272 26.69C89.2927 25.8263 88.8041 24.9573 88.5643 24.0125C88.5031 23.7443 88.4615 23.4719 88.4398 23.1976C88.4436 23.1345 88.4316 23.0714 88.4048 23.0141C88.378 22.9568 88.3374 22.9071 88.2866 22.8695C88.1188 22.8139 87.9398 22.8002 87.7655 22.8298C87.5203 22.8298 87.2752 22.8532 87.0318 22.8821C86.0754 22.9928 85.1469 23.2756 84.2913 23.7169C84.2781 23.7072 84.2626 23.7009 84.2463 23.6987C84.2301 23.6966 84.2135 23.6986 84.1983 23.7045C84.183 23.7104 84.1694 23.7201 84.1589 23.7327C84.1484 23.7452 84.1412 23.7603 84.138 23.7763C84.0021 24.5971 84.0088 25.4352 84.1578 26.2537C84.2395 26.6772 84.3559 27.0932 84.5058 27.4977C84.6591 27.9466 84.7024 28.4258 84.632 28.895C84.5419 29.8277 84.4529 30.7592 84.3652 31.6896C84.3219 32.1547 84.2768 32.6217 84.2336 33.0869L84.1921 33.5196C84.328 33.7754 84.3597 34.0739 84.2804 34.3526C84.2644 34.3955 84.2352 34.4323 84.197 34.4575C84.1587 34.4828 84.1134 34.4953 84.0677 34.4932C84.0295 34.4929 83.9916 34.4893 83.9541 34.4824C83.9379 34.522 83.9216 34.5599 83.9072 34.5995C83.9523 34.659 83.9884 34.7149 84.0082 34.7366C84.0344 34.7675 84.0532 34.8039 84.0633 34.8431C84.0734 34.8824 84.0745 34.9234 84.0665 34.9631C84.0585 35.0028 84.0417 35.0402 84.0173 35.0725C83.9928 35.1047 83.9613 35.131 83.9253 35.1495C83.8228 35.2026 83.7127 35.2398 83.5989 35.2595C83.507 35.4397 83.4186 35.6417 83.3267 35.831C83.1212 36.2375 82.8924 36.6318 82.6415 37.0119C82.1169 37.8124 81.5183 38.5589 80.9359 39.3143C80.3823 40.0107 79.8728 40.7411 79.4106 41.5013C78.9959 42.2099 78.5092 43.0735 78.7904 43.9155C78.7961 43.932 78.8059 43.9467 78.8189 43.9583C78.832 43.9699 78.8478 43.9779 78.8649 43.9816C78.882 43.9852 78.8997 43.9843 78.9164 43.979C78.933 43.9738 78.948 43.9643 78.9599 43.9515C80.5717 42.1305 82.2178 40.333 83.6999 38.4056C85.0251 36.682 86.224 34.8285 86.9452 32.7695C87.3647 31.5814 87.6325 30.345 87.7421 29.0897C88.3569 29.6306 88.5679 30.4708 88.9699 31.1631C89.2261 31.5595 89.5221 31.9286 89.8534 32.2647C90.227 32.6972 90.5405 33.1781 90.7855 33.6944C91.0271 34.1794 91.3444 34.7005 91.4688 35.2306C91.6022 35.7913 91.7141 36.3556 91.8637 36.9128C92.1618 38.0234 92.4659 39.1328 92.776 40.241C92.9563 40.8757 93.1366 41.5031 93.3277 42.1395C93.3786 42.1503 93.4282 42.1666 93.4755 42.1882Z" fill="#35546B"/>
<path d="M83.784 17.94C83.6542 17.6371 83.4973 17.3433 83.3458 17.0494C83.2874 16.9007 83.1947 16.7679 83.0754 16.6617C83.0706 16.6311 83.058 16.6024 83.0388 16.5781C83.0196 16.5538 82.9945 16.5348 82.9659 16.5231C82.9373 16.5113 82.9061 16.5071 82.8754 16.5109C82.8447 16.5146 82.8155 16.5262 82.7905 16.5445C81.8512 17.1882 81.0741 18.1005 80.7838 19.2201C80.6035 19.9053 80.5783 20.6337 80.517 21.335C80.4863 21.6956 80.4557 22.0562 80.4323 22.4168C80.4323 22.4961 80.4268 22.5772 80.416 22.6602C80.4076 22.6618 80.4 22.6663 80.3944 22.6728C80.3888 22.6794 80.3856 22.6876 80.3854 22.6962C80.3764 22.8224 80.371 22.9505 80.3565 23.0785L80.3295 23.2588C80.3155 23.3427 80.2944 23.4253 80.2664 23.5058C80.1817 23.7473 79.6498 23.9601 79.4442 24.0809C79.1576 24.2486 79.3342 25.069 79.666 25.0816C79.8012 25.0618 79.7327 24.9013 79.7381 24.9103C79.7435 24.9193 79.7976 25.0635 79.8607 25.0996C79.906 25.1226 79.956 25.135 80.0068 25.1356C80.041 25.1356 80.0825 25.0942 80.0969 25.0653C80.116 25.098 80.143 25.1253 80.1753 25.1449C80.2077 25.1645 80.2445 25.1758 80.2822 25.1775C80.32 25.1793 80.3576 25.1716 80.3917 25.1552C80.4258 25.1387 80.4552 25.114 80.4773 25.0833C80.4836 25.0899 80.4909 25.0954 80.499 25.0996C80.5165 25.1338 80.544 25.1619 80.5778 25.1802C80.6115 25.1985 80.65 25.2063 80.6883 25.2024C80.7518 25.1901 80.812 25.1644 80.8648 25.1271C80.9177 25.0898 80.962 25.0418 80.9948 24.986C81.0164 24.9394 81.0298 24.8894 81.0345 24.8382C81.1651 24.7789 81.2866 24.7012 81.3951 24.6074C81.4744 24.5154 81.4437 24.4271 81.4257 24.3063C81.4183 24.1836 81.3851 24.0638 81.3283 23.9547C81.3013 23.9133 81.2544 23.8916 81.2238 23.8556C81.174 23.7973 81.147 23.723 81.148 23.6464C81.2382 23.2858 81.3283 22.909 81.4167 22.5412C81.5339 22.2329 81.6564 21.9246 81.7682 21.6144C81.9942 21.0253 82.1403 20.4087 82.2028 19.7808C82.2623 19.6114 82.329 19.4437 82.3993 19.2796C82.4317 19.2039 82.4678 19.1336 82.5002 19.0615C82.6589 18.9695 82.8086 18.8505 82.9167 18.7784C83.1511 18.6233 83.5838 18.4178 83.6884 18.1131C83.7239 18.1026 83.7539 18.0786 83.7717 18.0462C83.7896 18.0138 83.794 17.9756 83.784 17.94Z" fill="#F19080"/>
<path d="M64.864 30.9864C64.599 30.7088 64.0653 30.7286 63.7083 30.716C63.4613 30.716 63.2161 30.716 62.9709 30.7286C62.7606 30.714 62.5503 30.7557 62.3615 30.8494C62.3482 30.8576 62.3382 30.8702 62.3333 30.8851C62.3283 30.8999 62.3287 30.916 62.3344 30.9305C62.3144 30.9563 62.3036 30.9881 62.3038 31.0207C62.2641 32.0231 62.2461 33.0292 62.1848 34.0298C62.1253 34.971 61.6547 35.6922 61.1697 36.4674C60.252 37.9369 59.7111 39.592 59.3343 41.2741C59.1143 42.264 58.9376 43.2574 58.7934 44.2671C58.7906 44.2844 58.7906 44.302 58.7934 44.3194C58.774 44.3691 58.7589 44.4203 58.7483 44.4726C58.747 44.4893 58.7505 44.506 58.7585 44.5207C58.7664 44.5354 58.7784 44.5475 58.7931 44.5556C58.8078 44.5636 58.8246 44.5671 58.8412 44.5659C58.8579 44.5646 58.8739 44.5585 58.8872 44.5483C59.1067 44.3086 59.3052 44.0505 59.4803 43.7767C59.6805 43.5224 59.9221 43.3007 60.115 43.0428C60.1273 43.0244 60.1357 43.0035 60.1397 42.9817C60.1436 42.9598 60.1431 42.9374 60.138 42.9157C60.1329 42.8941 60.1235 42.8737 60.1102 42.8559C60.097 42.8381 60.0802 42.8231 60.0609 42.8121C60.4206 41.8537 60.8305 40.9149 61.2887 39.9995C61.7435 39.0468 62.2472 38.1182 62.7978 37.2175C63.0808 36.7757 63.418 36.3863 63.6199 35.8977C63.8002 35.4506 63.9391 34.9836 64.0797 34.522C64.4035 33.4467 64.6701 32.355 64.8784 31.2515C64.8848 31.2279 64.8848 31.203 64.8784 31.1793C64.8999 31.151 64.9104 31.1157 64.9077 31.0802C64.9051 31.0446 64.8895 31.0113 64.864 30.9864Z" fill="#F19080"/>
<path d="M73.331 43.2232C72.2924 42.6516 71.9283 41.5771 71.6254 40.5007C71.2976 39.3278 71.034 38.1379 70.8356 36.9363C70.6553 35.8383 70.6067 34.7006 70.1686 33.6657C70.0892 33.4854 70.0026 33.3051 69.9143 33.1158C69.8242 32.8742 69.734 32.6326 69.6277 32.3946C69.579 32.2503 69.5285 32.1079 69.4744 31.9673C69.2351 31.2851 68.9143 30.6343 68.5188 30.0291C68.512 30.0051 68.4999 29.9828 68.4834 29.964C68.467 29.9452 68.4465 29.9302 68.4236 29.9202C68.4007 29.9102 68.3758 29.9055 68.3508 29.9062C68.3258 29.9069 68.3013 29.9132 68.279 29.9245C67.8842 30.1337 67.4893 30.3392 67.0981 30.5519C66.75 30.7145 66.4337 30.938 66.1642 31.2119C66.1506 31.2259 66.1414 31.2437 66.1379 31.2629C66.1343 31.2822 66.1366 31.302 66.1443 31.32C66.141 31.3379 66.141 31.3562 66.1443 31.3741C66.431 32.1818 67.1053 32.7912 67.657 33.4187C67.9839 33.7643 68.2524 34.1607 68.4521 34.5924C68.6613 35.1008 68.6919 35.6742 68.7983 36.2042C69.0528 37.3398 69.3989 38.4529 69.8332 39.5325C70.0369 40.0734 70.2461 40.6143 70.4426 41.1714C70.6593 41.6974 70.7926 42.254 70.8374 42.8211C70.823 42.8321 70.8116 42.8467 70.8044 42.8633C70.7971 42.88 70.7943 42.8982 70.7961 42.9163C70.7979 42.9344 70.8043 42.9517 70.8147 42.9666C70.8251 42.9815 70.8391 42.9935 70.8555 43.0014L70.8915 43.0177C70.9063 43.0267 70.922 43.0339 70.9384 43.0393C71.3718 43.1961 71.8175 43.3167 72.2708 43.3999C72.5827 43.4792 73.0461 43.7028 73.3382 43.472C73.3568 43.4568 73.3717 43.4375 73.3818 43.4156C73.3918 43.3937 73.3966 43.3699 73.3959 43.3458C73.3952 43.3218 73.389 43.2982 73.3777 43.2769C73.3664 43.2557 73.3505 43.2373 73.331 43.2232Z" fill="#F19080"/>
<path d="M68.4418 30.5125C68.4418 30.5125 68.4238 30.4999 68.4219 30.5125C68.4192 30.5431 68.4192 30.5739 68.4219 30.6045C68.4219 30.6153 68.44 30.6135 68.44 30.6045C68.4443 30.574 68.4449 30.5431 68.4418 30.5125Z" fill="#F19080"/>
<path d="M62.567 19.6387C62.4909 19.4099 62.4306 19.1762 62.3867 18.9392C62.3444 18.7322 62.3341 18.52 62.356 18.3099C62.2028 18.3839 62.0423 18.4487 61.9071 18.51C61.8081 18.5561 61.7056 18.5941 61.6006 18.6237L61.3698 18.7751C61.221 18.8792 61.065 18.9726 60.9028 19.0545V19.0708C60.8778 19.1008 60.8544 19.1321 60.8325 19.1645C60.5294 19.6701 60.313 20.2228 60.1925 20.7998C60.0507 21.3864 59.9555 21.9832 59.9076 22.5848C59.8824 22.875 59.8644 23.1653 59.8517 23.4574C59.8517 23.6089 59.8337 23.7693 59.8301 23.928C59.8016 24.0027 59.766 24.0746 59.7237 24.1425C59.7093 24.1659 59.6931 24.1876 59.6769 24.2092C59.661 24.218 59.6464 24.2289 59.6336 24.2417C59.6038 24.2503 59.5762 24.265 59.5524 24.2849C59.4262 24.3877 59.4695 24.6059 59.5146 24.7411C59.5831 24.9412 59.7832 24.9503 59.9635 24.9899C60.1438 25.0296 60.4611 25.1702 60.6342 25.0963C60.6637 25.0865 60.6902 25.0692 60.711 25.0461C60.7319 25.0231 60.7464 24.995 60.7532 24.9647C60.7582 24.8645 60.7479 24.7642 60.7225 24.6672L60.7676 24.687C60.7755 24.6987 60.7846 24.7096 60.7947 24.7195C60.7796 24.741 60.7697 24.7656 60.7658 24.7916C60.7594 24.8226 60.7654 24.855 60.7826 24.8816C60.7998 24.9083 60.8268 24.9271 60.8578 24.934C60.9012 24.937 60.9447 24.9292 60.9843 24.9112C61.024 24.8933 61.0585 24.8658 61.0849 24.8312C61.1417 24.7782 61.1845 24.7119 61.2094 24.6383C61.2147 24.6116 61.2124 24.584 61.2029 24.5585C61.1933 24.533 61.1768 24.5107 61.1553 24.4941C61.1372 24.465 61.1099 24.4428 61.0778 24.431C61.0056 24.4021 60.9443 24.3625 60.8812 24.33C60.8127 24.2882 60.741 24.2521 60.6667 24.2219C60.623 24.2006 60.577 24.1843 60.5296 24.1732C60.6649 23.452 60.8163 22.7542 61.0219 22.0547C61.1372 21.6671 61.258 21.2812 61.3824 20.8954C61.4798 20.6149 61.5463 20.3248 61.5807 20.03C61.6565 20.0119 61.7286 19.9849 61.7809 19.9723C62.0441 19.9092 62.3038 19.8388 62.5634 19.7685C62.5796 19.7649 62.5949 19.7582 62.6085 19.7487C62.5904 19.709 62.5778 19.6712 62.567 19.6387Z" fill="#F19080"/>
<path d="M88.0107 15.4684C88.0139 15.3185 88.0284 15.169 88.054 15.0213C88.042 15.0051 88.0257 14.9927 88.0071 14.9852C87.9138 14.9431 87.824 14.8936 87.7384 14.8374L87.7114 14.8229C87.5636 14.6517 87.3796 14.5002 87.2426 14.338C86.9993 14.0665 86.85 13.7238 86.8171 13.3608C86.8315 13.2624 86.8242 13.162 86.7955 13.0669C86.791 13.0107 86.7808 12.9551 86.7649 12.901C86.7649 12.8884 86.7648 12.8776 86.7522 12.8667C86.7534 12.853 86.7534 12.839 86.7522 12.8252C86.7522 12.6071 86.7612 12.3006 86.5719 12.1473C86.498 12.0922 86.4059 12.0675 86.3143 12.0783C86.2228 12.089 86.1388 12.1343 86.0797 12.205C86.0138 12.2944 85.9737 12.4003 85.9638 12.5109C85.954 12.6216 85.9747 12.7328 86.0238 12.8325C86.0679 12.9308 86.1369 13.0159 86.224 13.0795C86.2708 13.1155 86.3339 13.1354 86.379 13.1732C86.4241 13.2111 86.4439 13.2057 86.4457 13.2508C86.4297 13.6884 86.3118 14.1162 86.1013 14.5002C86.0815 14.8247 86.6314 15.2448 86.8045 15.4522C87.0732 15.7713 87.4355 16.0904 87.861 16.1572C87.8909 16.161 87.9213 16.1573 87.9494 16.1463C87.949 15.919 87.9695 15.692 88.0107 15.4684Z" fill="#F19080"/>
<path d="M89.4661 12.2283C89.4282 12.1544 89.3218 12.1237 89.2605 12.066C89.232 12.041 89.206 12.0132 89.183 11.9831C89.1684 11.9642 89.1551 11.9443 89.1434 11.9235C89.1434 11.9127 89.1235 11.8677 89.1235 11.8947C89.1235 11.7865 88.9811 11.7775 88.9342 11.8532C88.8621 11.9668 88.9793 12.1237 89.0514 12.2138C89.1235 12.304 89.2786 12.4374 89.412 12.3941C89.4279 12.3885 89.4423 12.3793 89.4541 12.3672C89.4659 12.3552 89.4747 12.3406 89.4799 12.3245C89.4851 12.3085 89.4866 12.2915 89.4842 12.2748C89.4818 12.2581 89.4756 12.2422 89.4661 12.2283Z" fill="#F5AE94"/>
<path d="M88.3716 11.6444C88.2616 11.6259 88.1489 11.6306 88.0409 11.6582C87.9328 11.6858 87.8317 11.7358 87.7442 11.8049C87.7141 11.8125 87.6865 11.8279 87.664 11.8494C87.6416 11.8708 87.6251 11.8977 87.6162 11.9275C87.6048 11.9773 87.6034 12.029 87.6121 12.0794C87.6208 12.1298 87.6395 12.1779 87.667 12.2211C87.6946 12.2642 87.7303 12.3014 87.7724 12.3305C87.8144 12.3597 87.8618 12.3802 87.9118 12.3908C88.028 12.4133 88.1482 12.4025 88.2585 12.3598C88.3689 12.3171 88.4649 12.2441 88.5356 12.1492C88.5686 12.1082 88.5909 12.0595 88.6003 12.0077C88.6098 11.9559 88.6063 11.9026 88.59 11.8525C88.5737 11.8024 88.5452 11.7572 88.5071 11.7208C88.469 11.6845 88.4224 11.6583 88.3716 11.6444Z" fill="#F5AE94"/>
<path d="M89.83 11.5377C89.8144 11.4942 89.7827 11.4584 89.7415 11.4376C89.7002 11.4168 89.6525 11.4126 89.6083 11.4259L89.4856 11.4548C89.46 11.4429 89.4319 11.4379 89.4038 11.4401C89.3756 11.4423 89.3486 11.4517 89.3252 11.4674C89.3043 11.47 89.2845 11.4778 89.2674 11.4901C89.2504 11.5024 89.2368 11.5188 89.2278 11.5377C89.1995 11.6024 89.1931 11.6746 89.2098 11.7433C89.2083 11.7819 89.2164 11.8203 89.2332 11.8551C89.2591 11.9122 89.3018 11.96 89.3556 11.9922C89.4094 12.0244 89.4717 12.0395 89.5343 12.0354C89.5916 12.039 89.6488 12.0281 89.7008 12.0039C89.7528 11.9796 89.7978 11.9427 89.8318 11.8965C89.8766 11.781 89.8759 11.6528 89.83 11.5377Z" fill="#F5AE94"/>
<path d="M87.8665 12.6198L87.8412 12.5856C87.8314 12.5727 87.8189 12.5621 87.8045 12.5546C87.7902 12.547 87.7744 12.5427 87.7582 12.5418C87.742 12.541 87.7258 12.5436 87.7108 12.5497C87.6958 12.5557 87.6822 12.565 87.6711 12.5767C87.66 12.5885 87.6516 12.6026 87.6464 12.6179C87.6413 12.6333 87.6395 12.6496 87.6413 12.6657C87.6431 12.6818 87.6483 12.6973 87.6567 12.7112C87.6651 12.7251 87.6763 12.737 87.6898 12.746L87.706 12.7569C87.7252 12.7742 87.75 12.784 87.7759 12.7844C87.8017 12.7848 87.8268 12.7757 87.8465 12.7589C87.8661 12.7421 87.879 12.7187 87.8827 12.6931C87.8864 12.6675 87.8806 12.6415 87.8665 12.6198Z" fill="#F5AE94"/>
<path d="M86.7089 12.5511C86.6796 12.4644 86.6309 12.3855 86.5665 12.3203C86.5437 12.2848 86.5125 12.2554 86.4757 12.2347C86.439 12.214 86.3978 12.2025 86.3556 12.2013C86.3145 12.2096 86.2759 12.2275 86.243 12.2535C86.2101 12.2795 86.1838 12.3129 86.1662 12.351C86.1446 12.396 86.2041 12.4231 86.2365 12.4014C86.269 12.3798 86.3231 12.3185 86.37 12.3293C86.4168 12.3401 86.4655 12.4249 86.4908 12.4627C86.516 12.5006 86.5124 12.497 86.5214 12.515V12.5349C86.4802 12.5679 86.4427 12.6054 86.4097 12.6466C86.3051 12.7476 86.4872 12.9117 86.5755 12.7963C86.6332 12.7296 86.7306 12.6449 86.7089 12.5511Z" fill="#F5AE94"/>
<path d="M81.3411 24.1855C81.2877 24.0474 81.2024 23.9239 81.0923 23.825L81.0742 23.8502C81.0449 23.9041 81.0213 23.9609 81.0039 24.0197C81.049 24.1585 81.1445 24.2829 81.0598 24.4362C80.957 24.6165 81.2527 24.7715 81.3483 24.584C81.3758 24.521 81.3895 24.4528 81.3882 24.384C81.387 24.3153 81.3709 24.2475 81.3411 24.1855Z" fill="#F5AE94"/>
<path d="M87.2125 15.5586C87.0844 14.8843 86.9889 14.2046 86.841 13.5339C86.841 13.5177 86.8086 13.5159 86.8086 13.5339C86.8291 14.2154 86.8893 14.895 86.9889 15.5695C87.0141 15.7119 87.2395 15.6939 87.2125 15.5586Z" fill="#F5AE94"/>
<path d="M87.8673 28.2297C87.7651 27.9644 87.6365 27.7101 87.4833 27.4706C87.0073 26.7242 86.3528 26.122 85.7434 25.4874C85.5098 25.7181 85.3445 26.0088 85.2656 26.3275C85.2219 26.5505 85.2623 26.7817 85.3792 26.9766C85.4409 27.0681 85.5156 27.1501 85.601 27.22C85.467 27.2815 85.3537 27.3804 85.2747 27.5049C85.2395 27.5718 85.223 27.6469 85.2268 27.7224C85.2306 27.7978 85.2546 27.8709 85.2963 27.934C85.4513 28.1828 85.3847 30.3175 85.1881 31.2947C85.0539 31.954 84.9689 32.6223 84.9339 33.2942C84.9411 33.6028 84.9236 33.9115 84.8816 34.2173C84.7695 34.2257 84.6603 34.257 84.5607 34.3093C84.5258 34.3327 84.4965 34.3635 84.4749 34.3996C84.4533 34.4356 84.4399 34.476 84.4356 34.5178C84.4313 34.5596 84.4362 34.6018 84.45 34.6415C84.4639 34.6811 84.4863 34.7173 84.5156 34.7474C84.5207 34.7514 84.5249 34.7563 84.5282 34.7618L84.5445 34.7816C84.5125 34.8016 84.4787 34.8186 84.4435 34.8321C84.4266 34.8379 84.4118 34.8484 84.4008 34.8625C84.3898 34.8765 84.3831 34.8935 84.3816 34.9112C84.3801 34.929 84.3837 34.9468 84.3922 34.9626C84.4006 34.9783 84.4134 34.9912 84.429 34.9998C84.8419 35.2414 84.3533 35.4361 84.2181 35.4631C84.1588 35.4664 84.1006 35.4811 84.0468 35.5064C84.0127 35.5257 83.9826 35.5516 83.9585 35.5825C83.9344 35.6135 83.9166 35.6489 83.9062 35.6867C83.8824 35.8145 83.8758 35.9448 83.8864 36.0744C83.8557 36.2727 83.773 36.4593 83.6466 36.6153C83.1364 37.3743 82.6117 38.1225 82.096 38.8744L79.031 43.3439C79.0239 43.354 79.0193 43.3656 79.0176 43.3778C79.0159 43.39 79.0171 43.4024 79.0212 43.414C79.0252 43.4257 79.032 43.4362 79.0409 43.4447C79.0499 43.4532 79.0606 43.4594 79.0725 43.4629C79.0202 43.5296 78.9679 43.5963 78.9174 43.6648C78.8669 43.7333 78.9697 43.7983 79.0166 43.7352C79.6877 42.8644 80.5575 42.167 81.5533 41.7014C82.0473 41.4562 82.3485 41.0217 82.6928 40.6052C83.1039 40.1094 83.5186 39.6154 83.9188 39.1105C85.2915 37.3793 86.3307 35.4083 86.9839 33.2978C87.2536 32.4314 87.4727 31.5501 87.6401 30.6583C87.6401 30.6078 87.6401 30.5573 87.6401 30.5068C87.8841 29.774 87.9617 28.9962 87.8673 28.2297Z" fill="#3C5E80"/>
<path d="M91.6618 34.2642C91.655 34.2977 91.6578 34.3324 91.6699 34.3643C91.6821 34.3962 91.703 34.424 91.7303 34.4445L91.6618 34.2642Z" fill="#3C5E80"/>
<path d="M92.9708 35.4163C92.9412 35.0513 92.8809 34.6894 92.7905 34.3345C92.9618 34.8141 93.1277 35.2973 93.2845 35.7769C93.7413 37.176 94.1392 38.5937 94.4781 40.0301C94.636 40.7182 94.7296 41.4196 94.7576 42.1251C94.7576 42.2946 94.7756 42.4641 94.7882 42.6335C94.8699 42.6231 94.9491 42.5987 95.0226 42.5614C95.1165 42.5097 95.2008 42.442 95.2714 42.3613C95.3157 42.2605 95.3442 42.1534 95.3562 42.044C95.3601 41.7315 95.3138 41.4205 95.2191 41.1227C95.1416 40.7909 95.0659 40.4574 94.9883 40.1256C94.6692 38.741 94.3357 37.3599 93.9607 35.9896C93.2305 33.3303 92.338 30.7015 91.0363 28.2567C90.6757 27.568 90.2772 26.8955 89.8481 26.2446C89.7039 26.0247 89.5524 25.8065 89.4064 25.5883C89.2866 25.9925 89.1119 26.3784 88.8871 26.735L88.8601 26.7963C88.8384 26.8495 88.7989 26.8935 88.7483 26.9207C88.7255 26.947 88.6987 26.9695 88.6689 26.9874C88.7353 27.196 88.8229 27.3972 88.9304 27.5878C89.4009 28.4598 89.9166 29.3065 90.4755 30.1246C91.5447 31.7599 92.5598 33.4438 92.8537 35.4109C92.8609 35.4974 92.9762 35.4938 92.9708 35.4163Z" fill="#3C5E80"/>
<path d="M67.4572 27.8403C67.2895 27.5536 67.1273 27.2615 66.965 26.9713C66.7702 26.6348 66.6474 26.2615 66.6044 25.8751C66.5972 25.843 66.5814 25.8135 66.5586 25.7898C66.5359 25.766 66.507 25.7489 66.4753 25.7404C66.4435 25.7319 66.4101 25.7322 66.3785 25.7413C66.3469 25.7504 66.3184 25.768 66.2961 25.7921C65.1061 25.8552 63.8693 25.8102 62.7316 25.4315C62.7098 25.4232 62.6864 25.4202 62.6632 25.4227C62.64 25.4252 62.6177 25.4332 62.5982 25.4459C62.2773 25.4459 62.124 25.9652 62.0465 26.2158C61.9282 26.6255 61.8788 27.052 61.9004 27.4779C61.9329 28.5182 62.2178 29.5207 62.0807 30.5664C62.0807 30.6024 61.9672 31.3867 61.9762 31.4156C61.9347 31.4949 64.6608 31.5237 64.8826 31.5472C65.0466 31.5652 65.1602 30.3464 65.2125 30.0579C65.4235 30.442 65.8201 31.5472 65.9337 31.5183C66.1573 31.4588 66.3051 31.2461 66.4998 31.1235C66.7234 30.9828 66.9506 30.8494 67.1795 30.7178C67.6158 30.4654 68.1531 30.1769 68.6652 30.1228C68.8797 30.0922 67.8178 28.4479 67.4572 27.8403Z" fill="#3A89C7"/>
<path d="M65.4136 28.6049C65.1918 28.7852 64.9485 29.2017 64.55 29.1639C64.5626 29.3081 63.9676 31.3274 63.9712 31.5726C64.1154 31.5726 64.779 31.5978 64.8943 31.6736C65.163 31.3707 65.3955 28.7996 65.4136 28.6049Z" fill="#569ED1"/>
<path d="M68.4257 29.5386C68.1964 29.1223 67.9385 28.7223 67.6541 28.3414C67.4112 27.9835 67.2091 27.5995 67.0519 27.1966C66.9924 27.065 66.9238 26.9333 66.8716 26.7981C66.8499 26.9261 66.8247 27.0379 66.8175 27.074C66.7508 27.3516 66.6372 27.8492 66.4064 28.1125C66.4064 28.1251 66.4064 28.1341 66.4064 28.1341C66.2892 28.3505 67.2448 29.7459 67.5711 30.404C67.74 30.2613 67.933 30.1496 68.1409 30.0741C68.2969 30.012 68.458 29.9632 68.6222 29.9281C68.5591 29.7982 68.4943 29.6666 68.4257 29.5386Z" fill="#569ED1"/>
<path d="M68.2332 21.1172C68.1574 20.7566 68.0528 20.4087 67.9501 20.0607C67.8533 19.6834 67.7248 19.3148 67.5661 18.9591C67.5231 18.8881 67.466 18.8268 67.3984 18.7788C67.4186 18.9384 67.3994 19.1006 67.3425 19.2512C67.3213 19.3129 67.2861 19.3689 67.2398 19.4148C67.1935 19.4608 67.1372 19.4955 67.0754 19.5163C67.0135 19.537 66.9477 19.5432 66.883 19.5344C66.8183 19.5257 66.7566 19.5022 66.7024 19.4657C66.2616 19.1652 65.9541 18.7059 65.8442 18.1838C65.8104 18.1854 65.7772 18.194 65.7469 18.2091C65.7138 18.2252 65.6845 18.2481 65.6609 18.2763C65.6372 18.3045 65.6198 18.3374 65.6098 18.3728C65.5997 18.4082 65.5973 18.4453 65.6026 18.4817C65.6079 18.5181 65.6208 18.553 65.6405 18.5841L65.6549 18.6057C65.6201 18.6245 65.5896 18.6501 65.5651 18.6811C65.5406 18.7122 65.5227 18.7478 65.5125 18.786C65.4888 18.8686 65.4561 18.9485 65.4151 19.024C65.3556 19.0064 65.2918 19.0102 65.2348 19.0348L65.105 19.0925C64.8533 19.03 64.5908 19.0251 64.3369 19.0781C64.2853 19.089 64.2386 19.1162 64.2035 19.1556C63.9872 19.2764 63.8646 19.5397 63.7564 19.7542C63.7365 19.7957 63.7131 19.8408 63.6879 19.8858C63.665 19.9051 63.6466 19.9291 63.6338 19.9561C62.8626 21.5724 62.4769 23.3455 62.5069 25.136C62.3879 25.2352 62.3537 25.4407 62.534 25.4966C63.1809 25.7188 63.844 25.8912 64.5172 26.0123C65.135 26.163 65.7799 26.163 66.3977 26.0123C66.4474 26.0018 66.4922 25.975 66.5249 25.9361C66.5576 25.8972 66.5763 25.8485 66.578 25.7978C66.5974 25.7825 66.613 25.7631 66.6236 25.7409C66.6342 25.7187 66.6396 25.6943 66.6393 25.6697C66.6393 25.0982 66.5906 24.5771 66.7259 24.0128L66.7367 23.9713C66.784 23.8438 66.84 23.7197 66.9043 23.5999C67.1897 23.1275 67.5168 22.6817 67.8816 22.2675C67.9555 22.1756 68.0366 22.0872 68.1052 21.979C68.173 21.9076 68.2243 21.8221 68.2554 21.7287C68.2866 21.6352 68.2969 21.536 68.2854 21.4382C68.2746 21.33 68.2566 21.2236 68.2332 21.1172Z" fill="#88BC24"/>
<path d="M65.9403 17.5056C65.9224 17.489 65.903 17.4739 65.8826 17.4605C65.266 17.3054 64.534 17.5416 63.9517 17.7075C63.5911 17.812 63.2124 17.8968 62.85 18.0158C62.6337 18.0879 62.4192 18.1672 62.2028 18.2357C62.1839 18.5162 62.2008 18.798 62.2532 19.0741C62.3267 19.3783 62.4306 19.6742 62.5634 19.9576C62.7493 19.9491 62.9324 19.9082 63.1043 19.8368C63.442 19.7489 63.7863 19.6886 64.1338 19.6565C64.6747 19.6096 65.1993 19.6186 65.5995 19.1859C65.6248 19.1589 65.6483 19.1282 65.6717 19.0976C65.7379 19.0232 65.7893 18.937 65.8231 18.8433C65.8764 18.7289 65.9134 18.6075 65.9331 18.4828C65.7889 18.1763 65.7691 17.7544 65.9403 17.5056Z" fill="#0D873D"/>
<path d="M88.822 19.9413C88.7811 19.5714 88.7655 19.1991 88.7752 18.8271C88.7588 18.4643 88.7191 18.103 88.6562 17.7453C88.5199 17.0716 88.2912 16.42 87.9765 15.8089C87.7313 16.0956 87.5997 16.083 87.349 15.8882C87.1872 15.7798 87.0451 15.6444 86.9289 15.488L86.8839 15.4285C86.7357 15.2496 86.603 15.0584 86.4872 14.857C86.3484 14.6172 86.1717 14.3161 86.1879 14.0294C86.1699 14.0294 85.0611 14.3269 82.3783 16.5139C82.1204 16.7231 81.9113 16.9773 81.648 17.1792C81.5886 17.2243 81.5183 17.291 81.4443 17.3595V17.3973C81.4554 17.4643 81.476 17.5292 81.5056 17.5903C81.5867 17.7538 81.6808 17.9105 81.7869 18.059C82.0068 18.3908 82.2358 18.7189 82.4666 19.0452C82.5097 19.1083 82.5735 19.1542 82.6469 19.1751C82.702 19.0855 82.7735 19.0072 82.8578 18.9443C82.958 18.8724 83.0621 18.8061 83.1697 18.746C83.2148 18.7189 83.2545 18.6919 83.2978 18.6702C83.415 18.5729 83.5304 18.4719 83.6403 18.3619C83.8729 18.133 84.1001 17.8986 84.3327 17.6714C84.8123 17.2044 85.5154 16.5986 85.1368 15.8684C85.1318 15.852 85.1318 15.8344 85.1368 15.8179C85.2611 15.9973 85.3549 16.1959 85.4145 16.4057C85.3532 16.8817 85.0034 17.3504 84.7113 17.6948C84.4625 17.9851 84.1938 18.261 83.9324 18.5386L83.8387 18.636V18.6522C83.7959 18.8903 83.7736 19.1315 83.7719 19.3734C83.7359 19.8349 83.7305 20.3001 83.7269 20.7635C83.7269 21.701 83.7665 22.6349 83.8513 23.5689C83.8588 23.6278 83.8824 23.6836 83.9193 23.7301C83.9562 23.7767 84.0052 23.8122 84.0608 23.833C84.1165 23.8538 84.1768 23.859 84.2351 23.848C84.2935 23.837 84.3478 23.8104 84.3922 23.7708C84.6933 23.6848 84.985 23.5688 85.263 23.4246C85.599 23.2801 85.9448 23.1596 86.2979 23.064C86.6562 22.9699 87.0255 22.9238 87.3959 22.927C87.7277 22.927 88.191 23.129 88.4777 22.918C88.5542 22.8366 88.6093 22.7375 88.6381 22.6295C88.7738 21.7573 88.8449 20.8763 88.8509 19.9936C88.8426 19.9874 88.8358 19.9796 88.8308 19.9706C88.8258 19.9616 88.8228 19.9516 88.822 19.9413Z" fill="#E64020"/>
<path d="M89.9271 13.1352C90.0139 13.1284 90.0979 13.1011 90.1723 13.0558C90.2187 13.0186 90.2551 12.9705 90.2784 12.9158C90.3017 12.861 90.3111 12.8014 90.3057 12.7421C90.3057 12.7133 90.1254 12.8629 89.9451 12.6538C89.9138 12.5995 89.8689 12.5544 89.8149 12.5228C89.7608 12.4912 89.6994 12.4742 89.6368 12.4735C89.6346 12.5208 89.6225 12.5671 89.6011 12.6094C89.5798 12.6516 89.5497 12.6889 89.5129 12.7187C89.4761 12.7485 89.4334 12.7701 89.3877 12.7823C89.3419 12.7944 89.2941 12.7967 89.2474 12.789C89.1405 12.7713 89.0409 12.7231 88.9607 12.6502C88.8531 12.65 88.746 12.6664 88.6434 12.6989C88.4378 12.7674 88.0141 13.2957 87.8339 12.9928C87.8298 12.9855 87.8234 12.9798 87.8158 12.9765C87.8158 12.9387 87.7473 12.9296 87.7383 12.9765C87.7234 13.0278 87.7196 13.0816 87.727 13.1344C87.7345 13.1873 87.7531 13.2379 87.7816 13.283C87.7092 13.2808 87.6389 13.2586 87.5784 13.2188C87.5179 13.179 87.4697 13.1232 87.439 13.0576C87.2587 12.7457 87.2587 12.4176 87.1812 12.0859C87.1876 12.0738 87.1912 12.0604 87.1915 12.0467C87.1919 12.033 87.1891 12.0194 87.1834 12.007C87.1776 11.9946 87.169 11.9837 87.1583 11.9752C87.1476 11.9666 87.1351 11.9607 87.1217 11.9579C87.0628 11.941 87.0024 11.9301 86.9414 11.9254C86.9024 11.9042 86.8605 11.889 86.817 11.8803C86.7735 11.8722 86.7295 11.8668 86.6853 11.8641C86.6583 11.8641 86.6042 11.8641 86.5646 11.8641C86.4802 11.8261 86.3872 11.8114 86.2953 11.8215C86.2033 11.8317 86.1158 11.8663 86.0417 11.9218C86.018 11.9358 86.0006 11.9584 85.993 11.9849C85.7586 12.2211 85.7731 12.7061 85.9317 12.9693C85.9428 12.9848 85.9589 12.9958 85.9774 13.0006C85.9958 13.0054 86.0153 13.0035 86.0325 12.9953C86.0496 12.9872 86.0634 12.9732 86.0713 12.956C86.0793 12.9387 86.0809 12.9192 86.076 12.9008C86.0081 12.696 86.0177 12.4734 86.103 12.2752C86.2472 11.9452 86.5213 12.149 86.6439 12.3689C86.6439 12.3816 86.6529 12.396 86.6583 12.4104C86.5763 13.0944 86.7497 13.7845 87.1451 14.3486C87.3137 14.617 87.5356 14.848 87.797 15.0273C88.0584 15.2065 88.3539 15.3302 88.665 15.3907C89.2708 15.5079 89.9884 15.333 90.2047 14.7525C90.5365 14.2837 90.2787 13.5625 89.9271 13.1352Z" fill="#E95A21"/>
<path d="M89.7337 11.3414C89.6293 11.2891 89.51 11.2747 89.3962 11.3006C89.2824 11.3266 89.1812 11.3914 89.1099 11.4838C88.9554 11.4892 88.8088 11.5537 88.7006 11.6641C88.6558 11.6113 88.6007 11.5681 88.5387 11.5372C88.4767 11.5062 88.4092 11.488 88.34 11.4838C88.1305 11.4731 87.9221 11.5205 87.7378 11.6209C87.6242 11.6732 87.4926 11.7309 87.4764 11.8553C87.4652 11.8721 87.4561 11.8903 87.4493 11.9094C87.233 11.9598 87.0166 12.0157 86.8003 12.0626C86.7101 12.0824 86.5785 12.0716 86.4775 12.1023L86.5082 12.1221C86.548 12.153 86.5811 12.1917 86.6055 12.2357C86.6831 12.2357 86.7624 12.2159 86.8273 12.205C87.0292 12.1762 87.2312 12.1366 87.4313 12.1005C87.4451 12.1738 87.4748 12.2431 87.5184 12.3035C87.5621 12.364 87.6185 12.4141 87.6837 12.4503C87.8643 12.5246 88.0652 12.5339 88.2519 12.4767C88.4387 12.4195 88.5998 12.2993 88.7078 12.1365C88.7438 12.0814 88.7667 12.0188 88.7748 11.9535C88.7829 11.8882 88.7761 11.8219 88.7547 11.7597C88.8557 11.6965 88.9697 11.657 89.0882 11.6443C89.1171 11.7415 89.1672 11.831 89.2348 11.9064C89.3025 11.9819 89.386 12.0414 89.4795 12.0806C89.5249 12.1016 89.5741 12.1129 89.6241 12.1137C89.6741 12.1146 89.7238 12.1051 89.7699 12.0858C89.816 12.0665 89.8576 12.0377 89.892 12.0015C89.9265 11.9652 89.953 11.9222 89.9699 11.8751C89.9967 11.7726 89.9879 11.664 89.945 11.567C89.9021 11.4701 89.8276 11.3906 89.7337 11.3414ZM88.5618 11.967C88.5095 12.1581 88.2535 12.2699 88.0768 12.297C87.8424 12.3348 87.5359 12.187 87.6422 11.9364C87.8622 11.7182 88.6898 11.4874 88.5618 11.967ZM89.6309 11.9508C89.4506 11.9508 89.3136 11.7957 89.2325 11.6533C89.2974 11.61 89.3244 11.5487 89.4037 11.5199C89.4453 11.502 89.4901 11.4929 89.5354 11.4929C89.5806 11.4929 89.6254 11.502 89.667 11.5199C89.8328 11.6155 89.8761 11.9418 89.6345 11.9508H89.6309Z" fill="#295425"/>
<path d="M88.2989 11.9147C88.2502 11.8804 88.1673 11.9147 88.1186 11.9363C88.0564 11.962 88.0004 12.0007 87.9545 12.0499C87.9293 12.0787 87.9671 12.1292 88.0014 12.104C88.049 12.0627 88.1033 12.0299 88.1619 12.0066C88.2087 11.9886 88.2682 11.9922 88.3061 11.9579C88.3088 11.9548 88.3107 11.951 88.3118 11.947C88.3129 11.943 88.3131 11.9387 88.3125 11.9346C88.3118 11.9305 88.3102 11.9266 88.3079 11.9232C88.3055 11.9197 88.3025 11.9168 88.2989 11.9147Z" fill="#A24515"/>
<path d="M89.5423 11.6551C89.5168 11.65 89.4903 11.652 89.4659 11.6609C89.4414 11.6698 89.4198 11.6853 89.4035 11.7056C89.3997 11.712 89.398 11.7194 89.3985 11.7268C89.3991 11.7342 89.402 11.7412 89.4067 11.7469C89.4115 11.7527 89.4178 11.7568 89.425 11.7587C89.4322 11.7607 89.4398 11.7604 89.4467 11.7579C89.4742 11.7445 89.5046 11.7383 89.5351 11.7399C89.5838 11.7417 89.5874 11.6659 89.5423 11.6551Z" fill="#A24515"/>
<path d="M90.0787 12.9946L90.0282 13.0234C89.9867 12.9891 89.9308 12.9729 89.8858 12.9405C89.8419 12.9026 89.8015 12.861 89.765 12.8161C89.7621 12.8138 89.7585 12.8124 89.7548 12.8122C89.751 12.8119 89.7473 12.8129 89.7442 12.8148C89.741 12.8168 89.7385 12.8198 89.7371 12.8232C89.7357 12.8267 89.7353 12.8304 89.7361 12.8341C89.7611 12.8951 89.8022 12.9481 89.8551 12.9874C89.8894 13.0177 89.9301 13.0398 89.9741 13.0522C89.9114 13.0867 89.8399 13.1018 89.7686 13.0955C89.7106 13.0946 89.6535 13.0809 89.6015 13.0553C89.5494 13.0298 89.5037 12.993 89.4675 12.9477C89.466 12.9455 89.464 12.9436 89.4616 12.9424C89.4593 12.9411 89.4567 12.9404 89.454 12.9404C89.4513 12.9404 89.4486 12.9411 89.4463 12.9424C89.4439 12.9436 89.4419 12.9455 89.4404 12.9477C89.4404 13.2199 90.0462 13.265 90.1183 13.0144C90.1177 13.0101 90.1161 13.006 90.1135 13.0025C90.111 12.9989 90.1076 12.9961 90.1037 12.9941C90.0998 12.9922 90.0955 12.9912 90.0911 12.9913C90.0868 12.9913 90.0825 12.9925 90.0787 12.9946Z" fill="#A24515"/>
<path d="M89.8317 13.0235C89.7748 13.0165 89.7204 12.9961 89.673 12.964C89.6257 12.9281 89.591 12.8783 89.5738 12.8216C89.5738 12.809 89.5486 12.8216 89.5504 12.8216C89.5702 12.946 89.6928 13.0884 89.8335 13.0595C89.8569 13.0632 89.8515 13.0289 89.8317 13.0235Z" fill="#A24515"/>
<path d="M89.9608 14.1178C89.9009 13.8731 89.7575 13.6569 89.5552 13.5066C89.5426 13.4976 89.5263 13.5066 89.5353 13.5265C89.726 13.6992 89.8589 13.9264 89.9158 14.1773C89.9518 14.4171 89.9302 14.6533 89.9482 14.8985C89.9482 14.9129 89.9716 14.9201 89.977 14.8985C90.0384 14.6412 90.0328 14.3724 89.9608 14.1178Z" fill="#A24515"/>
<path d="M89.7981 14.4496C89.7758 14.1824 89.6603 13.9316 89.4718 13.741C89.4592 13.7302 89.4412 13.7501 89.4502 13.7645C89.597 13.9515 89.6932 14.1731 89.7297 14.4081C89.7603 14.6118 89.8144 14.9274 89.6629 15.0932C89.6586 15.0971 89.656 15.1025 89.6557 15.1082C89.6554 15.114 89.6573 15.1196 89.6611 15.1239C89.6649 15.1282 89.6703 15.1308 89.6761 15.1311C89.6818 15.1315 89.6875 15.1295 89.6918 15.1257C89.8919 15.0031 89.8252 14.6407 89.7981 14.4496Z" fill="#A24515"/>
<path d="M89.5287 14.5417C89.5124 14.2785 89.4231 14.0251 89.2709 13.8098C89.2582 13.7917 89.233 13.8097 89.2456 13.8314C89.3672 14.0343 89.44 14.2626 89.4584 14.4985C89.5079 14.7139 89.4922 14.9392 89.4133 15.1457C89.4116 15.1499 89.4112 15.1545 89.4122 15.1589C89.4133 15.1632 89.4156 15.1672 89.419 15.1702C89.4224 15.1731 89.4266 15.175 89.431 15.1754C89.4355 15.1759 89.44 15.175 89.4439 15.1728C89.6224 15.0538 89.5503 14.7184 89.5287 14.5417Z" fill="#A24515"/>
<path d="M89.2401 14.219C89.2266 14.0697 89.1631 13.9292 89.0598 13.8205C89.0328 13.7989 88.9967 13.8385 89.0183 13.862C89.1169 14.0089 89.1713 14.1809 89.1752 14.3578C89.1833 14.5109 89.1833 14.6644 89.1752 14.8176C89.1752 14.85 89.2221 14.85 89.2293 14.8176C89.2782 14.6214 89.2819 14.4168 89.2401 14.219Z" fill="#EB651E"/>
<path d="M89.7324 13.5211C89.7179 13.5211 89.7017 13.5337 89.7125 13.5463C89.8206 13.6457 89.9157 13.7584 89.9956 13.8816C90.0599 14.0207 90.0978 14.1705 90.1074 14.3234C90.1088 14.3283 90.1117 14.3326 90.1158 14.3356C90.1199 14.3387 90.1248 14.3404 90.1299 14.3404C90.135 14.3404 90.1399 14.3387 90.144 14.3356C90.1481 14.3326 90.1511 14.3283 90.1525 14.3234C90.1777 14.1623 90.1504 13.9974 90.0748 13.8529C89.9991 13.7085 89.8791 13.5921 89.7324 13.5211Z" fill="#EB651E"/>
<path d="M89.4675 13.8818C89.4665 13.879 89.4646 13.8767 89.4622 13.875C89.4598 13.8733 89.4569 13.8724 89.454 13.8724C89.451 13.8724 89.4481 13.8733 89.4457 13.875C89.4433 13.8767 89.4415 13.879 89.4404 13.8818C89.4546 14.0031 89.4932 14.1202 89.554 14.2261C89.6097 14.3953 89.6354 14.5729 89.6297 14.7508C89.6311 14.7553 89.6338 14.7592 89.6375 14.762C89.6413 14.7648 89.6458 14.7663 89.6505 14.7663C89.6551 14.7663 89.6597 14.7648 89.6634 14.762C89.6672 14.7592 89.6699 14.7553 89.6712 14.7508C89.7938 14.4678 89.5937 14.1324 89.4675 13.8818Z" fill="#EB651E"/>
<path d="M89.6332 13.8114C89.617 13.7969 89.5881 13.8113 89.6008 13.8384C89.6403 13.8967 89.677 13.9568 89.7107 14.0187C89.7378 14.0782 89.7522 14.1431 89.7775 14.199C89.7795 14.204 89.7833 14.2081 89.7881 14.2106C89.7928 14.2132 89.7984 14.214 89.8037 14.2129C89.809 14.2119 89.8138 14.209 89.8172 14.2048C89.8206 14.2006 89.8225 14.1954 89.8225 14.19C89.8113 14.0439 89.7434 13.908 89.6332 13.8114Z" fill="#EB651E"/>
<path d="M88.6358 13.3644C88.5222 13.5447 88.1598 13.5303 88.0174 13.3951C88.0083 13.386 87.9975 13.3951 88.0029 13.4059C88.0466 13.4579 88.1022 13.4986 88.1649 13.5247C88.2277 13.5507 88.2958 13.5613 88.3635 13.5555C88.4663 13.5555 88.6772 13.5104 88.6899 13.3752C88.6913 13.368 88.6898 13.3606 88.6858 13.3545C88.6817 13.3484 88.6754 13.3442 88.6682 13.3428C88.661 13.3413 88.6536 13.3428 88.6475 13.3469C88.6414 13.3509 88.6372 13.3572 88.6358 13.3644Z" fill="#EB651E"/>
<path d="M88.7008 13.175C88.618 13.2488 88.5162 13.2982 88.4069 13.3175C88.2933 13.3337 88.1166 13.3535 88.0463 13.2562C88.0438 13.2536 88.0404 13.2519 88.0368 13.2515C88.0332 13.251 88.0295 13.2518 88.0264 13.2537C88.0233 13.2555 88.0209 13.2584 88.0196 13.2618C88.0183 13.2652 88.0182 13.2689 88.0193 13.2724C88.0752 13.4112 88.2465 13.404 88.3799 13.3968C88.5133 13.3896 88.6954 13.3463 88.7405 13.2057C88.7405 13.1858 88.7315 13.1606 88.7008 13.175Z" fill="#EB651E"/>
<path d="M90.2256 12.8866C90.1947 12.8994 90.1616 12.9061 90.1282 12.9061C90.0948 12.9061 90.0617 12.8994 90.0308 12.8866C89.9821 12.8649 89.892 12.8181 89.8758 12.764C89.8758 12.7611 89.8752 12.7583 89.8741 12.7557C89.873 12.7531 89.8715 12.7507 89.8695 12.7486C89.8674 12.7466 89.865 12.7451 89.8624 12.744C89.8598 12.7429 89.857 12.7423 89.8541 12.7423C89.8513 12.7423 89.8485 12.7429 89.8459 12.744C89.8432 12.7451 89.8409 12.7466 89.8389 12.7486C89.8368 12.7507 89.8352 12.7531 89.8341 12.7557C89.8331 12.7583 89.8325 12.7611 89.8325 12.764C89.8325 12.9172 90.1696 13.0741 90.2526 12.9064C90.2521 12.9033 90.2511 12.9003 90.2495 12.8976C90.2479 12.895 90.2458 12.8926 90.2432 12.8908C90.2407 12.8889 90.2379 12.8876 90.2348 12.8869C90.2318 12.8861 90.2286 12.886 90.2256 12.8866Z" fill="#EB651E"/>
<path d="M86.9294 12.742C86.9294 12.7257 86.9132 12.715 86.9042 12.7276C86.8137 12.8852 86.7699 13.0652 86.778 13.2468C86.778 13.3333 86.7419 13.5425 86.8735 13.5497C86.8825 13.5497 86.8898 13.5371 86.8843 13.5299C86.8068 13.4325 86.8411 13.2288 86.8501 13.1152C86.8528 12.9869 86.8797 12.8603 86.9294 12.742Z" fill="#EB651E"/>
<path d="M87.0796 13.0435C87.0809 13.0385 87.0803 13.0331 87.078 13.0284C87.0756 13.0238 87.0717 13.0201 87.0668 13.0181C87.062 13.0162 87.0566 13.016 87.0517 13.0177C87.0467 13.0194 87.0426 13.0228 87.04 13.0273C86.9228 13.3013 86.8001 13.6782 86.9967 13.9468C87.0093 13.9649 87.0327 13.9468 87.0291 13.9306C86.9902 13.7855 86.9725 13.6355 86.9768 13.4853C86.9911 13.3341 87.0257 13.1855 87.0796 13.0435Z" fill="#EB651E"/>
<path d="M87.2761 14.3611C87.2314 14.2002 87.1983 14.0364 87.1769 13.8707C87.1664 13.7041 87.1853 13.5368 87.2328 13.3767C87.2338 13.3713 87.233 13.3657 87.2302 13.3608C87.2275 13.356 87.2232 13.3523 87.218 13.3504C87.2128 13.3484 87.2072 13.3484 87.2019 13.3502C87.1967 13.3521 87.1923 13.3558 87.1895 13.3605C87.0814 13.667 87.0345 14.0961 87.2364 14.381C87.239 14.3863 87.2436 14.3903 87.2492 14.3921C87.2548 14.394 87.2609 14.3935 87.2662 14.3909C87.2714 14.3883 87.2754 14.3837 87.2773 14.3781C87.2792 14.3725 87.2787 14.3664 87.2761 14.3611Z" fill="#EB651E"/>
<path d="M87.5915 14.6858C87.5072 14.5622 87.4405 14.4275 87.3932 14.2855C87.3535 14.1294 87.3535 13.9658 87.3932 13.8096C87.3932 13.7771 87.3517 13.7573 87.3427 13.7915C87.2507 14.0872 87.2814 14.5127 87.5518 14.7164C87.5559 14.7217 87.5619 14.7251 87.5684 14.726C87.575 14.7268 87.5817 14.725 87.587 14.721C87.5922 14.7169 87.5957 14.7109 87.5965 14.7043C87.5974 14.6977 87.5955 14.691 87.5915 14.6858Z" fill="#EB651E"/>
<path d="M65.634 15.8234C65.6223 15.7953 65.6085 15.7682 65.5925 15.7423C65.5828 15.7247 65.5697 15.7093 65.5538 15.697C65.538 15.6847 65.5199 15.6758 65.5005 15.6707C65.4811 15.6657 65.4609 15.6646 65.4411 15.6676C65.4212 15.6706 65.4022 15.6776 65.3852 15.6882C65.3683 15.6991 65.3536 15.7132 65.3419 15.7296C65.3304 15.7296 65.319 15.7319 65.3084 15.7364C65.2978 15.7408 65.2881 15.7474 65.2801 15.7556C65.272 15.7638 65.2657 15.7736 65.2615 15.7843C65.2572 15.795 65.2551 15.8065 65.2554 15.818C65.2554 15.8811 65.2554 15.9442 65.268 16.0073C65.2541 16.1004 65.2616 16.1954 65.29 16.2851C65.3185 16.3747 65.3671 16.4567 65.4321 16.5247C65.4697 16.5542 65.5168 16.5686 65.5644 16.5653C65.6121 16.5619 65.6568 16.5411 65.6899 16.5067C65.5865 16.2939 65.5666 16.0502 65.634 15.8234Z" fill="#0074A9"/>
<path d="M69.8588 14.3722C69.8472 14.3551 69.8304 14.3423 69.8108 14.3358C69.7913 14.3293 69.7701 14.3294 69.7506 14.3361C69.4423 14.4299 69.2187 13.6294 69.0943 13.4256C68.9595 13.1934 68.7653 13.0011 68.5318 12.8685C67.9566 12.5638 67.2896 12.7639 66.7415 13.0272C66.444 13.1696 66.1519 13.3247 65.8652 13.4887C65.6132 13.6067 65.4108 13.8097 65.2937 14.0621C65.215 14.335 65.2063 14.6233 65.2685 14.9004C65.3452 15.2334 65.3245 15.5814 65.2089 15.9029C65.1732 15.9198 65.1403 15.9424 65.1116 15.9696C65.0809 16.0039 65.4722 15.9985 65.4848 15.9696C65.7733 15.9318 65.8057 15.5044 66.0383 15.3602C66.1884 15.2688 66.368 15.2391 66.5395 15.2773C66.6405 15.3097 66.7198 15.4251 66.828 15.4702C66.9552 15.519 67.0942 15.5278 67.2264 15.4954C67.7069 15.3698 68.1785 15.2127 68.6382 15.0249C69.0457 14.886 69.5397 14.7941 69.9003 14.5327C69.9118 14.5207 69.92 14.506 69.9242 14.4899C69.9284 14.4738 69.9284 14.4569 69.9243 14.4408C69.9201 14.4248 69.9119 14.41 69.9005 14.398C69.889 14.386 69.8747 14.3771 69.8588 14.3722Z" fill="#FFD523"/>
<path d="M69.4703 15.1617C68.8789 15.2627 68.2929 15.3763 67.7088 15.5061C67.5285 15.5458 67.2437 15.5548 67.1156 15.7062C66.9876 15.8577 67.0074 16.1101 67.0111 16.2814C67.0309 17.1829 67.7214 17.9672 68.6482 17.9149C68.6647 17.9138 68.6804 17.9074 68.6931 17.8967C68.7058 17.886 68.7146 17.8715 68.7185 17.8554C68.7627 17.8222 68.7934 17.7742 68.805 17.7202C68.8166 17.6662 68.8083 17.6098 68.7816 17.5615C68.677 17.2712 68.6752 16.9719 68.585 16.678C68.5368 16.4859 68.4193 16.3183 68.2551 16.2074C68.1671 16.1588 68.0689 16.1316 67.9684 16.1281C67.8564 16.1138 67.7455 16.0915 67.6367 16.0614C67.7445 15.9594 67.8658 15.8726 67.9973 15.8036C68.192 15.7026 68.5219 15.571 68.7419 15.6594C68.8266 15.6936 68.8645 15.7694 68.969 15.7513C69.1638 15.7171 69.2377 15.4737 69.4577 15.4358C69.4743 15.4332 69.4896 15.4253 69.5013 15.4133C69.513 15.4012 69.5204 15.3857 69.5226 15.3691C69.6199 15.3114 69.5947 15.1437 69.4703 15.1617Z" fill="#F5AE94"/>
<path d="M69.1478 16.2507C69.0794 16.1285 69.0588 15.9852 69.0902 15.8487C69.0757 15.8365 69.058 15.8286 69.0393 15.826C69.0205 15.8234 69.0014 15.826 68.9841 15.8337C68.9668 15.8415 68.952 15.8539 68.9414 15.8696C68.9308 15.8853 68.9249 15.9037 68.9243 15.9226C68.9123 16.1282 68.9765 16.331 69.1046 16.4923C69.1359 16.549 69.1837 16.5949 69.2416 16.624H69.2506C69.2726 16.6408 69.2995 16.6499 69.3272 16.6499C69.3549 16.6499 69.3819 16.6408 69.4039 16.624C69.2946 16.5178 69.2075 16.3909 69.1478 16.2507Z" fill="#F5AE94"/>
<path d="M61.4135 20.147C61.4177 20.1342 61.4191 20.1206 61.4175 20.1072C61.4159 20.0939 61.4115 20.081 61.4045 20.0695C61.4008 20.0593 61.396 20.0496 61.3901 20.0406C61.368 19.9612 61.3293 19.8875 61.2765 19.8243C61.2689 19.8118 61.2591 19.8009 61.2477 19.7918C61.195 19.7414 61.134 19.7006 61.0674 19.671L61.0439 19.6548L61.0259 19.6403C61.0161 19.6338 61.005 19.6296 60.9934 19.6278C60.9718 19.5935 60.9484 19.5574 60.9231 19.5232C60.8727 19.4583 60.7825 19.5232 60.806 19.5953C61.0782 20.421 60.8726 21.1332 60.5932 21.9265C60.4559 22.3041 60.3504 22.6925 60.2777 23.0876C60.2254 23.4013 60.1244 23.8431 60.2236 24.1586C60.1695 24.1496 60.11 24.1496 60.0649 24.146C59.9382 24.1417 59.8113 24.1502 59.6863 24.1712C59.6611 24.176 59.6379 24.1882 59.6196 24.2061C59.6014 24.2241 59.5888 24.2471 59.5835 24.2721C59.5739 24.2754 59.5653 24.2812 59.5588 24.2889C59.5522 24.2966 59.5478 24.306 59.5462 24.316C59.5445 24.326 59.5456 24.3363 59.5493 24.3457C59.553 24.3551 59.5593 24.3633 59.5673 24.3695C59.6651 24.4365 59.7574 24.5112 59.8432 24.5931C59.8997 24.6566 59.9599 24.7168 60.0235 24.7734C60.0397 24.7872 60.0587 24.7975 60.0792 24.8034C60.0998 24.8093 60.1213 24.8108 60.1424 24.8077C60.1516 24.8126 60.1618 24.8151 60.1722 24.8151C60.1826 24.8151 60.1928 24.8126 60.2019 24.8077C60.4706 24.6274 60.494 24.3028 60.5157 24.0125C60.5608 23.5271 60.6526 23.0471 60.7897 22.5792C60.869 22.2907 60.9556 22.0004 61.0349 21.7101C61.1719 21.3605 61.2876 21.0029 61.3811 20.6392C61.4233 20.4787 61.4343 20.3116 61.4135 20.147Z" fill="#F5AE94"/>
<path d="M72.9943 23.12C72.3651 23.0497 71.7322 22.9776 71.1102 22.8586L71.076 22.8496C70.5261 22.7035 70.0212 22.5773 69.6336 22.1771C69.5866 22.0532 69.5312 21.9327 69.4677 21.8165C69.461 21.8065 69.4521 21.7983 69.4417 21.7922C69.4313 21.7862 69.4197 21.7826 69.4077 21.7818C69.3957 21.7809 69.3837 21.7828 69.3725 21.7872C69.3614 21.7917 69.3514 21.7986 69.3433 21.8075C69.2928 21.8576 69.2481 21.9133 69.2099 21.9733C69.1964 21.9763 69.1837 21.9822 69.1727 21.9905C69.1616 21.9988 69.1525 22.0094 69.1458 22.0215C69.1392 22.0336 69.1352 22.047 69.1341 22.0607C69.133 22.0745 69.1349 22.0884 69.1396 22.1014C69.3199 22.6964 70.0411 22.8928 70.582 23.0191C70.8812 23.0912 71.1823 23.1489 71.4834 23.1994C71.9378 23.3201 72.3957 23.4319 72.8591 23.5113C72.8771 23.5141 72.8955 23.5128 72.913 23.5074C72.9304 23.502 72.9463 23.4927 72.9596 23.4801C72.9728 23.4676 72.983 23.4522 72.9894 23.4351C72.9957 23.418 72.998 23.3996 72.9961 23.3815C73.1223 23.349 73.1494 23.1381 72.9943 23.12Z" fill="#F5AE94"/>
<path d="M74.3089 23.5133C74.2404 23.3493 74.1683 23.0518 73.9772 22.9833C73.786 22.9148 73.476 23.0464 73.3227 23.1636C73.3157 23.1697 73.3106 23.1777 73.308 23.1867C73.3055 23.1956 73.3055 23.2051 73.3082 23.214C73.3108 23.2229 73.316 23.2309 73.3231 23.237C73.3301 23.2431 73.3387 23.247 73.3479 23.2483C73.5102 23.2483 73.6508 23.1726 73.8077 23.169C73.9645 23.1654 74.0168 23.3493 74.0655 23.4971C74.0349 23.4839 74.0028 23.4742 73.97 23.4683C73.9313 23.4525 73.8897 23.4453 73.848 23.4471C73.8063 23.449 73.7655 23.4599 73.7284 23.4791C73.7171 23.4883 73.7098 23.5015 73.7081 23.516C73.7064 23.5305 73.7104 23.5451 73.7193 23.5566C73.7734 23.6197 73.8672 23.6215 73.9429 23.6413C73.9748 23.6494 74.0074 23.6543 74.0403 23.6558C73.9847 23.6963 73.938 23.7479 73.9033 23.8072C73.8816 23.8559 73.9267 23.9244 73.9844 23.901C74.0415 23.8723 74.0948 23.8366 74.1431 23.7946C74.1999 23.7614 74.2486 23.7158 74.2855 23.6612C74.2899 23.6483 74.2899 23.6344 74.2855 23.6215C74.3014 23.6091 74.3125 23.5914 74.3168 23.5717C74.321 23.5519 74.3183 23.5313 74.3089 23.5133Z" fill="#F5AE94"/>
<path d="M81.709 19.5502C81.5611 19.3555 81.4061 19.1752 81.2474 18.9931C81.2281 18.9854 81.2082 18.9794 81.1879 18.975C81.3021 19.2815 81.3097 19.6175 81.2096 19.9288C81.2096 20.0803 81.1825 20.2335 81.1717 20.3814C81.1501 20.6338 81.123 20.8844 81.0906 21.135C81.0283 21.6399 80.9313 22.1399 80.8003 22.6315C80.7354 22.8676 80.6687 23.1038 80.5894 23.3364C80.5641 23.4013 80.5406 23.4662 80.519 23.5329C80.5127 23.5899 80.5127 23.6473 80.519 23.7042C80.502 23.7038 80.4852 23.7079 80.4703 23.7161C80.4554 23.7244 80.4429 23.7364 80.4343 23.7511C80.3214 23.879 80.168 23.9643 79.9998 23.9927C79.8898 24.0288 79.742 24.0576 79.6825 24.173C79.6758 24.1833 79.6716 24.195 79.6704 24.2072C79.6691 24.2193 79.6707 24.2316 79.6751 24.2431C79.6795 24.2545 79.6865 24.2647 79.6956 24.2729C79.7047 24.2811 79.7157 24.287 79.7275 24.2902C79.7275 24.3087 79.7312 24.3271 79.7384 24.3443L79.9727 24.3713C80.0702 24.365 80.1681 24.3735 80.263 24.3966C80.2763 24.4013 80.288 24.4098 80.2966 24.421C80.3052 24.4322 80.3105 24.4456 80.3117 24.4596H80.3333C80.3315 24.4722 80.3315 24.4849 80.3333 24.4975C80.3878 24.71 80.4716 24.9139 80.5821 25.1033C80.6524 25.2277 80.8652 25.1285 80.8075 24.9951C80.7296 24.8021 80.6265 24.6202 80.501 24.4542C80.5652 24.419 80.6182 24.3667 80.6542 24.303C80.6902 24.2393 80.7077 24.1667 80.7047 24.0936C80.7048 24.0729 80.7017 24.0522 80.6957 24.0324C80.705 23.9985 80.7011 23.9625 80.6849 23.9314C81.0481 23.0184 81.3334 22.0763 81.5377 21.1152C81.6279 20.7041 81.8442 20.0298 81.709 19.5502Z" fill="#F5AE94"/>
<path d="M80.328 25.0132C80.2807 24.8855 80.2398 24.7555 80.2055 24.6238C80.191 24.5679 80.1081 24.5877 80.1099 24.6418C80.1145 24.7895 80.1541 24.9341 80.2253 25.0637C80.2578 25.1214 80.3497 25.0745 80.328 25.0132Z" fill="#F5AE94"/>
<path d="M79.9902 24.9267C79.9452 24.8005 79.8965 24.6707 79.8424 24.548C79.8384 24.5418 79.8325 24.5371 79.8256 24.5345C79.8188 24.5319 79.8112 24.5316 79.8041 24.5336C79.797 24.5356 79.7908 24.5399 79.7863 24.5457C79.7819 24.5516 79.7794 24.5587 79.7793 24.5661C79.7999 24.7058 79.8451 24.8406 79.9127 24.9645C79.9362 25.0096 80.0083 24.9736 79.9902 24.9267Z" fill="#F5AE94"/>
<path d="M97.6063 21.914C97.5901 21.8094 97.4747 21.7192 97.3917 21.6579C97.3088 21.5966 97.1988 21.5317 97.1087 21.5786C97.0943 21.5853 97.0831 21.5973 97.0774 21.6121C97.0717 21.6269 97.0719 21.6433 97.078 21.6579C97.1159 21.7318 97.2168 21.7787 97.2799 21.8382C97.343 21.8977 97.4062 21.9933 97.4963 22.0185C97.5109 22.0216 97.5261 22.0212 97.5405 22.0171C97.5549 22.013 97.568 22.0055 97.5789 21.9952C97.5897 21.9849 97.5979 21.9721 97.6026 21.958C97.6074 21.9438 97.6087 21.9287 97.6063 21.914Z" fill="#F5AE94"/>
<path d="M68.8416 15.6684C68.5135 15.535 67.8969 15.5548 67.6895 15.8992C67.6805 15.9136 67.6895 15.928 67.7094 15.9226C67.8803 15.8446 68.057 15.7795 68.2377 15.7279C68.4273 15.7061 68.6193 15.7264 68.8002 15.7874C68.8157 15.7919 68.8323 15.7902 68.8466 15.7828C68.8609 15.7754 68.8719 15.7628 68.8772 15.7475C68.8825 15.7323 68.8818 15.7156 68.8752 15.7009C68.8685 15.6861 68.8565 15.6745 68.8416 15.6684Z" fill="#361C14"/>
<path d="M69.5716 15.324C69.5049 15.324 69.4363 15.3835 69.3913 15.425C69.3648 15.4446 69.3428 15.4698 69.327 15.4988C69.3111 15.5277 69.3017 15.5597 69.2993 15.5926C69.3 15.5976 69.3016 15.6025 69.3042 15.6068C69.3067 15.6112 69.3101 15.6149 69.3142 15.6179C69.3182 15.621 69.3228 15.6232 69.3277 15.6244C69.3325 15.6256 69.3376 15.6258 69.3426 15.6251C69.3943 15.6028 69.4414 15.571 69.4814 15.5313C69.5265 15.4971 69.5914 15.4773 69.6257 15.434C69.6341 15.4241 69.6395 15.4119 69.6412 15.399C69.6428 15.386 69.6406 15.3729 69.6348 15.3612C69.6291 15.3495 69.62 15.3397 69.6088 15.3331C69.5975 15.3265 69.5846 15.3233 69.5716 15.324Z" fill="#361C14"/>
<path d="M68.5522 16.076C68.5245 16.0333 68.4904 15.995 68.4513 15.9624C68.4332 15.948 68.4116 15.9372 68.3917 15.9228C68.1736 15.8759 68.0582 16.177 67.8779 16.2365C67.8733 16.2382 67.8691 16.241 67.8658 16.2447C67.8625 16.2483 67.8601 16.2528 67.8589 16.2575C67.8577 16.2623 67.8576 16.2673 67.8587 16.2721C67.8598 16.277 67.8621 16.2814 67.8653 16.2852C67.9 16.315 67.9424 16.3346 67.9876 16.3416C68.0329 16.3486 68.0792 16.3428 68.1213 16.3248H68.1375C68.2169 16.4366 68.4729 16.3537 68.554 16.2527H68.5775C68.5978 16.2515 68.6171 16.2436 68.6324 16.2302C68.6478 16.2168 68.6582 16.1987 68.6622 16.1788C68.6181 16.1534 68.5805 16.1182 68.5522 16.076Z" fill="#361C14"/>
<path d="M69.5839 15.755C69.5792 15.7408 69.5704 15.7283 69.5587 15.719C69.5536 15.714 69.5468 15.7113 69.5397 15.7113C69.5327 15.7113 69.5259 15.714 69.5208 15.719C69.5022 15.7034 69.4783 15.6957 69.4541 15.6974C69.4127 15.6974 69.3946 15.737 69.3802 15.7749C69.3531 15.8452 69.3441 15.9552 69.2576 15.9858V15.9985C69.2539 16.0034 69.252 16.0094 69.252 16.0156C69.252 16.0217 69.2539 16.0277 69.2576 16.0327C69.29 16.0832 69.3495 16.0778 69.4 16.0489C69.4174 16.0587 69.4369 16.0639 69.4568 16.0639C69.4767 16.0639 69.4963 16.0587 69.5136 16.0489C69.5515 16.0219 69.5479 15.957 69.5389 15.9119C69.57 15.8657 69.5858 15.8108 69.5839 15.755Z" fill="#361C14"/>
<path d="M75.1594 11.1449C75.1082 11.1149 75.0508 11.0974 74.9916 11.0937C74.9324 11.0899 74.8732 11.1 74.8187 11.1232C74.6492 11.217 74.6618 11.4531 74.6509 11.6172C74.6248 11.9171 74.6248 12.2188 74.6509 12.5187C74.6518 12.5986 74.6792 12.676 74.7288 12.7386C74.7784 12.8013 74.8474 12.8457 74.925 12.8649C75.1053 12.9154 75.1558 12.6413 74.9845 12.5908C74.8457 12.5512 74.9232 11.8318 74.9268 11.7146C74.9304 11.5974 74.8925 11.4333 75.0079 11.354C75.1251 11.3792 75.3577 11.3702 75.4298 11.4243C75.5597 11.5181 75.4911 11.7128 75.4749 11.8534C75.4497 12.0589 75.4587 12.5169 75.2946 12.6611C75.154 12.7855 75.3721 12.9803 75.511 12.8577C75.6498 12.7351 75.6696 12.5259 75.6913 12.342C75.736 12.0983 75.7655 11.852 75.7796 11.6046C75.7958 11.1971 75.5002 11.1178 75.1594 11.1449Z" fill="#3E3639"/>
<path d="M75.3205 9.57259C75.1402 9.55816 74.684 9.51487 74.4497 9.64649C74.3903 9.66329 74.3351 9.69213 74.2874 9.73123C74.08 9.91152 74.2261 10.173 74.336 10.3623C74.4417 10.6471 74.5695 10.9232 74.7183 11.188C74.8229 11.3683 74.9851 11.7974 75.2682 11.6964C75.3004 11.6846 75.3294 11.6655 75.3529 11.6406C75.4275 11.6155 75.4949 11.5728 75.5494 11.5161C75.8935 11.1055 76.1131 10.605 76.1823 10.0738C76.2147 9.65729 75.627 9.59602 75.3205 9.57259Z" fill="#E64019"/>
<path d="M82.4221 11.8986C82.4221 11.6552 82.3049 11.1593 81.9605 11.3162C81.8857 11.2787 81.8022 11.2621 81.7187 11.2682C81.6353 11.2742 81.555 11.3026 81.4864 11.3504C81.3061 11.4947 81.371 11.7381 81.389 11.9328C81.416 12.2105 81.4052 13.139 81.9407 12.8469C82.0922 12.764 81.9407 12.535 81.7929 12.6197C81.728 12.6558 81.654 11.9779 81.6486 11.9184C81.6264 11.8264 81.6173 11.7317 81.6216 11.6371C81.6613 11.4568 81.8416 11.5073 81.9822 11.5325C82.0027 11.5358 82.0236 11.5319 82.0417 11.5217C82.1913 11.6317 82.1607 11.8733 82.1607 12.0626C82.1607 12.0987 82.1607 12.5548 82.1607 12.5566C81.9912 12.544 82.0056 12.8126 82.1769 12.8235C82.5591 12.8361 82.4221 12.0915 82.4221 11.8986Z" fill="#3E3639"/>
<path d="M82.9049 9.83955C82.7408 9.63221 82.4596 9.61598 82.2162 9.61598C81.8553 9.5918 81.4929 9.60388 81.1344 9.65203C81.0162 9.66599 80.9062 9.71955 80.8224 9.80403C80.7386 9.8885 80.6859 9.99892 80.6728 10.1172C80.6025 10.7771 81.394 11.3901 81.8502 11.7399C81.8659 11.7505 81.8836 11.7575 81.9023 11.7605C81.921 11.7635 81.9401 11.7624 81.9583 11.7573C81.9765 11.7521 81.9934 11.7431 82.0077 11.7307C82.0221 11.7184 82.0335 11.703 82.0413 11.6858C82.1207 11.6651 82.1919 11.6204 82.245 11.5578C82.4765 11.2587 82.6788 10.9381 82.849 10.6004C82.9843 10.375 83.0924 10.0757 82.9049 9.83955Z" fill="#E64019"/>
<path d="M59.5628 24.2703C59.5078 24.2576 59.4515 24.2509 59.3951 24.2504C57.4713 24.1206 52.7241 23.9782 50.8004 23.8592C50.3803 23.8322 50.2739 24.2198 50.703 24.2595C52.6628 24.3983 57.4461 24.5263 59.4059 24.6597C59.4258 24.6597 59.4708 24.6741 59.487 24.6741C59.4616 24.6063 59.4552 24.5328 59.4685 24.4616C59.4819 24.3904 59.5145 24.3243 59.5628 24.2703Z" fill="#C66615"/>
<path d="M73.2963 23.5979C73.2886 23.5933 73.2824 23.5866 73.2783 23.5787C73.2741 23.5707 73.2723 23.5618 73.2729 23.5528C73.1467 23.533 73.0007 23.515 72.8348 23.5042L67.2149 23.0985C67.1784 23.1737 67.1362 23.246 67.0887 23.3149C67.0563 23.3726 67.0256 23.4339 66.9932 23.4952L72.8907 23.917C72.9011 23.9098 72.9127 23.9044 72.9249 23.9008C73.046 23.851 73.17 23.8088 73.2963 23.7746C73.3895 23.7635 73.4841 23.7746 73.5722 23.8071C73.4877 23.728 73.3953 23.6579 73.2963 23.5979Z" fill="#C66615"/>
<path d="M60.8478 22.6461C60.837 22.7398 60.7667 23.0066 60.7559 23.0571C61.3617 23.1004 62.0179 23.1383 62.6165 23.1815C62.6212 23.0425 62.6424 22.9045 62.6796 22.7705C62.081 22.7272 61.4464 22.6893 60.8478 22.6461Z" fill="#C66615"/>
<path d="M59.8999 22.5738C58.3601 22.4638 54.0096 22.3538 52.4699 22.2456C51.1915 22.1573 50.9229 22.5414 52.23 22.6351C53.8311 22.7523 58.2663 22.8713 59.8692 22.9849C59.8746 22.9524 59.8981 22.6081 59.8999 22.5738Z" fill="#C66615"/>
<path d="M83.7489 22.4349C83.7521 22.4073 83.7581 22.3801 83.767 22.3538L81.3925 22.5936C81.3634 22.7388 81.3236 22.8816 81.2734 23.0209L83.7886 22.7667C83.7577 22.659 83.7443 22.5469 83.7489 22.4349Z" fill="#C66615"/>
<path d="M97.6464 21.3677C97.6369 21.3437 97.6338 21.3176 97.6374 21.292C97.6401 21.2679 97.6485 21.2448 97.6618 21.2245C97.6752 21.2042 97.6931 21.1873 97.7141 21.1752C97.7352 21.1631 97.7588 21.1561 97.7831 21.1548C97.8073 21.1535 97.8315 21.1578 97.8538 21.1676C97.8872 21.1797 97.9183 21.1974 97.9457 21.2199L97.9619 21.2055C97.9952 21.1815 98.0271 21.1556 98.0575 21.1279C97.9042 21.0198 97.6969 21.0829 97.5382 20.9693L88.7488 21.8527C88.7507 21.8779 88.7507 21.9032 88.7488 21.9284C88.7425 21.9804 88.7316 22.0317 88.7163 22.0817C88.7205 22.1417 88.7205 22.202 88.7163 22.262L97.6464 21.3677Z" fill="#C66615"/>
<path d="M101.237 20.6212C101.034 20.6212 100.794 20.641 100.516 20.6698L98.4517 20.8772C98.4862 20.9257 98.5089 20.9816 98.518 21.0405C98.527 21.0993 98.5222 21.1595 98.504 21.2161C98.4935 21.2407 98.4808 21.2643 98.4661 21.2865L100.729 21.0575C100.909 21.0395 101.057 21.0214 101.194 20.9998C101.21 20.8736 101.226 20.7492 101.237 20.6212Z" fill="#C66615"/>
<path d="M80.387 22.6946L75.4307 23.1994C75.0596 23.2329 74.6915 23.2931 74.3291 23.3797C74.3701 23.4754 74.3986 23.576 74.4138 23.679C74.6068 23.679 74.8574 23.6646 75.1711 23.634L80.342 23.1147C80.351 22.9741 80.3726 22.8352 80.387 22.6946Z" fill="#C66615"/>
<path d="M79.2974 24.4649H70.6089H67.7657C69.2369 23.6951 70.2664 22.2815 71.3824 21.079C72.0657 20.3452 72.5237 19.5014 72.9798 18.6125C73.4606 17.6858 73.9029 16.7423 74.3068 15.7819C74.7359 14.7704 75.3183 13.6544 75.2498 12.5257C75.2498 12.4193 75.0929 12.4392 75.0695 12.5257C74.995 13.0351 74.8786 13.5374 74.7215 14.0276C74.5556 14.4729 74.3753 14.9128 74.1914 15.3509C73.8092 16.2608 73.3951 17.1563 72.9492 18.0374C72.5111 18.9028 72.0856 19.8404 71.4419 20.5742C70.7983 21.308 70.1798 22.0165 69.5235 22.698C68.8168 23.439 68.0181 24.1043 67.0481 24.4559C65.0378 24.4559 63.0275 24.4451 61.0172 24.4559C60.7594 24.4559 60.5069 24.7949 60.7701 24.7967C66.491 24.8274 72.4155 24.8634 78.1363 24.8634H79.3984L79.2974 24.4649Z" fill="#E3731A"/>
<path d="M104.747 24.4653H81.0259C81.0267 24.5673 81.0032 24.668 80.9574 24.7592C80.9515 24.7976 80.9431 24.8355 80.9321 24.8727H104.778C105.034 24.88 105.011 24.4653 104.747 24.4653Z" fill="#E3731A"/>
<path d="M61.4418 42.6226C61.4316 42.6045 61.417 42.5892 61.3994 42.5782C61.3817 42.5672 61.3616 42.5608 61.3409 42.5596H61.2705C60.9208 42.4838 60.4592 42.6533 60.1599 42.7903C59.7434 42.9818 59.3836 43.2781 59.116 43.6504C58.9889 43.8205 58.8824 44.005 58.7987 44.2002C58.7987 44.0957 58.64 44.1119 58.6184 44.2002C58.5835 44.4169 58.6065 44.639 58.6851 44.8439C58.7158 44.9268 58.8654 44.9575 58.8961 44.8601L58.9177 44.806C58.9352 44.8063 58.9526 44.803 58.9688 44.7964C58.985 44.7897 58.9997 44.7799 59.012 44.7674C59.0242 44.7549 59.0339 44.7401 59.0403 44.7238C59.0467 44.7075 59.0498 44.6901 59.0493 44.6726C59.0519 44.5588 59.077 44.4467 59.1232 44.3427C59.1611 44.2651 59.2026 44.1894 59.2476 44.1137C59.4373 43.8521 59.6583 43.6148 59.9057 43.4069C60.219 43.1099 60.6105 42.9085 61.0343 42.8264H61.0542C61.1187 42.8384 61.1791 42.8663 61.2301 42.9075C61.2811 42.9488 61.3211 43.0021 61.3463 43.0626C61.3451 43.1514 61.3305 43.2395 61.303 43.324C61.2999 43.3406 61.3022 43.3577 61.3097 43.3728C61.3172 43.3879 61.3294 43.4002 61.3445 43.4078C61.3596 43.4153 61.3767 43.4177 61.3933 43.4146C61.4099 43.4116 61.4251 43.4032 61.4364 43.3907C61.6366 43.1617 61.7303 42.7903 61.4418 42.6226Z" fill="#009075"/>
<path d="M73.8448 43.3602C73.6588 43.2287 73.4622 43.1129 73.257 43.014C73.1741 42.9365 73.102 42.8517 73.0244 42.7706C72.8568 42.5903 72.6459 42.41 72.3862 42.4713C72.3054 42.4972 72.2312 42.5404 72.1689 42.598C72.1066 42.6557 72.0577 42.7263 72.0256 42.8048C71.9901 42.8873 71.9326 42.9584 71.8595 43.0105C71.7864 43.0626 71.7005 43.0938 71.6109 43.1006C71.5533 43.1006 71.4992 43.1131 71.4433 43.1168C71.2233 43.041 71.0105 42.9473 70.7834 42.877H70.7618C70.7328 42.8654 70.7005 42.8654 70.6716 42.877C70.3885 42.9834 70.3579 43.4918 70.5364 43.6973C70.5271 43.7114 70.5216 43.7276 70.5202 43.7444C70.5188 43.7612 70.5217 43.7781 70.5285 43.7935C70.5353 43.8089 70.5458 43.8224 70.5592 43.8327C70.5725 43.8429 70.5882 43.8497 70.6049 43.8524C70.9853 43.8758 71.3585 43.7965 71.7408 43.8524C72.123 43.9083 72.4259 44.0958 72.7666 44.2346C73.1867 44.4041 73.8015 44.5303 74.1657 44.1787C74.2018 44.1897 74.2408 44.1862 74.2744 44.169C74.308 44.1519 74.3337 44.1224 74.346 44.0868C74.4578 43.7749 74.0449 43.5116 73.8448 43.3602Z" fill="#009075"/>
<path d="M82.4516 41.8404C82.4805 41.9089 82.3976 42.0549 82.3705 42.1126C82.3564 42.1386 82.3511 42.1684 82.3553 42.1976C82.3595 42.2269 82.3731 42.254 82.394 42.2749C82.2883 42.425 82.2062 42.5904 82.1506 42.7653C82.1453 42.7895 82.1479 42.8148 82.1579 42.8375C82.168 42.8602 82.185 42.8791 82.2065 42.8915C82.3002 42.7723 82.41 42.6667 82.5328 42.5778C82.7041 42.3073 82.9114 42.0477 82.8681 41.7106C82.8212 41.35 82.4823 41.1823 82.1469 41.2148C81.6851 41.293 81.2462 41.4721 80.8614 41.7394C80.6174 41.881 80.383 42.0388 80.1601 42.2118C79.7758 42.4589 79.4311 42.7629 79.1378 43.1132C79.1216 43.1349 79.1035 43.1583 79.0873 43.1836C78.9026 43.3411 78.7879 43.5654 78.7682 43.8074C78.7565 43.9062 78.7676 44.0063 78.8008 44.1001C78.8339 44.1939 78.8881 44.2788 78.9593 44.3483C79.0112 44.4336 79.092 44.4973 79.1871 44.5278C79.2821 44.5583 79.385 44.5534 79.4767 44.5142C79.6029 44.4547 79.5939 44.2185 79.4263 44.2473C79.2099 44.2816 79.154 44.0544 79.2153 43.8867C79.2626 43.7803 79.3231 43.6804 79.3956 43.5893C79.4876 43.4649 79.5868 43.3441 79.6913 43.2287C79.9418 42.9475 80.223 42.6953 80.5297 42.4768C80.8255 42.267 81.1435 42.0904 81.478 41.9503C81.6528 41.8748 81.8338 41.8145 82.0189 41.77C82.1253 41.7466 82.3795 41.6709 82.4516 41.8404Z" fill="#C00C1A"/>
<path d="M80.1988 44.1712C81.1003 43.4735 82.0018 43.3491 82.7554 42.599C82.9934 42.361 83.2854 41.9247 82.8077 41.5839C82.5498 41.4036 81.5221 41.7084 81.3653 41.7967C81.2084 41.8851 80.4638 42.3899 80.2727 42.5449C79.8346 42.9129 79.4626 43.3532 79.1729 43.8467V43.8575C79.1384 43.8812 79.1069 43.9091 79.0791 43.9404C79.0203 44.0006 78.9795 44.0761 78.9613 44.1583C78.9431 44.2405 78.9483 44.3262 78.9764 44.4056C78.9961 44.4582 79.03 44.5043 79.0742 44.539C79.1184 44.5736 79.1712 44.5954 79.227 44.6021C79.6976 44.6219 80.078 44.2668 80.1988 44.1712Z" fill="#51473D"/>
<path d="M79.8035 44.1119C79.7439 44.0689 79.6879 44.0212 79.6358 43.9694C79.5889 43.9171 79.5528 43.8432 79.4897 43.8144C79.4838 43.8122 79.4775 43.8113 79.4712 43.8119C79.4649 43.8125 79.4588 43.8145 79.4534 43.8178C79.448 43.8211 79.4434 43.8256 79.44 43.831C79.4367 43.8363 79.4345 43.8424 79.4338 43.8486C79.423 43.9226 79.4861 44.0019 79.5312 44.056C79.5844 44.124 79.6498 44.1815 79.7241 44.2255C79.7927 44.2597 79.8666 44.1714 79.8035 44.1119Z" fill="#362F27"/>
<path d="M80.003 43.93C79.9417 43.8903 79.8768 43.8615 79.8227 43.8146C79.7759 43.768 79.7259 43.7246 79.6731 43.6848C79.6632 43.6783 79.6515 43.6751 79.6397 43.6757C79.6278 43.6762 79.6165 43.6805 79.6073 43.6879C79.5981 43.6954 79.5914 43.7055 79.5883 43.7169C79.5853 43.7283 79.5859 43.7405 79.5902 43.7515C79.6251 43.8236 79.6778 43.8857 79.7434 43.9318C79.8057 43.99 79.8785 44.0359 79.958 44.067C80.0391 44.1013 80.0679 43.9733 80.003 43.93Z" fill="#362F27"/>
<path d="M81.9707 42.7867C81.7082 42.7055 81.4359 42.6606 81.1612 42.6533C80.8881 42.6202 80.6113 42.6373 80.3444 42.7038C80.3403 42.7059 80.3368 42.7091 80.3343 42.7131C80.3319 42.7171 80.3306 42.7217 80.3306 42.7263C80.3306 42.731 80.3319 42.7356 80.3343 42.7395C80.3368 42.7435 80.3403 42.7468 80.3444 42.7489C80.5829 42.786 80.8249 42.7957 81.0656 42.7777C81.3645 42.7877 81.6614 42.8306 81.9509 42.9057C82.023 42.9255 82.0428 42.812 81.9707 42.7867Z" fill="#362F27"/>
<path d="M82.0955 42.529C81.7349 42.2982 81.0877 42.3018 80.6838 42.4028C80.6279 42.4172 80.6207 42.5056 80.6838 42.511C81.1292 42.5398 81.6123 42.4496 82.0252 42.6624C82.1136 42.7075 82.1748 42.5794 82.0955 42.529Z" fill="#362F27"/>
<path d="M82.57 42.2584C82.1751 41.9735 81.5423 41.9465 81.0879 42.0907C81.0429 42.1052 81.0645 42.1647 81.1005 42.1719C81.5693 42.2674 82.0345 42.0673 82.4618 42.3756C82.5447 42.4351 82.6529 42.3179 82.57 42.2584Z" fill="#362F27"/>
<path d="M82.6223 42.0079C82.5031 41.9003 82.3553 41.8296 82.1968 41.8042C82.057 41.7608 81.9064 41.7678 81.7713 41.824C81.7694 41.8251 81.7679 41.8267 81.7668 41.8286C81.7657 41.8305 81.7651 41.8326 81.7651 41.8348C81.7651 41.837 81.7657 41.8391 81.7668 41.841C81.7679 41.8429 81.7694 41.8445 81.7713 41.8456C81.8734 41.8947 81.9844 41.9223 82.0976 41.9268C82.2524 41.9497 82.3989 42.0118 82.5231 42.107C82.537 42.114 82.5527 42.1164 82.568 42.1139C82.5833 42.1114 82.5975 42.1041 82.6084 42.0932C82.6194 42.0822 82.6266 42.0681 82.6291 42.0528C82.6316 42.0375 82.6292 42.0218 82.6223 42.0079Z" fill="#362F27"/>
<path d="M80.9574 43.1706C80.9216 43.1168 80.8735 43.0723 80.8172 43.0407C80.7609 43.009 80.6979 42.9911 80.6334 42.9885C80.5689 42.9859 80.5046 42.9985 80.4459 43.0255C80.3872 43.0524 80.3357 43.0929 80.2957 43.1436C80.2477 43.155 80.2028 43.1766 80.164 43.207C80.1253 43.2375 80.0936 43.276 80.0711 43.3199C80.0487 43.3637 80.036 43.412 80.034 43.4612C80.032 43.5105 80.0407 43.5596 80.0595 43.6051C80.1785 43.8305 80.5499 43.8774 80.7572 43.7692C80.8106 43.7441 80.8583 43.7084 80.8976 43.6643C80.9368 43.6203 80.9666 43.5687 80.9853 43.5127C81.004 43.4568 81.0112 43.3976 81.0064 43.3388C81.0016 43.28 80.9849 43.2228 80.9574 43.1706ZM80.5373 43.652C80.4501 43.6581 80.363 43.6387 80.2866 43.5961C80.1983 43.5438 80.1496 43.4915 80.2073 43.3635C80.2294 43.3177 80.2645 43.2794 80.3083 43.2535C80.3389 43.2436 80.368 43.2297 80.3948 43.2121C80.5391 43.1742 80.7049 43.1093 80.7987 43.2481C80.9267 43.4374 80.7284 43.6394 80.5373 43.652Z" fill="#362F27"/>
<path d="M61.1951 42.7722C60.8345 42.7127 60.4252 43.003 60.1331 43.1742C59.7686 43.3805 59.4521 43.662 59.2046 44C59.0369 44.2362 58.7557 44.6509 58.7917 44.9574C58.7931 44.981 58.8019 45.0036 58.8167 45.0221C58.8316 45.0405 58.8518 45.0538 58.8747 45.0601C58.8976 45.1297 58.9387 45.192 58.9937 45.2404C59.2713 45.4658 59.6355 45.2278 59.8447 45.0277C60.1746 44.7104 60.3982 44.3498 60.7876 44.0884C61.0617 43.9081 61.4781 43.7007 61.5827 43.3563C61.6022 43.2922 61.6073 43.2247 61.5976 43.1584C61.5879 43.0921 61.5637 43.0287 61.5266 42.9729C61.4896 42.917 61.4406 42.8701 61.3833 42.8354C61.326 42.8007 61.2617 42.7791 61.1951 42.7722Z" fill="#FCCD76"/>
<path d="M74.2149 43.9643C73.9391 44.1446 73.7317 44.2852 73.3856 44.278C73.022 44.2408 72.667 44.1446 72.3345 43.9931C72.0795 43.8868 71.8134 43.8094 71.5411 43.7623C71.2022 43.7154 70.865 43.7911 70.5243 43.7623C70.5069 43.7591 70.489 43.7627 70.4742 43.7724C70.4595 43.7821 70.4491 43.7971 70.4451 43.8143C70.4411 43.8315 70.444 43.8496 70.453 43.8648C70.4621 43.8799 70.4766 43.891 70.4937 43.8957C70.829 44.0309 71.2004 43.9066 71.552 43.9679C71.9558 44.0382 72.3254 44.2347 72.7113 44.3645C73.2089 44.5304 74.0401 44.6386 74.3646 44.0977C74.4187 44.0075 74.2979 43.9084 74.2149 43.9643Z" fill="#FCCD76"/>
<path d="M59.7522 42.9995C59.6322 42.9801 59.509 42.9999 59.4011 43.0561C59.2933 43.1123 59.2065 43.2019 59.1536 43.3114C59.1302 43.3403 59.1104 43.3691 59.0888 43.3998C58.9265 43.645 58.7462 44.0561 58.7858 44.3517C58.788 44.3764 58.7981 44.3998 58.8145 44.4183C58.831 44.4369 58.853 44.4496 58.8773 44.4547C58.9015 44.4598 58.9268 44.4568 58.9493 44.4464C58.9718 44.436 58.9904 44.4186 59.0022 44.3968C59.1212 44.2165 59.1302 43.9569 59.2222 43.7531C59.2925 43.5945 59.48 43.2501 59.6927 43.2754C59.8694 43.297 59.9325 43.0356 59.7522 42.9995Z" fill="#009075"/>
<path d="M96.9091 44.514C96.5341 44.8421 96.1104 44.9647 95.6578 44.7087C95.3305 44.4945 95.0339 44.2368 94.7762 43.9425C94.5298 43.6907 94.2579 43.4653 93.9649 43.2699C93.6043 43.0265 93.2437 42.7723 93.2346 42.2873C93.2346 42.1918 93.085 42.1323 93.0543 42.2441C92.9354 42.6732 93.2076 43.0464 93.5322 43.306C93.7323 43.4665 93.954 43.5945 94.1524 43.7604C94.3507 43.9262 94.5544 44.139 94.7492 44.3337C95.0737 44.66 95.4415 45.017 95.903 45.127C96.3646 45.237 96.7847 45.0152 97.1291 44.7141C97.2715 44.5879 97.0515 44.3896 96.9091 44.514Z" fill="#51473D"/>
<path d="M96.0806 43.5136C95.9138 43.5811 95.7403 43.6307 95.5631 43.6614C95.6515 43.5218 95.7497 43.3886 95.857 43.2629C95.8696 43.2484 95.8777 43.2305 95.8803 43.2115C95.8829 43.1924 95.8799 43.173 95.8717 43.1556C95.8635 43.1382 95.8504 43.1236 95.834 43.1135C95.8176 43.1034 95.7987 43.0984 95.7795 43.0989C95.6675 43.1003 95.556 43.1154 95.4477 43.1439C95.3648 43.1674 95.2674 43.2269 95.1791 43.2539C95.3179 43.0466 95.5397 42.9059 95.6046 42.6409C95.6075 42.6256 95.6063 42.6098 95.6013 42.5951C95.5963 42.5804 95.5876 42.5672 95.5759 42.5569C95.5643 42.5465 95.5502 42.5394 95.535 42.5361C95.5198 42.5328 95.504 42.5335 95.4892 42.5381C95.1937 42.6481 94.9137 42.796 94.6562 42.978C94.5733 43.0393 94.6724 43.1584 94.7572 43.1025C94.9438 42.9835 95.1391 42.8787 95.3413 42.7888C95.2169 42.9691 95.015 43.097 94.9375 43.3098C94.9311 43.3229 94.9278 43.3372 94.9278 43.3518C94.9277 43.3663 94.9309 43.3807 94.9372 43.3938C94.9434 43.407 94.9525 43.4186 94.9637 43.4277C94.975 43.4369 94.9882 43.4434 95.0024 43.4468C95.0527 43.4613 95.1055 43.4651 95.1573 43.458C95.2092 43.4508 95.259 43.4329 95.3035 43.4054C95.3848 43.3718 95.4686 43.3447 95.5541 43.3242C95.4513 43.4584 95.3568 43.5987 95.271 43.7443C95.2629 43.7605 95.2591 43.7787 95.26 43.7968C95.261 43.815 95.2667 43.8325 95.2765 43.8478C95.2863 43.8631 95.3 43.8756 95.3161 43.884C95.3322 43.8924 95.3502 43.8964 95.3684 43.8958C95.6354 43.8739 95.8978 43.8131 96.1472 43.7155C96.2735 43.665 96.2068 43.4631 96.0806 43.5136Z" fill="#E64020"/>
<path d="M73.6285 43.1078C73.4521 43.1607 73.2826 43.2345 73.1237 43.3278C73.1847 43.256 73.2523 43.1902 73.3257 43.1312C73.3451 43.1189 73.3593 43.0999 73.3656 43.0778C73.3719 43.0556 73.3698 43.032 73.3598 43.0112C73.3498 42.9905 73.3325 42.9743 73.3113 42.9655C73.29 42.9567 73.2663 42.956 73.2445 42.9636C73.0477 43.0035 72.8571 43.0702 72.6784 43.1619C72.7538 43.0021 72.8577 42.8573 72.9849 42.7346C72.9965 42.7214 73.004 42.7051 73.0064 42.6877C73.0089 42.6703 73.0063 42.6526 72.9988 42.6367C72.9913 42.6208 72.9794 42.6075 72.9644 42.5983C72.9494 42.5891 72.9321 42.5844 72.9146 42.5849C72.742 42.599 72.5756 42.6557 72.4305 42.7502C72.2854 42.8446 72.1661 42.9737 72.0834 43.1258C72.0805 43.1311 72.0795 43.1371 72.0804 43.143C72.0813 43.1489 72.0841 43.1543 72.0885 43.1584C72.0928 43.1626 72.0983 43.1651 72.1043 43.1658C72.1102 43.1664 72.1162 43.165 72.1213 43.1619C72.3232 43.0267 72.4819 42.8536 72.6946 42.7887C72.562 42.9558 72.464 43.1476 72.4061 43.353C72.4029 43.371 72.4049 43.3895 72.4119 43.4064C72.4189 43.4232 72.4306 43.4377 72.4456 43.4482C72.4606 43.4586 72.4783 43.4645 72.4965 43.4652C72.5147 43.466 72.5328 43.4614 72.5486 43.4522C72.6738 43.3677 72.808 43.2976 72.9488 43.243C72.8705 43.3415 72.8201 43.4592 72.8028 43.5838C72.792 43.6577 72.8785 43.7407 72.9488 43.6848C73.1667 43.5052 73.4179 43.3704 73.6881 43.2881C73.7093 43.2783 73.7263 43.2609 73.7356 43.2394C73.7449 43.2179 73.746 43.1937 73.7387 43.1714C73.7313 43.1492 73.716 43.1304 73.6957 43.1187C73.6754 43.1069 73.6515 43.1031 73.6285 43.1078Z" fill="#88BC24"/>
<path d="M72.049 44.0614C71.6308 43.8667 71.1891 43.8595 70.7581 43.7495L65.1455 43.9154C61.6622 44.0182 38.2976 44.0614 34.8178 44.2489C34.5889 44.2616 34.6069 44.6564 34.8395 44.6528C40.6955 44.5681 66.4274 44.3481 72.2834 44.1768C72.2059 44.1372 72.1284 44.0975 72.049 44.0614Z" fill="#C66615"/>
<path d="M93.7569 43.4503C93.6058 43.3415 93.4635 43.2209 93.3314 43.0897H92.9978L83.7324 43.3584L74.2109 43.6378L74.2614 43.6973C74.3138 43.7495 74.35 43.8157 74.3657 43.888C74.3814 43.9603 74.3758 44.0356 74.3498 44.1048C80.207 43.9377 86.0654 43.7664 91.9251 43.591L93.8741 43.5332C93.8344 43.5152 93.7966 43.4864 93.7569 43.4503Z" fill="#C66615"/>
<path d="M102.331 42.9454C101.541 42.9183 100.764 42.8769 99.9747 42.8985L97.6308 42.967L96.1235 43.0103C96.2766 43.1492 96.4172 43.3012 96.5436 43.4646L97.0845 43.4502L99.6645 43.3745C100.112 43.3601 100.566 43.3745 101.013 43.3258C101.46 43.2771 101.904 43.223 102.353 43.1816C102.508 43.1671 102.479 42.949 102.331 42.9454Z" fill="#C66615"/>
<path d="M69.153 17.1686C69.0266 17.2139 68.8919 17.2312 68.7582 17.2191C68.6626 17.201 68.5635 17.1235 68.4697 17.1343C68.4697 17.1343 68.4697 17.1343 68.4697 17.1434C68.4932 17.2587 68.6861 17.3038 68.7852 17.3237C68.9268 17.3509 69.0735 17.3259 69.1981 17.2533C69.2093 17.2473 69.2177 17.2371 69.2215 17.225C69.2252 17.2128 69.2239 17.1997 69.2179 17.1884C69.212 17.1772 69.2018 17.1688 69.1896 17.1651C69.1774 17.1613 69.1642 17.1626 69.153 17.1686Z" fill="#E65648"/>
<path d="M69.3637 16.6547C69.3181 16.6649 69.2751 16.6846 69.2375 16.7124C69.19 16.738 69.1379 16.7539 69.0842 16.7593C69.0013 16.7719 69.0319 16.8945 69.1131 16.8855C69.1942 16.8765 69.3908 16.8242 69.4142 16.7052C69.4147 16.6984 69.4138 16.6916 69.4115 16.6852C69.4091 16.6789 69.4054 16.6731 69.4006 16.6683C69.3958 16.6635 69.39 16.6598 69.3837 16.6575C69.3773 16.6551 69.3705 16.6541 69.3637 16.6547Z" fill="#E65648"/>
<path d="M66.4946 15.9191C66.524 15.9129 66.5504 15.8968 66.5695 15.8735C66.5885 15.8502 66.599 15.8212 66.5991 15.7911C66.5991 15.6414 66.4062 15.5765 66.2836 15.5819C66.1953 15.5819 66.015 15.6775 66.1033 15.7821C66.1067 15.7859 66.111 15.7887 66.1158 15.7901C66.1207 15.7916 66.1258 15.7917 66.1307 15.7903C66.1356 15.789 66.14 15.7864 66.1434 15.7827C66.1469 15.779 66.1492 15.7744 66.1502 15.7694C66.1664 15.6594 66.3558 15.6324 66.4297 15.7045C66.5523 15.8253 66.4026 15.8019 66.3684 15.8109C66.343 15.8153 66.3194 15.8265 66.2999 15.8433C66.2837 15.8584 66.2723 15.8779 66.2671 15.8994C66.262 15.9209 66.2633 15.9434 66.271 15.9642C66.2908 16.0309 66.4675 16.1841 66.3088 16.2238C66.3008 16.2276 66.2941 16.2336 66.2893 16.2411C66.2846 16.2486 66.282 16.2573 66.282 16.2662C66.282 16.275 66.2846 16.2837 66.2893 16.2912C66.2941 16.2987 66.3008 16.3047 66.3088 16.3085C66.4423 16.3824 66.5252 16.1985 66.4891 16.0886C66.4729 16.0471 66.4152 15.9984 66.4098 15.9569C66.4044 15.9155 66.4477 15.9299 66.4946 15.9191Z" fill="#E65648"/>
<path d="M67.0534 18.7965C67.0249 18.8087 66.9943 18.815 66.9633 18.815C66.9323 18.815 66.9016 18.8087 66.8731 18.7965C66.8317 18.7839 66.783 18.8217 66.8064 18.8668C66.8214 18.893 66.8416 18.9159 66.8658 18.9341C66.8899 18.9522 66.9176 18.9653 66.9469 18.9724C66.9763 18.9795 67.0068 18.9805 67.0366 18.9753C67.0664 18.9702 67.0948 18.959 67.1201 18.9425C67.2103 18.9029 67.1418 18.7496 67.0534 18.7965Z" fill="#F19080"/>
<path d="M65.0921 16.0541C64.5692 15.9532 64.0337 15.9964 63.6497 16.3967C63.4578 16.5918 63.3101 16.826 63.2168 17.0833C63.1235 17.3406 63.0866 17.6149 63.1088 17.8877C63.1088 17.8925 63.1107 17.8971 63.1141 17.9005C63.1175 17.9039 63.1221 17.9058 63.1269 17.9058C63.1316 17.9058 63.1362 17.9039 63.1396 17.9005C63.143 17.8971 63.1449 17.8925 63.1449 17.8877C63.2116 17.3919 63.3 16.9538 63.6299 16.5554C64.0175 16.0884 64.5314 16.0613 65.0867 16.1244C65.1138 16.128 65.1372 16.0614 65.0921 16.0541Z" fill="#E3731A"/>
<path d="M65.1578 16.3321C64.7269 16.4114 64.332 16.4096 63.9787 16.7161C63.6577 16.9938 63.5045 17.4139 63.3927 17.8123C63.3801 17.8556 63.4468 17.8826 63.4612 17.8375C63.6109 17.4156 63.7425 16.9739 64.1265 16.7017C64.2825 16.5932 64.4583 16.5166 64.6439 16.4763C64.8208 16.4592 64.9966 16.4321 65.1704 16.3952C65.2047 16.3843 65.1957 16.3249 65.1578 16.3321Z" fill="#E3731A"/>
<path d="M65.2663 16.4346C64.9364 16.5969 64.5776 16.6365 64.2945 16.8872C64.0462 17.1127 63.8658 17.4031 63.7734 17.7256C63.7706 17.7332 63.7709 17.7417 63.7742 17.7491C63.7776 17.7566 63.7838 17.7624 63.7915 17.7652C63.7991 17.7681 63.8076 17.7678 63.815 17.7644C63.8225 17.761 63.8282 17.7548 63.8311 17.7472C64.0006 17.4244 64.1467 17.0927 64.4532 16.8764C64.7146 16.6961 65.0463 16.678 65.3006 16.4887C65.3063 16.4836 65.31 16.4766 65.3111 16.469C65.3121 16.4614 65.3104 16.4536 65.3063 16.4472C65.3022 16.4407 65.296 16.4359 65.2886 16.4336C65.2813 16.4313 65.2734 16.4316 65.2663 16.4346Z" fill="#E3731A"/>
<path d="M64.9341 16.8115C64.8111 16.8776 64.7142 16.9836 64.6595 17.1121C64.6048 17.2405 64.5955 17.3838 64.633 17.5183C64.642 17.5435 64.6799 17.5309 64.6763 17.5057C64.6348 17.219 64.7844 17.0405 64.9611 16.8422C64.9845 16.8241 64.9629 16.8007 64.9341 16.8115Z" fill="#E3731A"/>
<path d="M103.938 8.04559H101.706V51.5998H103.938V8.04559Z" fill="#874500"/>
<path d="M35.1858 24.5607H33.4712V56.5579H35.1858V24.5607Z" fill="#825E42"/>
<path d="M43.5333 31.1302L33.6104 38.2134L34.6065 39.6089L44.5295 32.5257L43.5333 31.1302Z" fill="#825E42"/>
<path d="M34.8454 39.9364L33.9926 41.4094L23.896 36.2024L24.7488 34.7312L34.8454 39.9364Z" fill="#825E42"/>
<path d="M43.4172 27.2737C48.4382 22.2528 48.4382 14.1122 43.4173 9.09126C38.3963 4.07032 30.2557 4.07032 25.2348 9.09126C20.2138 14.1122 20.2138 22.2528 25.2348 27.2737C30.2557 32.2947 38.3963 32.2946 43.4172 27.2737Z" fill="#8BC53F"/>
<path d="M49.9011 37.6442C55.0785 35.5681 57.5927 29.688 55.5166 24.5105C53.4405 19.3331 47.5604 16.8189 42.3829 18.895C37.2055 20.9711 34.6913 26.8512 36.7674 32.0287C38.8435 37.2061 44.7236 39.7203 49.9011 37.6442Z" fill="#5D9B35"/>
<path d="M28.8888 38.0313C31.6143 35.3057 31.6143 30.8867 28.8888 28.1611C26.1632 25.4355 21.7442 25.4355 19.0186 28.1611C16.293 30.8867 16.293 35.3057 19.0186 38.0313C21.7442 40.7569 26.1632 40.7569 28.8888 38.0313Z" fill="#5D9B35"/>
<path d="M40.9536 17.1166C41.9578 16.2066 42.0343 14.6549 41.1243 13.6506C40.2143 12.6463 38.6625 12.5699 37.6582 13.4798C36.654 14.3898 36.5775 15.9416 37.4875 16.9459C38.3975 17.9502 39.9493 18.0266 40.9536 17.1166Z" fill="#5D9B35"/>
<path d="M27.0718 22.2187C27.0739 22.8279 27.2567 23.4227 27.5971 23.928C27.9374 24.4333 28.4199 24.8263 28.9836 25.0573C29.5473 25.2883 30.1669 25.3469 30.764 25.2257C31.361 25.1045 31.9087 24.8089 32.3377 24.3764C32.7667 23.9438 33.0577 23.3938 33.1741 22.7958C33.2904 22.1978 33.2267 21.5787 32.9911 21.0169C32.7555 20.4551 32.3586 19.9758 31.8505 19.6396C31.3424 19.3035 30.746 19.1255 30.1368 19.1284C29.3207 19.1322 28.5395 19.4598 27.9648 20.0392C27.3901 20.6187 27.0689 21.4025 27.0718 22.2187Z" fill="#5D9B35"/>
<path d="M28.2378 11.5776C28.2392 11.925 28.3436 12.2641 28.5378 12.5521C28.7319 12.8401 29.0071 13.064 29.3285 13.1956C29.6499 13.3272 30.0032 13.3605 30.3436 13.2913C30.6839 13.2222 30.9961 13.0537 31.2407 12.8071C31.4853 12.5605 31.6513 12.2469 31.7176 11.9059C31.784 11.565 31.7477 11.2121 31.6135 10.8918C31.4793 10.5714 31.2531 10.2981 30.9635 10.1063C30.6739 9.91454 30.334 9.81292 29.9867 9.81435C29.5211 9.81673 29.0754 10.0037 28.7476 10.3343C28.4197 10.6649 28.2364 11.112 28.2378 11.5776Z" fill="#5D9B35"/>
<path d="M46.0616 32.8128C46.0637 33.3669 46.2301 33.908 46.5398 34.3675C46.8494 34.8271 47.2884 35.1845 47.8011 35.3946C48.3139 35.6047 48.8775 35.658 49.4205 35.5478C49.9636 35.4376 50.4618 35.1688 50.8521 34.7754C51.2424 34.3821 51.5074 33.8819 51.6134 33.338C51.7194 32.7941 51.6617 32.2309 51.4477 31.7198C51.2337 31.2086 50.8729 30.7724 50.4109 30.4663C49.949 30.1602 49.4067 29.998 48.8525 30.0001C48.4845 30.0013 48.1203 30.0751 47.7808 30.2171C47.4413 30.3591 47.1332 30.5667 46.874 30.8279C46.6148 31.0891 46.4096 31.3989 46.2702 31.7395C46.1308 32.08 46.0599 32.4448 46.0616 32.8128Z" fill="#93C41D"/>
<path d="M22.084 36.482C22.0854 36.905 22.2123 37.318 22.4485 37.6689C22.6847 38.0198 23.0197 38.2927 23.4111 38.4532C23.8025 38.6137 24.2326 38.6545 24.6472 38.5704C25.0617 38.4864 25.4421 38.2813 25.74 37.981C26.038 37.6808 26.2402 37.2989 26.3211 36.8837C26.402 36.4686 26.358 36.0387 26.1945 35.6486C26.0311 35.2584 25.7556 34.9255 25.403 34.6919C25.0503 34.4584 24.6363 34.3347 24.2133 34.3364C23.6465 34.3388 23.1038 34.5662 22.7046 34.9685C22.3053 35.3708 22.0821 35.9152 22.084 36.482Z" fill="#93C41D"/>
<path d="M41.1143 26.8631C41.1157 27.2675 41.237 27.6624 41.4629 27.9978C41.6887 28.3332 42.0089 28.5941 42.3831 28.7475C42.7572 28.901 43.1685 28.94 43.5648 28.8597C43.9611 28.7795 44.3247 28.5834 44.6097 28.2965C44.8946 28.0096 45.088 27.6446 45.1655 27.2477C45.243 26.8508 45.2011 26.4399 45.045 26.0668C44.8889 25.6938 44.6258 25.3754 44.2887 25.1519C43.9517 24.9284 43.556 24.8099 43.1516 24.8114C42.8831 24.8123 42.6175 24.8661 42.3698 24.9697C42.1221 25.0734 41.8972 25.2248 41.708 25.4153C41.5188 25.6058 41.369 25.8317 41.2671 26.0801C41.1653 26.3285 41.1133 26.5946 41.1143 26.8631Z" fill="#93C41D"/>
<path d="M19.4419 31.1415C19.443 31.4389 19.5322 31.7293 19.6984 31.976C19.8645 32.2227 20.1 32.4145 20.3752 32.5274C20.6503 32.6402 20.9528 32.6689 21.2443 32.6098C21.5357 32.5507 21.8031 32.4066 22.0127 32.1955C22.2222 31.9845 22.3644 31.716 22.4214 31.4242C22.4784 31.1323 22.4475 30.83 22.3327 30.5557C22.2179 30.2813 22.0243 30.0472 21.7765 29.8828C21.5286 29.7185 21.2376 29.6314 20.9402 29.6325C20.7427 29.6332 20.5473 29.6727 20.3652 29.749C20.183 29.8252 20.0176 29.9366 19.8785 30.0767C19.7394 30.2168 19.6292 30.383 19.5543 30.5657C19.4794 30.7484 19.4412 30.944 19.4419 31.1415Z" fill="#93C41D"/>
<path d="M25.4092 31.0189C25.4092 31.2328 25.4726 31.4419 25.5915 31.6198C25.7104 31.7977 25.8793 31.9364 26.077 32.0183C26.2746 32.1001 26.4921 32.1216 26.702 32.0799C26.9118 32.0381 27.1046 31.9351 27.2559 31.7838C27.4072 31.6325 27.5102 31.4397 27.552 31.2299C27.5937 31.02 27.5723 30.8025 27.4904 30.6049C27.4085 30.4072 27.2699 30.2383 27.092 30.1194C26.9141 30.0005 26.7049 29.9371 26.491 29.9371C26.2041 29.9371 25.9289 30.051 25.726 30.2539C25.5231 30.4568 25.4092 30.7319 25.4092 31.0189Z" fill="#93C41D"/>
<path d="M46.8906 23.56C46.8921 23.9373 47.0054 24.3056 47.2161 24.6185C47.4269 24.9314 47.7257 25.1748 48.0748 25.3179C48.4239 25.4609 48.8077 25.4973 49.1774 25.4223C49.5471 25.3473 49.8863 25.1643 50.1521 24.8965C50.4178 24.6287 50.5982 24.2882 50.6704 23.9179C50.7426 23.5476 50.7034 23.1642 50.5578 22.8161C50.4121 22.4681 50.1664 22.1711 49.8519 21.9627C49.5374 21.7543 49.1682 21.6439 48.791 21.6453C48.5405 21.6462 48.2926 21.6965 48.0616 21.7932C47.8305 21.89 47.6207 22.0313 47.4442 22.2091C47.2678 22.3869 47.1281 22.5977 47.0331 22.8295C46.9381 23.0613 46.8897 23.3095 46.8906 23.56Z" fill="#93C41D"/>
<path d="M29.9061 44.761C33.1923 44.761 36.3439 46.0663 38.6677 48.3898C40.9916 50.7133 42.2974 53.8648 42.2978 57.1509H17.5161C17.5166 53.8651 18.8221 50.7139 21.1456 48.3905C23.4691 46.067 26.6202 44.7615 29.9061 44.761Z" fill="#5D9B35"/>
<path d="M16.2616 50.3448C17.1556 50.3448 18.0407 50.5209 18.8666 50.8631C19.6925 51.2052 20.4429 51.7067 21.0749 52.3389C21.707 52.9711 22.2083 53.7216 22.5502 54.5476C22.8922 55.3736 23.068 56.2588 23.0678 57.1528H9.45361C9.45338 56.2587 9.6293 55.3733 9.97135 54.5472C10.3134 53.7211 10.8149 52.9705 11.4471 52.3383C12.0793 51.706 12.8299 51.2046 13.656 50.8625C14.4821 50.5205 15.3675 50.3446 16.2616 50.3448Z" fill="#0C6861"/>
</svg>
