<svg width="114" height="49" viewBox="0 0 114 49" fill="none" xmlns="http://www.w3.org/2000/svg">
<path d="M102.825 26.9374H10.7672C4.88912 26.9374 0.124023 31.7025 0.124023 37.5806C0.124023 43.4586 4.88912 48.2237 10.7672 48.2237H102.825C108.703 48.2237 113.468 43.4586 113.468 37.5806C113.468 31.7025 108.703 26.9374 102.825 26.9374Z" fill="#B2D87F"/>
<path d="M51.2678 14.3889C57.5583 14.3889 63.5913 16.8875 68.0397 21.3352C72.4881 25.7828 74.9877 31.8154 74.9887 38.1058H27.5547C27.5547 31.8164 30.0529 25.7844 34.4998 21.3367C38.9468 16.8891 44.9783 14.3899 51.2678 14.3889Z" fill="#5D9B35"/>
<path d="M25.1478 25.0779C28.6051 25.0779 31.9208 26.4512 34.3654 28.8959C36.81 31.3405 38.1834 34.6562 38.1834 38.1134H12.1123C12.1123 34.6562 13.4856 31.3405 15.9303 28.8959C18.3749 26.4512 21.6906 25.0779 25.1478 25.0779Z" fill="#0C6861"/>
<path d="M100.793 15.4125H81.0903V38.2554H100.793V15.4125Z" fill="white"/>
<path d="M57.1929 12.2304H82.662L93.5275 0H68.0583L57.1929 12.2304Z" fill="#A0544E"/>
<path d="M69.1981 1.15381L60.0771 11.0071V38.2591H78.3153V11.0071L69.1981 1.15381Z" fill="#F7934C"/>
<path d="M74.6065 38.2592H63.8101V21.635C63.8086 20.9261 63.9467 20.2239 64.2166 19.5683C64.4865 18.9128 64.8828 18.3169 65.383 17.8145C65.8832 17.3122 66.4775 16.9133 67.1319 16.6406C67.7862 16.3679 68.4878 16.2268 69.1967 16.2253C69.9076 16.2238 70.6118 16.3627 71.2688 16.634C71.9259 16.9053 72.5227 17.3037 73.0254 17.8064C73.528 18.309 73.9265 18.906 74.1979 19.563C74.4692 20.2201 74.608 20.9242 74.6065 21.635V38.2592Z" fill="white"/>
<path d="M99.9857 38.2592H89.1777V21.635C89.1762 20.9242 89.3151 20.2201 89.5864 19.563C89.8577 18.906 90.2562 18.309 90.7589 17.8064C91.2615 17.3037 91.8584 16.9053 92.5154 16.634C93.1725 16.3627 93.8767 16.2238 94.5875 16.2253C96.0192 16.2253 97.3923 16.794 98.4047 17.8064C99.417 18.8188 99.9857 20.1918 99.9857 21.6235V38.2592Z" fill="#FFEFAE"/>
<path d="M78.3149 11.0071V38.259H82.1183V25.1699C82.1183 22.8006 83.0594 20.5285 84.7347 18.8532C86.41 17.1779 88.6822 16.2367 91.0514 16.2367C92.2245 16.2367 93.3863 16.4677 94.4701 16.9167C95.5539 17.3656 96.5386 18.0236 97.3681 18.8532C98.1976 19.6827 98.8557 20.6674 99.3047 21.7513C99.7536 22.8351 99.9846 23.9967 99.9846 25.1699V38.259H103.313V11.0071H78.3149Z" fill="#A0544E"/>
<path d="M104.921 12.2304H78.6814L67.8159 0H94.0557L104.921 12.2304Z" fill="#FAAF40"/>
</svg>
