<svg width="166" height="54" viewBox="0 0 166 54" fill="none" xmlns="http://www.w3.org/2000/svg">
<g style="mix-blend-mode:multiply">
<path d="M45.8053 31.3806C45.8053 31.3806 44.5156 25.3067 44.4234 24.2995C44.3313 23.2923 44.2392 21.628 44.055 20.5225C43.8707 19.417 44.7919 16.6595 44.055 15.554C43.318 14.4486 42.7652 14.6389 42.6731 15.9287C42.581 17.2184 42.2125 18.8704 42.6731 20.7129C43.1337 22.5553 43.9014 26.6885 44.1287 28.1625C44.3559 29.6365 44.5156 31.3806 44.5156 31.3806C44.5156 31.3806 41.7519 22.8255 41.5738 21.0752C41.3957 19.3249 41.887 18.1334 41.0825 17.2122C40.2779 16.291 39.5471 16.291 39.5471 17.3965C39.7167 19.0524 40.0563 20.6864 40.5604 22.2728C41.0211 23.931 42.1204 26.5719 42.6731 28.0704C43.2259 29.5689 44.055 32.0255 44.1471 32.3019C44.2392 32.5782 40.192 26.2279 39.5471 24.9321C38.9022 23.6362 37.3362 20.7927 36.9738 20.1479C36.661 19.6639 36.2897 19.2205 35.8683 18.8274L35.3156 20.3382C35.5091 21.0867 35.82 21.7998 36.2368 22.4509C37.0659 23.9249 38.6259 25.7612 39.5471 27.0509C40.4683 28.3406 41.2053 29.6303 42.1204 31.1903C43.0355 32.7502 39.2707 27.9721 38.4355 27.2351C37.6002 26.4982 35.3095 23.5502 34.4804 23.0036C33.749 22.5678 32.9804 22.1978 32.1835 21.8982C32.1835 21.8982 31.5693 22.3588 31.4465 22.6352C31.3236 22.9115 31.4465 22.8194 33.2889 24.5697C35.1314 26.3201 36.3597 27.2351 37.8889 28.7091C39.4181 30.183 41.4817 32.2036 42.3046 33.1248C43.1276 34.046 39.3383 33.1248 38.6197 32.6642C37.9012 32.2036 36.8817 30.5331 35.2296 29.9435C33.5776 29.3539 29.7023 28.2485 29.7023 28.2485C29.7023 28.2485 27.952 27.143 29.2417 28.1564C30.4528 29.2091 31.8176 30.0707 33.2889 30.7112C34.364 31.0871 35.3939 31.5815 36.3597 32.1852C37.8275 33.0143 38.4723 33.8434 39.7621 34.1197C41.0518 34.3961 42.6117 34.5742 42.8881 34.7339C43.1644 34.8936 44.7305 34.6418 43.1644 34.912C41.5984 35.1822 39.1049 35.8332 37.3177 36.2017C35.5306 36.5702 35.4384 37.1229 33.3196 37.3072C31.7945 37.4716 30.2837 37.7487 28.7995 38.1363C28.7995 38.1363 29.3645 38.4372 29.4566 38.8794C29.5488 39.3216 30.3779 40.4332 31.1148 39.9726C33.1108 38.8739 35.1839 37.9215 37.3177 37.1229C38.4086 36.7332 39.5362 36.4554 40.6833 36.2938C41.5656 36.15 42.4556 36.0577 43.3487 36.0175C43.9014 36.0175 44.577 35.649 43.625 36.5702C42.6731 37.4914 41.3097 37.6634 40.0814 38.9347C38.8531 40.206 38.6873 40.6727 37.2686 41.5939C35.8499 42.5152 34.5541 43.6636 33.8417 44.0997C33.1292 44.5357 32.0913 44.7138 32.5519 45.0884C33.0126 45.4631 33.1661 44.7875 34.6708 44.1119C36.206 43.4226 37.65 42.5459 38.9698 41.5018C39.6276 40.8169 40.3249 40.171 41.0579 39.5672C41.8279 38.8798 42.6357 38.236 43.4777 37.6388L31.8088 49.3076L33.2766 50.8185C33.2766 50.8185 35.027 48.6996 35.9482 47.7846C36.8694 46.8695 39.2585 44.3822 39.9954 43.5531C41.1122 42.3409 42.1658 41.072 43.1522 39.7515C43.2259 39.6287 43.318 39.4813 43.4285 39.3216C43.883 38.6522 44.5708 37.7678 44.7182 37.5467C44.8656 37.3256 44.8104 37.8231 42.5994 42.6073C40.3885 47.3915 40.3025 48.5031 40.1428 49.2831C39.98 50.0432 39.775 50.7936 39.5287 51.5309C39.3444 51.9915 39.0681 53.0048 38.9759 53.2812C38.8838 53.5576 39.4366 53.7602 39.7129 53.8401C39.9893 53.9199 41.1562 53.2812 41.1562 53.2812C41.3181 52.7981 41.4514 52.306 41.5554 51.8072C41.6475 51.2545 42.5626 49.1418 42.7468 48.0364C42.9311 46.9309 43.361 45.7333 43.4838 44.5357C43.5148 43.6605 43.6699 42.7941 43.9444 41.9624C44.2208 41.1333 44.3129 40.3963 44.4971 40.0279C44.6814 39.6594 45.142 38.2837 45.142 38.2837C45.142 38.2837 46.0632 37.8231 45.879 38.1915C45.6947 38.56 46.2905 39.1988 45.879 40.034C45.4675 40.8692 45.3938 42.1528 45.0253 43.3504C44.6568 44.548 44.4726 44.8182 44.1962 45.807C43.9198 46.7958 43.9198 48.2083 43.6435 49.2647C43.5249 49.9086 43.3397 50.5384 43.0907 51.1439C42.6301 52.3722 42.1695 52.8943 42.538 53.1706C42.9065 53.447 42.9986 53.9015 43.9198 53.3487C44.8411 52.796 44.6568 53.447 44.8411 52.8022C45.0253 52.1573 45.3017 49.8665 45.3938 49.2647C45.5293 48.3334 45.5909 47.3928 45.578 46.4519V44.0997C45.578 44.0997 45.9465 39.2909 46.6774 40.3042C47.4082 41.3176 48.7962 49.7805 49.134 50.4254C49.4717 51.0703 50.8843 51.3466 50.8843 51.0703C50.7833 49.8495 50.5358 48.6453 50.1473 47.4836C49.484 45.2727 47.4512 37.4669 47.4512 37.4669C48.4687 38.4953 49.365 39.6369 50.1227 40.8692C51.044 42.5274 56.7433 48.6874 56.7433 48.6874L58.1251 49.3015C58.1251 49.3015 59.1385 48.239 58.1251 47.5942C57.1118 46.9493 57.9409 47.7784 54.8148 44.5541C51.6888 41.3299 51.3142 41.0596 51.2282 40.7833C51.1422 40.5069 49.3858 38.3942 49.3858 38.3942C49.3858 38.3942 59.5069 46.5808 59.6912 46.8572C59.8754 47.1336 60.5203 47.3178 60.7045 46.8572C60.8888 46.3966 61.0669 45.3832 60.2439 45.1069C59.421 44.8305 48.3786 36.3491 48.3786 36.3491C48.3786 36.3491 56.1046 37.6388 57.7628 37.5467C59.421 37.4546 61.81 38.9224 63.2901 38.9224C64.7702 38.9224 65.7467 38.861 66.0476 38.9224C66.3486 38.9838 66.324 37.995 65.0404 37.6941C63.7569 37.3932 62.0925 36.128 61.0792 36.2201C59.6131 36.3888 58.1391 36.4811 56.6634 36.4965C54.735 36.4965 50.5219 35.5753 50.2272 35.5753C49.7915 35.5123 49.3606 35.4199 48.9374 35.2989C48.9374 35.2989 49.3059 34.6848 51.1484 34.9304C52.7293 35.2039 54.3286 35.3579 55.9326 35.391H59.4271C61.0792 35.391 60.8028 35.4832 62.3689 35.4832C63.935 35.4832 63.8428 35.9438 64.6719 35.4832C65.501 35.0225 65.2861 34.5926 65.1325 34.304C64.979 34.0153 65.501 33.2784 63.9043 33.3705C62.8565 33.4382 61.813 33.5612 60.7782 33.739C58.5673 34.0153 58.1988 34.5926 57.0012 34.304C55.8036 34.0153 55.6255 34.5926 53.4146 34.304C51.2036 34.0153 50.8413 34.5926 50.1964 34.304C49.5516 34.0153 48.6304 34.5926 49.091 34.304C49.5516 34.0153 51.2098 33.8311 52.8619 33.1862C54.5139 32.5414 56.6327 32.0808 57.5539 31.7123C58.313 31.4612 59.0521 31.1533 59.7649 30.7911C60.594 30.3304 60.9563 30.5945 61.1406 29.9128C61.3248 29.2311 62.0618 29.5075 61.3248 29.2311C61.0357 29.0868 60.7143 29.0194 60.3915 29.0356C60.0688 29.0517 59.7556 29.1508 59.4824 29.3232C58.6183 29.7772 57.726 30.1752 56.8108 30.5147C56.0228 30.7246 55.2543 31.002 54.5139 31.3438C53.6848 31.7123 52.2109 31.9579 51.1115 32.3571C50.0122 32.7563 48.8085 33.0941 48.8085 33.0941C48.8085 33.0941 57.1793 27.0202 58.0207 26.4674C58.954 25.7885 59.818 25.0191 60.6001 24.1705C60.7844 23.8942 61.6995 22.4202 60.5019 22.8808C59.3043 23.3414 60.1395 22.236 58.7577 23.6178C57.3758 24.9996 57.0074 25.1777 56.3625 25.9147C55.7171 26.6476 54.9943 27.3086 54.2068 27.8861C53.5849 28.4413 52.8669 28.8784 52.088 29.1758L49.6314 31.3806L48.6181 32.2097L51.0133 26.5964L54.1393 21.9964C54.3235 21.7201 55.3676 19.6074 55.3676 19.6074L54.6306 18.8336C54.6306 18.8336 53.5251 19.1468 53.3409 19.5153C53.1566 19.8838 50.9518 24.2074 50.8843 24.668C50.8167 25.1286 49.7788 28.0704 49.5946 28.4389C49.4103 28.8074 47.5925 31.4728 47.5925 31.4728V32.4861C47.5925 32.4861 46.837 32.2097 46.837 31.9334C46.837 31.657 47.5925 24.2074 47.5925 24.2074C47.9273 23.0721 48.1051 21.8964 48.1206 20.7129C48.0402 19.9204 47.8241 19.1476 47.4819 18.4282C47.4819 18.4282 45.9895 18.7967 45.9895 19.2573C45.9895 19.7179 46.5361 21.37 46.7265 22.4755C46.9169 23.5809 46.1738 27.9046 46.1738 28.1809V31.8658L45.8053 31.3806Z" fill="#FBB040"/>
</g>
<g style="mix-blend-mode:multiply">
<path d="M14.9754 8.9334C13.569 9.67652 9.78584 14.9459 8.48999 18.3176C7.19414 21.6893 4.59629 24.2871 5.89214 27.6404C7.18799 30.9936 5.54208 31.0121 10.2587 36.7175C14.9754 42.4229 21.9767 47.6125 26.9022 46.3167C31.8277 45.0208 40.4135 40.8691 42.87 33.3458C45.3266 25.8225 43.4842 11.7216 40.1309 8.91498C36.7777 6.10832 25.8643 3.17883 14.9754 8.9334Z" fill="#8DC63F"/>
</g>
<path d="M9.37507 47.4347C7.91176 47.8826 6.59766 48.7198 5.57326 49.8567C4.54886 50.9936 3.85266 52.3875 3.55908 53.8894C3.55908 53.8894 8.36787 53.6376 9.37507 53.005C10.3823 52.3724 11.9115 50.8555 12.1633 49.8421C12.4151 48.8288 12.9187 46.5503 12.9187 46.5503L9.37507 47.4347Z" fill="#FBB040"/>
<path d="M8.21968 42.6267C5.94118 42.5039 4.80501 42.2459 3.53986 42.6267C2.35116 43.0304 1.23848 43.6303 0.248023 44.4016C-0.366126 44.9052 0.248022 45.9677 1.1324 45.8756C2.01677 45.7834 3.28806 46.9749 5.18578 45.8756C7.0835 44.7762 7.0835 45.0096 8.21968 44.3893C9.35585 43.769 8.21968 42.6267 8.21968 42.6267Z" fill="#FBB040"/>
<g style="mix-blend-mode:multiply">
<g style="mix-blend-mode:multiply">
<path d="M11.6524 15.6406L8.75977 20.1915C8.75977 20.1915 14.5819 19.8291 15.3066 20.1915C16.0313 20.5538 15.3066 17.9191 15.3066 17.9191L11.6524 15.6406Z" fill="#27AAE1"/>
</g>
<g style="mix-blend-mode:multiply">
<path d="M18.6732 10.1686L14.9883 12.2137C14.9883 12.2137 15.9156 14.8054 16.8307 15.3643C17.7667 16.0605 18.6364 16.8417 19.4286 17.698L20.5279 15.3581V10.1686H18.6732Z" fill="#27AAE1"/>
</g>
<g style="mix-blend-mode:multiply">
<path d="M24.6055 8.87272V15.3581C24.6055 15.3581 24.6055 16.6601 25.5328 16.1934C26.4602 15.7266 27.3753 13.5095 28.1184 12.5822C28.8615 11.6548 29.9608 11.0898 29.9608 10.1624C29.9608 9.23507 29.752 7.93921 28.1184 7.93921C26.8976 8.01767 25.7041 8.33483 24.6055 8.87272Z" fill="#27AAE1"/>
</g>
<g style="mix-blend-mode:multiply">
<path d="M7.68554 24.0118C7.68554 24.0118 10.1974 28.0529 10.7563 27.8687C11.3152 27.6845 12.3899 28.7776 12.3899 28.7776C12.3899 28.7776 8.76031 32.4195 8.01104 32.5976C7.26178 32.7757 6.00892 33.6908 5.28422 33.8751C4.55953 34.0593 2.9873 32.4195 2.9873 32.4195L7.68554 24.0118Z" fill="#27AAE1"/>
</g>
<g style="mix-blend-mode:multiply">
<path d="M12.9064 32.4802C12.9064 32.4802 8.28181 34.8631 7.68609 35.3115C7.09037 35.7598 6.10773 36.6687 6.56834 37.2706C7.02895 37.8725 9.60223 39.2727 9.67593 39.6351C9.74963 39.9974 10.3638 41.2134 10.7261 39.6351C10.939 38.4308 11.5156 37.3206 12.3782 36.4538C13.0599 35.8765 12.9064 32.4802 12.9064 32.4802Z" fill="#27AAE1"/>
</g>
<g style="mix-blend-mode:multiply">
<path d="M17.7457 33.8867L12.9185 40.4274V42.4848L15.6514 44.0018H18.4888C18.4888 44.0018 19.582 39.7027 19.582 38.9473V35.3115C19.4297 34.8157 19.2238 34.3379 18.9678 33.8867H17.7457Z" fill="#27AAE1"/>
</g>
<g style="mix-blend-mode:multiply">
<path d="M22.4858 36.4541C22.4858 36.4541 20.2626 42.3806 20.5267 42.8228C20.7908 43.265 20.5267 45.3408 20.5267 45.3408H26.1277V41.4594L23.9475 37.3323L22.4858 35.9996V36.4541Z" fill="#27AAE1"/>
</g>
<g style="mix-blend-mode:multiply">
<path d="M29.0397 36.4542L30.7409 41.2138L32.786 42.8229L36.563 38.9476L34.3828 35.9997L30.7409 34.667H28.0693L29.0397 36.4542Z" fill="#27AAE1"/>
</g>
<g style="mix-blend-mode:multiply">
<path d="M30.6481 31.7069L37.0844 35.1093L39.7191 33.4081V28.2185C39.7191 28.2185 36.6852 29.1643 36.5624 29.0292C36.4396 28.8941 34.2409 29.6925 33.3995 29.6925C32.5581 29.6925 29.9849 30.0855 29.9849 30.0855L30.6481 31.7069Z" fill="#27AAE1"/>
</g>
<g style="mix-blend-mode:multiply">
<path d="M31.2817 26.1364L36.5634 22.6541L38.8849 21.0819L39.7201 24.0114L39.2227 26.9532L36.0782 28.2183L33.8243 28.3964L31.2817 26.1364Z" fill="#27AAE1"/>
</g>
<g style="mix-blend-mode:multiply">
<path d="M34.8494 12.1217L29.9853 15.8066L28.9229 18.8773C28.9229 18.8773 29.1624 18.7545 30.7653 18.8773C32.3682 19.0002 32.8043 18.7914 34.874 17.6798C36.9436 16.5681 37.5578 16.8629 37.1954 15.6224C36.8331 14.3818 34.8494 12.1217 34.8494 12.1217Z" fill="#27AAE1"/>
</g>
<g style="mix-blend-mode:multiply">
<path d="M24.0722 17.9371L21.6156 18.9259C21.6156 18.9259 19.4354 17.3783 19.9205 18.9259C20.4031 20.1272 21.0887 21.2365 21.9472 22.2055L22.4631 23.139L24.0476 20.2279C24.0476 20.2279 25.4049 18.3118 24.0722 17.9371Z" fill="#27AAE1"/>
</g>
<g style="mix-blend-mode:multiply">
<path d="M27.2956 18.9265L29.5434 22.8755C29.5434 22.8755 31.177 24.4047 29.9856 24.9268C29.122 25.2561 28.2165 25.4628 27.2956 25.5409C26.6256 25.6044 25.9511 25.6044 25.2812 25.5409C24.9173 25.4769 24.5436 25.4958 24.188 25.5962L27.2956 18.9265Z" fill="#27AAE1"/>
</g>
<g style="mix-blend-mode:multiply">
<path d="M17.2732 20.2281C16.4527 20.8502 15.6807 21.5339 14.964 22.2733C14.4386 23.0664 13.9548 23.8864 13.5146 24.7299C13.5146 24.7299 17.4882 26.4126 17.7461 26.6583C18.0041 26.9039 22.2663 26.6583 22.2663 26.6583L19.8772 23.1392L17.2732 20.2281Z" fill="#27AAE1"/>
</g>
<g style="mix-blend-mode:multiply">
<path d="M15.6509 28.9493L19.8701 28.2185H22.4864L20.5272 31.2708L20.5088 32.4807L17.0327 30.3496L15.6509 28.9493Z" fill="#27AAE1"/>
</g>
<g style="mix-blend-mode:multiply">
<path d="M24.1874 28.2185L22.2651 31.6639L22.4862 33.0887H26.6133L28.0688 30.6567L26.122 28.3966L24.1874 28.2185Z" fill="#27AAE1"/>
</g>
</g>
<g style="mix-blend-mode:multiply">
<path d="M49.5575 0.00426519C48.581 -0.0448667 44.2574 0.329764 42.9923 1.16501C41.7271 2.00025 40.5357 2.76179 41.199 4.69636C41.8622 6.63093 43.4959 9.68939 45.5963 10.064C47.6967 10.4387 51.3263 10.9668 53.4881 10.844C55.6499 10.7212 57.9775 8.1356 57.9775 8.1356C57.9775 8.1356 64.8007 0.796517 49.5575 0.00426519Z" fill="#F15A64"/>
</g>
<g style="mix-blend-mode:multiply">
<path d="M70.4577 36.239C70.4577 36.239 77.7047 34.6914 81.5124 40.403L82.2309 42.3805L72.9696 42.0366C72.9696 42.0366 70.5498 41.5821 69.9848 39.8809C69.4198 38.1797 70.4577 36.239 70.4577 36.239Z" fill="#8DC63F"/>
</g>
<g style="mix-blend-mode:multiply">
<path d="M65.1577 41.7666L70.4578 45.863C70.4578 45.863 70.3596 45.8138 71.7168 49.2039C73.0741 52.594 70.1876 49.7075 69.7024 49.7075C69.2172 49.7075 67.3932 47.8037 66.8282 47.079C66.2632 46.3543 65.1577 41.7666 65.1577 41.7666Z" fill="#8DC63F"/>
</g>
<g style="mix-blend-mode:multiply">
<path d="M75.2729 43.1665L79.3325 45.8381C79.3325 45.8381 79.7439 48.5464 79.7194 48.8412C79.6948 49.136 76.5995 49.2957 75.2729 43.1665Z" fill="#8DC63F"/>
</g>
<path d="M86.6408 11.1691C86.6408 11.1691 83.6376 9.40035 80.2659 13.4292C76.8943 17.458 71.932 18.6433 67.854 16.5859C67.854 16.5859 71.3915 28.6416 82.5936 24.011C82.5936 24.011 87.04 19.0978 87.6726 16.1683V13.4292L90.0002 11.7403H87.1199L86.6408 11.1691Z" fill="#F15A64"/>
<g style="mix-blend-mode:multiply">
<path d="M68.4743 8.49783C64.7894 6.61853 62.1793 5.64818 59.5261 5.62361C56.873 5.59905 54.2076 5.53149 53.2557 7.00545C52.5568 8.08753 52.127 9.32109 52.002 10.6031C51.877 11.8852 52.0605 13.1785 52.5371 14.3752C53.7654 17.5872 51.923 19.8412 54.6375 22.6233C57.352 25.4053 57.9416 29.2254 60.9018 31.1169C63.862 33.0085 72.5707 33.5367 76.0038 31.0801C79.4368 28.6235 80.7143 25.0123 79.5105 20.3878C78.3068 15.7632 79.0008 16.0396 75.5063 13.1039C73.3476 11.3028 70.9879 9.75715 68.4743 8.49783Z" fill="#8DC63F"/>
</g>
<g style="mix-blend-mode:multiply">
<g style="mix-blend-mode:multiply">
<path d="M65.2054 1.02405C64.149 1.02405 63.1479 3.09987 63.1479 3.09987C63.1479 3.09987 64.0508 4.35888 65.2054 3.94126C65.5829 3.77843 65.8897 3.4857 66.0699 3.11613C66.2502 2.74657 66.2921 2.32464 66.188 1.92685C66.059 1.75488 65.2054 1.02405 65.2054 1.02405Z" fill="#27AAE1"/>
</g>
<g style="mix-blend-mode:multiply">
<path d="M59.4393 4.02686C59.1834 4.08491 58.9486 4.2128 58.761 4.39631C58.5735 4.57981 58.4405 4.81174 58.3768 5.06631C58.3132 5.32088 58.3214 5.58811 58.4005 5.8383C58.4797 6.08848 58.6267 6.31181 58.8251 6.48346C59.5621 7.0976 61.0484 7.36783 61.337 6.48346C61.6257 5.59908 61.7915 3.19776 59.4393 4.02686Z" fill="#27AAE1"/>
</g>
<g style="mix-blend-mode:multiply">
<path d="M65.2053 6.31835C62.2021 7.09218 62.7487 6.01742 63.1479 7.85987C63.5471 9.70231 64.1981 10.9306 65.2053 9.81286C66.2125 8.69511 66.1511 8.52315 66.2555 7.85987C66.3599 7.19658 66.0958 6.09112 65.2053 6.31835Z" fill="#27AAE1"/>
</g>
<g style="mix-blend-mode:multiply">
<path d="M58.3704 9.54824C58.3704 9.84303 56.5648 9.94743 58.3704 10.7765C60.176 11.6056 62.1044 10.4203 61.3613 9.54824C60.6181 8.67614 58.3704 8.31994 58.3704 9.54824Z" fill="#27AAE1"/>
</g>
<g style="mix-blend-mode:multiply">
<path d="M62.2336 13.2146C62.0862 13.8288 61.2694 15.1062 63.1487 14.8299C65.028 14.5535 65.6728 14.0744 65.2061 13.2146C64.7393 12.3548 64.0637 10.0395 63.1487 11.624L62.2336 13.2146Z" fill="#27AAE1"/>
</g>
<g style="mix-blend-mode:multiply">
<path d="M69.154 9.54834C67.9749 9.70188 66.9431 10.8995 67.2379 11.6242C67.5327 12.3489 68.2697 13.1595 69.154 12.9753C70.0384 12.791 71.5615 11.2741 70.7263 10.7828C70.1566 10.4329 69.6291 10.0187 69.154 9.54834Z" fill="#27AAE1"/>
</g>
<g style="mix-blend-mode:multiply">
<path d="M67.8521 4.02672C68.239 5.40241 67.2871 6.69827 67.8521 7.02377C68.4171 7.34927 67.7846 7.42296 69.1541 7.02377C70.5237 6.62457 70.8676 6.32364 70.9966 5.66036C71.1255 4.99708 69.6577 4.22939 69.3445 4.02672C69.0313 3.82405 67.8521 4.02672 67.8521 4.02672Z" fill="#27AAE1"/>
</g>
<g style="mix-blend-mode:multiply">
<path d="M54.581 8.75622C54.166 8.65447 53.7281 8.70748 53.3494 8.90532C52.9707 9.10315 52.6771 9.43224 52.5236 9.83098C52.2288 10.6048 51.6392 11.5076 53.5553 11.6734C55.4715 11.8392 55.2135 10.8443 55.5636 10.2977C55.9137 9.75114 54.581 8.75622 54.581 8.75622Z" fill="#27AAE1"/>
</g>
<g style="mix-blend-mode:multiply">
<path d="M57.565 13.2147C56.8219 13.4235 54.7399 14.443 55.6181 15.3888C56.4964 16.3346 59.8005 15.6222 59.5425 14.8729C59.2846 14.1236 58.2897 13.012 57.565 13.2147Z" fill="#27AAE1"/>
</g>
</g>
<path d="M93.7847 17.6712V26.8729H91.5113V17.6712C91.1105 17.6712 90.7261 17.5044 90.4426 17.2075C90.1592 16.9106 90 16.5079 90 16.088V16H102.064V17.6712H100.508V25.1138H102.039V26.5211C101.383 26.8062 100.682 26.9577 99.9719 26.9677C98.4606 26.9677 98.2475 26.1016 98.2475 25.0935V17.6712H93.7847Z" fill="#333333"/>
<path d="M111.455 19.4473C111.372 19.5815 110.817 20.4668 110.179 21.5064C108.973 23.391 107.27 26 106.747 26.7981H104.609V17.5694C104.225 17.5676 103.856 17.4057 103.585 17.1192C103.314 16.8326 103.161 16.4446 103.161 16.0402V16H106.823V23.3776H106.906C106.759 23.6459 107.372 22.6264 108.214 21.3186C109.433 19.4608 111.098 16.8719 111.621 16.0335H113.771C113.771 19.0651 113.771 22.0697 113.771 25.1482H115.226V26.5432C114.597 26.8131 113.926 26.9564 113.248 26.9658C113.014 26.9773 112.78 26.936 112.562 26.8446C112.345 26.7532 112.148 26.6138 111.986 26.4358C111.824 26.2579 111.7 26.0455 111.623 25.813C111.546 25.5804 111.517 25.3332 111.538 25.0878V19.4406L111.455 19.4473Z" fill="#333333"/>
<path d="M116.517 25.2281H117.89V17.7525H117.844C117.44 17.7508 117.053 17.5879 116.768 17.2996C116.482 17.0113 116.322 16.621 116.322 16.2142H120.186V25.2281H121.487V26.7796H116.517V25.2281ZM125.833 25.2281L127.29 25.4245V26.5897C126.735 26.8077 126.148 26.9316 125.553 26.9563C125.256 26.9917 124.954 26.9439 124.682 26.818C124.41 26.6921 124.178 26.493 124.011 26.2428L120.551 21.51V21.0386L123.803 16.8033C123.953 16.5411 124.174 16.327 124.44 16.1856C124.706 16.0443 125.006 15.9816 125.306 16.0047C125.874 16.0092 126.434 16.1483 126.939 16.4105L126.828 17.6216L125.527 17.7067L122.743 21.1827L125.833 25.2281Z" fill="#333333"/>
<path d="M138.968 16V25.1107H140.452V26.5252C139.811 26.8047 139.124 26.9549 138.428 26.9677C137.205 26.9677 136.69 26.5051 136.69 25.2246V21.8727H132.031V26.8068H129.76V17.5754C129.579 17.5754 129.4 17.5386 129.233 17.4671C129.066 17.3956 128.915 17.2908 128.787 17.1588C128.659 17.0267 128.558 16.87 128.49 16.6976C128.421 16.5252 128.386 16.3405 128.387 16.1542V16H132.057V20.4179H136.697V16.0134L138.968 16Z" fill="#333333"/>
<path d="M149.84 19.4471C149.757 19.5812 149.201 20.4664 148.563 21.5059C147.363 23.3904 145.659 25.9991 145.129 26.7972H143.003V17.5693C142.617 17.5693 142.247 17.4082 141.974 17.1214C141.701 16.8347 141.548 16.4458 141.548 16.0402V16H145.212V23.377H145.295C145.148 23.6452 145.761 22.6259 146.603 21.3181C147.829 19.4605 149.489 16.8718 150.018 16.0335H152.163C152.163 19.0648 152.163 22.0692 152.163 25.1474H153.612V26.5423C152.984 26.8122 152.312 26.9555 151.633 26.9649C151.401 26.9788 151.169 26.9407 150.952 26.8529C150.736 26.7651 150.539 26.6298 150.376 26.4559C150.213 26.282 150.087 26.0735 150.007 25.8444C149.926 25.6153 149.893 25.3708 149.91 25.1273V19.4806L149.84 19.4471Z" fill="#333333"/>
<path d="M154.904 25.2286H156.276V17.7526H156.237C155.832 17.7526 155.443 17.5905 155.156 17.302C154.87 17.0135 154.709 16.6222 154.709 16.2142H158.571V25.2286H159.871V26.7801H154.904V25.2286ZM164.214 25.2286L165.677 25.425V26.5903C165.122 26.8077 164.536 26.9316 163.941 26.9569C163.643 26.9913 163.341 26.943 163.068 26.8173C162.796 26.6915 162.562 26.493 162.394 26.2433L158.941 21.5102V21.0389L162.224 16.8033C162.374 16.5411 162.595 16.327 162.861 16.1856C163.127 16.0443 163.427 15.9816 163.726 16.0047C164.292 16.0093 164.849 16.1483 165.352 16.4106L165.248 17.6216L163.947 17.7068L161.126 21.1829L164.214 25.2286Z" fill="#333333"/>
<path d="M93.7847 36.3167V45.5185H91.5113V36.3167C91.1105 36.3167 90.7261 36.1499 90.4426 35.853C90.1592 35.5561 90 35.1534 90 34.7335V34.6455H102.064V36.3167H100.508V43.7593H102.039V45.1666C101.383 45.4517 100.682 45.6032 99.9719 45.6132C98.4606 45.6132 98.2475 44.7471 98.2475 43.739V36.3167H93.7847Z" fill="#333333"/>
<path d="M112.301 43.7527H114L114.129 45.0621C113.334 45.3663 112.486 45.5197 111.631 45.5139C110.757 45.5139 110.155 45.3175 110.134 44.2044C110.134 44.2044 110.134 44.2044 110.087 44.2044C109.599 44.6641 109.022 45.0253 108.388 45.2669C107.755 45.5086 107.078 45.6259 106.397 45.6121C103.784 45.6121 103.161 43.7985 103.161 42.5676C103.161 40.8588 104.366 39.6017 107.406 39.4119L110.04 39.2351V38.5804C110.04 37.0025 109.532 36.3936 107.853 36.3936C106.701 36.4066 105.558 36.5966 104.468 36.9567C104.312 36.4787 104.156 35.9811 104.021 35.4901C105.4 34.9338 106.88 34.6467 108.374 34.6455C110.811 34.6455 112.267 35.549 112.267 38.2072L112.301 43.7527ZM107.562 40.6166C106.309 40.7017 105.639 41.3957 105.639 42.2796C105.639 43.4057 106.174 43.9229 107.453 43.9229C108.408 43.8527 109.308 43.4639 109.999 42.823V40.4267L107.562 40.6166Z" fill="#333333"/>
<path d="M115.226 48.3469H116.77V36.4899C116.361 36.4899 115.968 36.3227 115.678 36.025C115.388 35.7272 115.226 35.3234 115.226 34.9024V34.8431H118.886V35.818H118.924C119.843 35.0853 120.966 34.6743 122.129 34.6455C125.219 34.6455 126.193 37.0564 126.193 39.9153C126.193 43.2089 125.052 45.6329 121.879 45.6329C120.898 45.6377 119.929 45.4124 119.046 44.9742V48.3469H120.693V50.0002H115.226V48.3469ZM123.854 39.9548C123.854 37.175 122.86 36.5229 121.507 36.5229C120.598 36.5751 119.727 36.9157 119.014 37.4978V43.0771C119.743 43.5267 120.574 43.774 121.424 43.7951C122.693 43.8083 123.854 43.0771 123.854 39.935V39.9548Z" fill="#333333"/>
<path d="M127.479 43.8741H128.858V36.4046H128.812C128.408 36.4029 128.021 36.2401 127.735 35.9517C127.45 35.6634 127.29 35.2731 127.29 34.8662H131.154V43.8741H132.455V45.4322H127.472L127.479 43.8741ZM136.801 43.8741L138.258 44.064V45.2358C137.703 45.4538 137.116 45.5777 136.521 45.6024C136.223 45.6368 135.921 45.5885 135.648 45.4628C135.375 45.337 135.141 45.1385 134.973 44.8888L131.518 40.1557V39.6844L134.771 35.4489C134.921 35.1866 135.142 34.9725 135.408 34.8311C135.674 34.6898 135.974 34.6271 136.274 34.6502C136.842 34.6547 137.401 34.7938 137.906 35.0561L137.796 36.2672L136.495 36.3523L133.711 39.835L136.801 43.8741Z" fill="#333333"/>
</svg>
