<svg width="646" height="367" viewBox="0 0 646 367" fill="none" xmlns="http://www.w3.org/2000/svg">
<g style="mix-blend-mode:multiply">
<path d="M309.253 298.207C309.253 298.207 178.933 290.951 162.562 286.113C146.191 281.276 103.724 281.437 110.856 301.27C117.987 321.103 112.801 327.553 151.54 334.164C190.279 340.936 298.879 343.516 298.879 343.516C298.879 343.516 346.533 300.303 309.253 298.207Z" fill="#F15A64"/>
</g>
<g style="mix-blend-mode:multiply">
<path d="M220.228 41.5223C212.083 52.5419 199.306 60.2077 188.127 68.3526C187.009 70.269 185.891 72.1855 184.933 74.1019C184.773 74.2616 184.614 74.581 184.454 74.7407C201.542 83.5244 218.631 94.2246 237.316 92.4678C230.768 75.8586 223.741 59.0897 220.228 41.5223Z" fill="#27AAE1"/>
<path d="M337.454 2.86932C331.545 9.09777 324.998 15.4859 317.971 21.2353C327.713 26.5055 335.698 34.331 344.96 40.3997C347.995 37.3653 351.189 34.4907 354.383 31.616C356.779 24.7487 358.695 17.7218 360.132 10.5351C352.307 8.29926 344.801 5.90369 337.454 2.86932Z" fill="#27AAE1"/>
<path d="M241.31 69.4724C246.101 56.6961 255.364 46.1557 260.474 33.6988C254.405 29.2271 249.454 22.3598 245.142 15.3329C237.956 19.4852 230.929 24.2763 224.381 29.7062C225.818 45.996 231.248 61.3276 237.157 76.4994C238.275 75.3815 239.553 74.1039 240.671 72.9859C240.671 71.868 240.83 70.7501 241.31 69.4724Z" fill="#27AAE1"/>
<path d="M259.197 5.42834C258.079 5.90746 256.961 6.38656 255.844 6.86567C254.087 7.82389 252.33 8.94183 250.573 10.2195C256.323 19.1629 262.87 27.3078 272.293 29.3839C272.293 21.3987 271.973 13.4135 271.494 5.42834C267.342 5.42834 263.19 5.42834 259.197 5.42834Z" fill="#27AAE1"/>
<path d="M279.321 1.2793C278.523 1.439 277.564 1.75841 276.766 2.07782C277.564 12.2989 278.043 22.5199 277.883 32.9006C280.279 32.9006 282.835 32.4215 285.709 31.623C292.896 29.3872 299.603 26.1931 305.991 22.2005C296.409 16.2915 287.785 8.94508 279.321 1.2793Z" fill="#27AAE1"/>
<path d="M290.339 0C296.887 5.58963 303.754 11.0196 311.42 15.3316C317.329 11.0196 322.918 6.06874 328.189 0.798519C315.572 0.958222 302.955 0.798519 290.339 0Z" fill="#27AAE1"/>
<path d="M308.226 28.112C300.241 33.2225 291.617 37.0554 282.674 38.6525C290.02 45.5197 294.652 60.0528 298.964 68.9962C301.04 64.3648 302.956 59.7333 304.713 55.1019C305.352 45.9988 306.629 37.0554 308.226 28.112Z" fill="#27AAE1"/>
<path d="M357.896 38.3316C366.2 32.2629 374.505 26.1942 383.129 20.4448C380.574 18.5284 377.858 16.7717 374.984 15.3343C371.949 13.7373 368.915 12.2999 365.721 10.8626C363.964 20.1254 361.409 29.3882 357.896 38.3316Z" fill="#27AAE1"/>
<path d="M313.494 69.3093C313.973 68.9898 314.453 68.8301 314.932 68.5107C325.313 61.9629 335.374 54.7762 345.276 47.4299C335.374 41.8402 327.229 33.6953 317.647 27.6266C315.411 41.6805 310.939 55.2553 305.35 68.1913C308.065 68.6704 310.779 68.9898 313.494 69.3093Z" fill="#27AAE1"/>
<path d="M294.332 73.1375C290.339 67.8673 286.187 53.9731 280.278 45.6685C277.722 45.8282 275.167 45.0297 273.411 43.2729C272.293 42.155 271.175 41.0371 269.897 40.0789C264.786 50.1402 257.44 59.2433 248.657 66.1106C246.9 70.4226 245.622 74.5748 244.664 78.248C245.463 81.1227 246.261 83.9974 247.06 86.7124C255.843 84.4765 264.627 81.4421 273.57 79.6854C281.076 78.0883 288.103 76.3316 294.971 73.7763C294.811 73.6166 294.491 73.4569 294.332 73.1375Z" fill="#27AAE1"/>
<path d="M283.791 85.5977C277.243 87.3545 270.695 88.7918 264.147 90.5485C256.96 92.465 249.774 95.4993 242.587 97.5755C251.53 114.504 268.14 127.121 276.604 144.049C278.041 130.634 280.596 117.538 284.11 104.602C283.79 98.374 283.791 91.9859 283.791 85.5977Z" fill="#27AAE1"/>
<path d="M382.172 30.823C381.374 30.3439 380.575 29.8648 379.777 29.3857C378.819 30.0245 377.86 30.6633 377.062 31.3021C370.035 36.0932 363.008 41.3635 355.981 46.6337C356.141 48.3904 355.662 50.3069 354.863 51.7442C370.674 64.6802 385.367 79.2132 401.816 91.3507C403.732 91.3507 405.809 91.5104 407.725 91.5104C409.961 82.0879 412.197 72.6654 414.592 63.2429C410.759 55.098 406.607 47.7516 402.135 41.0441C395.428 38.0097 388.72 34.6559 382.172 30.823Z" fill="#27AAE1"/>
<path d="M397.501 95.5068C390.474 90.2366 383.606 84.4872 376.899 78.5782C368.115 72.9886 359.811 64.2048 350.228 60.3719C347.833 87.2022 341.125 113.394 334.737 139.585C357.575 128.885 378.975 115.629 400.056 101.576C399.577 99.3397 398.779 97.2635 397.501 95.5068Z" fill="#27AAE1"/>
<path d="M329.468 132.707C329.788 132.707 330.107 132.707 330.586 132.866C336.495 109.23 342.245 85.5941 344.481 61.3191C339.051 63.3952 333.621 65.152 328.35 67.7072C327.392 68.1864 326.274 68.6655 325.316 69.3043C318.928 73.4566 312.38 77.2895 305.513 80.4835C305.193 80.6432 304.874 80.8029 304.555 80.8029C316.532 96.1345 318.928 115.778 326.913 133.026C327.712 132.866 328.51 132.707 329.468 132.707Z" fill="#27AAE1"/>
<path d="M413.309 92.7858C416.822 90.3902 420.336 87.9947 423.689 85.7588C421.933 81.1274 420.176 76.496 418.26 72.0243C416.663 78.8916 414.906 85.7588 413.309 92.7858Z" fill="#64A7DE"/>
<path d="M261.755 138.146C260.797 136.389 259.679 134.632 258.561 133.035C252.173 123.293 243.549 114.989 235.563 106.365C224.065 122.974 214.323 141.18 200.429 155.873C200.588 158.109 200.429 160.185 200.429 162.421C200.429 163.539 200.429 164.657 200.429 165.934C206.018 166.254 211.768 166.413 217.357 166.254C234.126 165.775 250.895 164.178 267.345 161.303C265.268 153.637 263.512 145.971 261.755 138.146Z" fill="#27AAE1"/>
<path d="M300.879 85.2765C291.137 108.434 285.068 133.028 282.832 158.101C291.775 156.025 300.719 153.47 309.343 150.276C314.933 148.2 320.522 145.964 326.112 143.568C314.933 125.362 313.815 102.365 300.879 85.2765Z" fill="#27AAE1"/>
<path d="M220.384 96.9362C206.49 93.5825 193.395 85.4376 180.299 78.8897C176.306 84.7987 172.633 90.8675 169.279 96.9362C177.744 117.378 186.368 138.14 187.645 160.339C206.011 145.326 217.031 123.607 230.286 104.123C226.932 101.727 223.738 99.1721 220.384 96.9362Z" fill="#27AAE1"/>
<path d="M166.09 99.9778C163.694 102.533 161.299 104.929 158.903 107.324C152.036 121.538 146.446 136.071 141.975 150.125C149.161 152.999 156.348 156.193 163.854 158.908C167.048 160.026 179.984 161.783 179.984 161.783C179.984 161.783 174.554 137.508 175.512 125.211C172.797 116.906 169.444 108.442 166.09 99.9778Z" fill="#27AAE1"/>
<path d="M176.47 168.645C175.033 168.325 173.755 168.006 172.318 167.687C163.534 165.291 155.23 161.299 146.606 157.785C145.009 164.812 141.974 171.36 139.1 178.067C135.906 195.794 135.427 212.084 138.142 224.861C140.377 228.214 142.773 231.408 145.169 234.602C147.245 237.317 149.321 239.713 151.237 242.268C154.112 237.956 157.466 233.964 161.139 230.291C162.257 228.693 163.534 227.256 164.812 225.819C169.922 217.195 174.075 208.092 176.949 198.509C176.79 188.608 176.63 178.706 176.47 168.645Z" fill="#27AAE1"/>
<path d="M215.115 172.002C213.518 172.002 211.921 172.161 210.324 172.161C206.97 172.641 203.297 172.96 199.784 172.96C197.548 173.918 195.312 174.717 193.076 175.515C204.255 189.729 212.56 205.699 219.587 222.308C219.906 222.308 220.386 222.468 220.705 222.628C225.975 225.982 231.245 229.495 236.196 233.168C244.82 212.726 258.714 193.881 266.54 172.96C249.452 173.279 232.363 173.439 215.115 172.002Z" fill="#27AAE1"/>
<path d="M271.019 270.859C276.129 265.429 282.357 261.117 289.065 257.923C292.738 252.174 296.092 246.265 298.647 240.036C299.286 238.599 300.085 237.481 301.043 236.682C290.981 219.434 281.719 201.707 275.81 182.543C274.532 182.223 273.255 181.904 272.137 181.585C265.11 199.951 253.291 216.879 244.827 234.606C244.667 247.223 244.348 259.839 243.869 272.296C252.333 272.456 261.117 272.456 269.901 272.296C270.06 271.817 270.54 271.338 271.019 270.859Z" fill="#27AAE1"/>
<path d="M303.436 158.422C294.972 161.137 286.508 163.373 277.884 165.13C278.363 165.449 278.682 165.928 278.842 166.567C284.112 187.169 293.535 206.174 304.235 224.54C309.825 202.5 319.247 181.739 323.399 159.54C316.692 159.061 310.144 158.582 303.436 158.422Z" fill="#27AAE1"/>
<path d="M402.93 108.752C402.93 107.954 402.93 107.155 403.09 106.516C381.689 120.73 359.81 134.145 336.493 145.165C342.083 150.754 356.775 167.843 355.338 171.037C362.525 182.535 368.114 194.992 373.065 207.769C375.141 205.692 377.377 203.616 379.773 201.7C382.168 192.277 384.883 182.855 388.397 173.432C393.987 158.26 400.055 143.248 403.409 127.597C403.409 121.209 403.249 114.981 402.93 108.752Z" fill="#27AAE1"/>
<path d="M440.3 136.391C435.828 121.379 431.037 105.888 425.767 91.1951C421.295 94.2294 416.664 97.4235 412.032 100.458C421.455 112.436 430.878 124.573 440.3 136.391Z" fill="#64A7DE"/>
<path d="M463.459 201.551C456.591 188.136 450.842 170.249 444.773 150.925C436.788 141.183 428.962 131.441 421.297 121.54C417.623 122.019 413.791 122.338 410.117 122.657C407.402 138.947 401.493 154.758 395.744 170.409C389.835 186.06 385.683 201.711 382.329 217.681C390.793 221.354 397.182 229.499 403.889 235.408C405.326 236.686 406.125 238.123 406.444 239.561C412.034 242.276 417.624 244.831 423.373 247.226C441.26 242.595 455.314 237.165 463.778 231.256C463.778 221.195 463.938 211.453 463.459 201.551Z" fill="#27AAE1"/>
<path d="M350.386 174.4C350.226 173.921 350.066 173.442 349.907 172.803C346.234 167.054 342.401 161.624 337.929 156.673C335.214 156.513 332.339 156.354 329.624 156.354C325.792 179.83 316.05 201.55 310.141 224.547C312.217 224.547 314.133 224.547 316.209 224.547C316.688 224.068 317.327 223.589 317.966 223.269C328.986 217.041 338.089 213.368 350.705 216.402C353.74 217.201 356.614 218.159 359.489 219.277C362.204 218.478 364.759 217.68 367.474 217.041C363.801 202.029 356.135 188.454 350.386 174.4Z" fill="#27AAE1"/>
<path d="M229.17 261.274C217.831 231.57 207.131 201.386 187.008 176.951C184.133 205.218 172.475 230.292 153.311 250.734C153.79 251.053 154.269 251.373 154.748 251.533C169.76 259.518 196.75 263.83 228.85 265.427C229.01 263.989 229.01 262.552 229.17 261.274Z" fill="#27AAE1"/>
</g>
<g style="mix-blend-mode:multiply">
<path d="M461.038 32.2358C485.216 44.4544 502.554 117.607 518.62 139.347C534.686 161.086 429.383 201.709 401.068 186.952C372.754 172.353 383.889 -6.80019 461.038 32.2358Z" fill="#8DC63F"/>
</g>
<g style="mix-blend-mode:multiply">
<path d="M311.343 283.486C311.975 263.476 335.204 263.309 354.325 262.308C377.396 261.141 389.248 266.811 394.937 274.648C395.569 274.315 396.043 273.981 396.675 273.815C404.418 269.812 412.319 265.977 420.22 262.308C413.425 249.135 403.154 240.13 394.463 238.296C376.29 234.46 342.789 230.125 342.789 230.125C342.789 230.125 295.067 234.961 295.067 265.143C295.067 269.646 294.434 274.148 293.486 278.317C299.333 280.318 305.18 281.986 311.343 283.486Z" fill="#27AAE1"/>
</g>
<g style="mix-blend-mode:multiply">
<path d="M376.865 293.49C376.865 293.49 436.335 298.015 447.586 310.919C458.677 323.824 470.571 335.89 476.357 341.42C481.982 346.951 443.89 339.577 426.692 341.42C409.333 343.264 376.865 293.49 376.865 293.49Z" fill="#8DC63F"/>
</g>
<g style="mix-blend-mode:multiply">
<path d="M364.835 310.165C364.835 310.165 376.773 335.4 372.675 344.412C368.577 353.425 352.007 366.861 352.007 366.861C352.007 366.861 347.909 340.807 352.007 329.992C356.283 319.177 364.835 310.165 364.835 310.165Z" fill="#8DC63F"/>
</g>
<g style="mix-blend-mode:multiply">
<path d="M9.00335 279.407C9.00335 279.407 29.0637 236.773 37.7512 223.42C46.4388 210.067 80.8729 184.165 85.1377 182.556C89.4025 180.787 100.933 176.765 100.933 176.765C100.933 176.765 116.729 199.449 116.729 204.758C116.729 210.228 81.6626 249.161 68.2364 264.928C8.68744 334.589 0 313.996 0 313.996L9.00335 279.407Z" fill="#FBB040"/>
</g>
<g style="mix-blend-mode:multiply">
<path d="M30.0166 266.03L80.2158 236.793H140.075L123.131 266.03L65.4885 274.151L30.0166 286.82V266.03Z" fill="#8DC63F"/>
</g>
<g style="mix-blend-mode:multiply">
<path d="M513.156 159.354C513.156 159.354 504.719 119.499 504.241 112.749C503.604 106.16 502.967 95.2316 501.853 87.9998C500.579 80.768 506.629 62.608 501.853 55.3762C497.077 48.1444 493.415 49.2693 492.938 57.7868C492.301 66.3043 489.913 77.0717 492.938 89.2855C495.962 101.339 501.057 128.659 502.33 138.301C503.604 147.944 504.878 159.515 504.878 159.515C504.878 159.515 486.888 103.267 485.774 91.8568C484.5 80.4466 487.843 72.5719 482.59 66.465C477.336 60.3581 472.56 60.3581 472.56 67.7507C472.56 74.9825 476.222 88.9641 479.088 99.7315C482.112 110.66 489.276 128.177 492.938 137.819C496.599 147.462 501.853 163.854 502.49 165.622C503.126 167.389 476.699 125.766 472.56 117.249C468.421 108.731 458.233 90.089 455.845 85.7499C453.457 81.5715 448.681 77.0717 448.681 77.0717L445.019 87.0356C445.019 87.0356 445.656 91.214 451.069 101.017C456.481 110.66 466.67 122.713 472.56 131.23C478.61 139.748 483.386 148.104 489.276 158.39C495.326 168.675 470.65 137.176 465.396 132.355C459.984 127.534 445.019 108.249 439.606 104.553C434.194 100.856 424.642 97.3209 424.642 97.3209C424.642 97.3209 420.503 100.374 419.866 102.142C419.229 103.91 419.866 103.428 431.806 114.838C443.746 126.409 451.546 132.355 461.735 141.998C471.923 151.64 485.137 164.979 490.55 171.086C495.962 177.192 471.287 171.086 466.511 168.032C461.735 164.979 455.208 154.051 444.382 150.194C433.557 146.337 408.404 139.105 408.404 139.105C408.404 139.105 396.941 131.873 405.379 138.462C413.816 145.051 422.095 151.801 431.806 155.336C441.358 159.033 441.994 159.515 451.546 164.979C461.098 170.443 465.396 175.907 473.675 177.675C482.112 179.442 492.301 180.728 494.052 181.853C495.803 183.139 505.992 181.21 495.803 183.139C485.615 184.906 469.376 189.246 457.755 191.656C446.133 194.067 445.497 197.763 431.806 198.888C417.956 200.174 402.354 204.352 402.354 204.352C402.354 204.352 406.016 206.281 406.653 209.334C407.289 212.227 412.702 219.459 417.478 216.566C422.254 213.512 447.885 200.817 457.914 197.763C467.784 194.71 470.809 193.585 479.884 192.299C488.799 191.013 493.734 190.531 497.236 190.531C500.898 190.531 505.037 188.121 498.987 194.227C492.938 200.334 484.023 200.977 476.222 209.495C468.421 217.851 467.148 220.905 457.914 227.012C448.681 233.119 440.243 240.672 435.467 243.565C430.691 246.457 424.005 247.582 427.03 249.993C430.055 252.404 431.169 248.065 440.88 243.565C450.432 239.065 463.009 231.833 469.058 226.369C475.108 220.905 469.854 224.601 482.59 213.673C495.326 202.745 498.35 200.977 498.35 200.977L422.254 277.474L431.806 287.438C431.806 287.438 443.109 273.456 449.158 267.51C455.208 261.403 470.65 245.172 475.585 239.708C480.361 234.244 493.574 219.137 495.962 214.959C496.44 214.155 497.077 213.191 497.714 212.066C500.738 207.727 505.196 201.941 506.151 200.334C507.425 198.567 506.788 202.102 492.301 233.601C477.973 265.1 477.336 272.331 476.063 277.474C474.789 282.617 473.038 289.206 471.924 292.259C470.65 295.312 468.899 301.902 468.262 303.669C467.625 305.437 471.287 306.883 473.038 307.366C474.789 307.848 482.431 303.669 482.431 303.669C482.431 303.669 484.341 297.562 484.978 294.027C485.615 290.331 491.505 276.51 492.778 269.278C494.052 262.046 496.918 254.171 497.554 246.297C498.191 238.422 498.828 234.886 500.579 229.422C502.33 223.958 502.967 219.137 504.241 216.727C505.515 214.316 508.38 205.316 508.38 205.316C508.38 205.316 514.429 202.263 513.156 204.673C511.882 207.084 515.862 211.262 513.315 216.727C510.768 222.191 510.131 230.708 507.743 238.422C505.355 246.297 504.081 248.065 502.33 254.814C500.579 261.403 500.579 270.564 498.669 277.474C496.918 284.384 498.032 281.974 495.007 289.848C491.983 297.723 488.958 301.259 491.346 303.187C493.734 304.955 494.371 308.008 500.261 304.473C506.311 300.777 505.037 305.116 506.31 300.777C507.584 296.598 509.335 281.492 509.972 277.474C510.609 273.456 511.245 268.153 511.245 258.993C511.245 249.993 511.245 250.154 511.245 243.404C511.245 243.404 513.633 211.745 518.409 218.494C523.185 225.083 532.26 280.849 534.647 285.027C537.035 289.206 545.951 291.134 545.951 289.206C545.951 287.438 545.314 280.206 541.175 265.582C537.036 251.118 523.822 199.692 523.822 199.692C523.822 199.692 535.125 211.102 541.175 222.03C547.224 232.958 584.317 273.456 584.317 273.456L593.232 277.474C593.232 277.474 599.759 270.564 593.232 266.224C586.705 262.046 591.959 267.349 571.741 246.297C551.363 225.083 548.975 223.316 548.339 221.548C547.702 219.78 536.399 205.798 536.399 205.798C536.399 205.798 602.306 259.635 603.421 261.403C604.694 263.171 608.834 264.457 609.948 261.403C611.222 258.35 612.336 251.761 606.923 249.993C601.511 248.225 529.713 192.62 529.713 192.62C529.713 192.62 580.019 201.138 590.844 200.495C601.67 199.852 617.271 209.495 626.823 209.495C636.375 209.495 643.061 209.013 644.812 209.655C646.563 210.138 646.564 203.549 638.285 201.781C629.848 200.013 619.182 191.495 612.495 192.138C605.968 192.781 596.257 193.906 583.68 193.906C571.104 193.906 543.563 187.799 541.811 187.799C540.06 187.799 533.374 186.031 533.374 186.031C533.374 186.031 535.762 181.853 547.702 183.621C559.641 185.389 569.193 186.674 578.905 186.674C588.456 186.674 590.844 186.674 601.67 186.674C612.495 186.674 610.585 187.317 620.774 187.317C630.962 187.317 630.325 190.371 635.738 187.317C641.151 184.264 639.877 181.532 638.763 179.603C637.489 177.675 641.151 172.853 630.962 173.496C620.773 174.139 624.913 174.139 610.585 175.907C596.257 177.675 593.869 181.532 586.068 179.603C578.268 177.675 577.153 181.532 562.666 179.603C548.339 177.675 545.951 181.532 541.652 179.603C537.513 177.675 531.464 181.532 534.489 179.603C537.513 177.675 548.339 176.55 559.005 172.211C569.83 168.032 583.521 164.979 589.571 162.568C595.62 160.158 598.486 159.515 603.899 156.461C609.311 153.408 611.699 155.176 612.814 150.676C614.087 146.176 618.863 147.944 614.087 146.176C609.311 144.408 607.56 144.408 602.148 146.819C596.735 149.229 589.571 153.408 584.795 154.693C580.019 155.979 575.243 157.747 569.83 160.158C564.418 162.568 554.866 164.336 547.702 166.746C540.538 169.157 532.737 171.568 532.737 171.568C532.737 171.568 587.183 131.712 592.596 128.016C598.008 124.32 608.197 114.677 609.311 112.909C610.585 111.142 616.475 101.499 608.674 104.392C600.874 107.445 606.287 100.214 597.372 109.213C588.457 118.213 586.069 119.498 581.77 124.32C577.631 129.141 571.582 133.962 567.442 137.016C563.303 140.069 559.642 143.605 553.592 145.533L537.354 159.997L530.827 165.461L546.428 128.498C546.428 128.498 565.532 100.053 566.805 98.2851C568.079 96.5173 574.606 82.5358 574.606 82.5358L569.83 77.3931C569.83 77.3931 562.666 79.4823 561.393 81.8929C560.119 84.3035 545.791 112.749 545.155 115.802C544.518 118.856 537.991 138.141 536.717 140.551C535.444 142.962 523.663 160.479 523.663 160.479V167.068C523.663 167.068 518.728 165.3 518.728 163.372C518.728 161.604 523.663 112.588 523.663 112.588C523.663 112.588 527.643 98.6065 527.165 89.6069C526.528 80.6073 523.663 74.5004 523.663 74.5004C523.663 74.5004 513.952 76.911 513.952 79.9644C513.952 83.0179 517.613 93.946 518.728 101.178C520.001 108.41 515.066 136.855 515.066 138.623C515.066 140.39 515.066 162.89 515.066 162.89L513.156 159.354Z" fill="#FBB040"/>
</g>
</svg>
