<svg width="518" height="220" viewBox="0 0 518 220" fill="none" xmlns="http://www.w3.org/2000/svg">
<path d="M468.529 122.89H48.5548C21.7387 122.89 0 144.629 0 171.445C0 198.261 21.7387 220 48.5548 220H468.529C495.345 220 517.084 198.261 517.084 171.445C517.084 144.629 495.345 122.89 468.529 122.89Z" fill="#B2D87F"/>
<path d="M233.322 65.6436C262.019 65.6436 289.542 77.0424 309.836 97.3331C330.13 117.624 341.534 145.145 341.538 173.842H125.141C125.141 145.149 136.538 117.631 156.825 97.3404C177.112 77.0497 204.629 65.6482 233.322 65.6436Z" fill="#5D9B35"/>
<path d="M114.161 114.408C129.934 114.408 145.06 120.673 156.213 131.826C167.365 142.978 173.631 158.105 173.631 173.877H54.6924C54.6924 158.105 60.9577 142.978 72.1103 131.826C83.2629 120.673 98.3893 114.408 114.161 114.408Z" fill="#0C6861"/>
<path d="M459.258 70.3134H369.372V174.524H459.258V70.3134Z" fill="white"/>
<path d="M260.356 55.7961H376.548L426.118 0H309.925L260.356 55.7961Z" fill="#A0544E"/>
<path d="M315.123 5.26379L273.513 50.2155V174.541H356.717V50.2155L315.123 5.26379Z" fill="#F7934C"/>
<path d="M339.799 174.541H290.545V98.7005C290.538 95.4664 291.168 92.2626 292.4 89.2721C293.631 86.2815 295.439 83.5628 297.721 81.271C300.003 78.9793 302.714 77.1595 305.699 75.9155C308.684 74.6715 311.885 74.0277 315.119 74.0208C318.362 74.0139 321.575 74.6475 324.572 75.8853C327.57 77.1231 330.293 78.9408 332.586 81.2339C334.879 83.527 336.697 86.2505 337.935 89.2479C339.173 92.2453 339.806 95.4575 339.799 98.7005V174.541Z" fill="white"/>
<path d="M455.577 174.541H406.271V98.7005C406.264 95.4575 406.897 92.2453 408.135 89.2479C409.373 86.2505 411.191 83.527 413.484 81.2339C415.777 78.9408 418.5 77.1231 421.497 75.8853C424.495 74.6475 427.708 74.0139 430.95 74.0208C437.482 74.0208 443.746 76.6155 448.364 81.234C452.983 85.8525 455.577 92.1165 455.577 98.6481V174.541Z" fill="#FFEFAE"/>
<path d="M356.718 50.216V174.541H374.069V114.827C374.069 104.019 378.362 93.653 386.005 86.0101C393.648 78.3673 404.014 74.0736 414.823 74.0736C420.174 74.0736 425.474 75.1277 430.419 77.1758C435.363 79.2238 439.856 82.2258 443.64 86.0101C447.424 89.7945 450.426 94.2871 452.475 99.2316C454.523 104.176 455.576 109.476 455.576 114.827V174.541H470.759V50.216H356.718Z" fill="#A0544E"/>
<path d="M478.089 55.7961H358.381L308.812 0H428.519L478.089 55.7961Z" fill="#FAAF40"/>
</svg>
