<svg width="40" height="40" viewBox="0 0 40 40" fill="none" xmlns="http://www.w3.org/2000/svg">
<circle cx="20" cy="20" r="19.5" stroke="#666666"/>
<path d="M29.8886 24.4827C29.8632 24.4346 29.8395 24.3948 29.8175 24.3629C29.4531 23.7878 28.7569 23.0819 27.7291 22.2451L27.7074 22.2259L27.6965 22.2165L27.6855 22.2069H27.6745C27.2081 21.8172 26.9127 21.5552 26.789 21.4211C26.5627 21.1655 26.5119 20.9069 26.6356 20.6448C26.723 20.4468 27.0513 20.0286 27.6197 19.3897C27.9187 19.0511 28.1555 18.7798 28.3303 18.5753C29.5915 17.106 30.1382 16.1671 29.9705 15.7582L29.9053 15.6627C29.8616 15.6052 29.7486 15.5525 29.5666 15.5045C29.3841 15.4567 29.1509 15.4487 28.8666 15.4806L25.7177 15.4997C25.6667 15.4839 25.5939 15.4853 25.499 15.5045C25.4042 15.5237 25.3568 15.5334 25.3568 15.5334L25.302 15.5574L25.2585 15.5862C25.222 15.6053 25.1819 15.6388 25.1382 15.6867C25.0946 15.7345 25.0582 15.7905 25.0291 15.8544C24.6863 16.6273 24.2965 17.346 23.859 18.0103C23.5893 18.4064 23.3416 18.7497 23.1154 19.0404C22.8895 19.3309 22.7 19.545 22.547 19.6823C22.3938 19.8196 22.2556 19.9297 22.1314 20.0128C22.0075 20.096 21.9128 20.1311 21.8473 20.1182C21.7816 20.1054 21.7198 20.0926 21.6612 20.0799C21.5592 20.0224 21.4772 19.9441 21.4154 19.8451C21.3532 19.7461 21.3114 19.6215 21.2896 19.4714C21.2678 19.3212 21.2549 19.192 21.2513 19.0833C21.2478 18.9748 21.2494 18.8213 21.2568 18.6233C21.2644 18.4252 21.2678 18.2912 21.2678 18.2209C21.2678 17.9781 21.2732 17.7146 21.284 17.4304C21.2951 17.1461 21.304 16.9209 21.3115 16.755C21.3189 16.5889 21.3223 16.4131 21.3223 16.2279C21.3223 16.0426 21.3095 15.8973 21.284 15.7919C21.2589 15.6866 21.2204 15.5844 21.1695 15.4852C21.1184 15.3862 21.0436 15.3097 20.9454 15.2553C20.847 15.201 20.7247 15.1579 20.5791 15.1259C20.1928 15.0493 19.7008 15.0078 19.1029 15.0014C17.7472 14.9886 16.8761 15.0653 16.4898 15.2314C16.3367 15.3016 16.1982 15.3975 16.0743 15.5188C15.9431 15.6594 15.9248 15.7361 16.0195 15.7487C16.4569 15.8061 16.7666 15.9435 16.9488 16.1607L17.0145 16.2757C17.0656 16.3588 17.1166 16.5058 17.1677 16.7165C17.2186 16.9273 17.2515 17.1604 17.266 17.4158C17.3024 17.8822 17.3024 18.2815 17.266 18.6136C17.2295 18.9459 17.1951 19.2045 17.1622 19.3898C17.1293 19.575 17.0801 19.7251 17.0145 19.8401C16.9488 19.9551 16.9052 20.0253 16.8832 20.0509C16.8614 20.0764 16.8431 20.0924 16.8287 20.0987C16.7339 20.1306 16.6354 20.1468 16.5334 20.1468C16.4313 20.1468 16.3074 20.102 16.1617 20.0125C16.016 19.9231 15.8647 19.8002 15.708 19.6436C15.5512 19.4871 15.3745 19.2683 15.1776 18.9872C14.9808 18.7062 14.7767 18.374 14.5653 17.9908L14.3904 17.7128C14.2811 17.534 14.1318 17.2736 13.9422 16.932C13.7526 16.5901 13.585 16.2595 13.4392 15.9401C13.381 15.806 13.2935 15.7038 13.1769 15.6336L13.1222 15.6047C13.0858 15.5792 13.0274 15.5521 12.9473 15.5233C12.867 15.4944 12.7833 15.4738 12.6958 15.461L9.6999 15.4801C9.39376 15.4801 9.18604 15.5409 9.07667 15.6623L9.0329 15.7197C9.01103 15.7517 9 15.8028 9 15.8731C9 15.9434 9.02187 16.0296 9.06564 16.1317C9.50298 17.0325 9.97858 17.9012 10.4924 18.738C11.0063 19.5749 11.4528 20.2489 11.8318 20.7597C12.2108 21.2708 12.5971 21.7531 12.9908 22.2065C13.3844 22.6601 13.645 22.9508 13.7725 23.0785C13.9001 23.2064 14.0004 23.3021 14.0732 23.3659L14.3466 23.5959C14.5216 23.7492 14.7785 23.9329 15.1174 24.1468C15.4564 24.3609 15.8318 24.5717 16.2436 24.7794C16.6555 24.9869 17.1347 25.1562 17.6815 25.2871C18.2282 25.4181 18.7603 25.4707 19.2778 25.4454H20.5352C20.7902 25.4261 20.9835 25.3558 21.1148 25.2345L21.1583 25.1865C21.1875 25.1483 21.2149 25.0891 21.2402 25.0094C21.2658 24.9296 21.2785 24.8416 21.2785 24.7459C21.271 24.4713 21.2949 24.2238 21.3494 24.0034C21.4039 23.7831 21.466 23.617 21.5355 23.5052C21.6049 23.3934 21.6833 23.2991 21.7705 23.2226C21.8579 23.146 21.9201 23.0996 21.9567 23.0836C21.993 23.0676 22.022 23.0566 22.0438 23.0501C22.2188 22.999 22.4246 23.0485 22.6618 23.1987C22.8987 23.3489 23.1209 23.5342 23.3288 23.7545C23.5366 23.975 23.7862 24.2224 24.0777 24.497C24.3694 24.7717 24.6245 24.976 24.843 25.1103L25.0616 25.2253C25.2076 25.302 25.3972 25.3723 25.6305 25.4362C25.8633 25.5 26.0674 25.516 26.2426 25.484L29.0415 25.4458C29.3184 25.4458 29.5338 25.4056 29.6866 25.3259C29.8397 25.2461 29.9306 25.1581 29.96 25.0624C29.9892 24.9666 29.9908 24.858 29.9655 24.7365C29.9396 24.6153 29.9141 24.5305 29.8886 24.4827Z" fill="#666666"/>
</svg>
