<svg xmlns="http://www.w3.org/2000/svg" style="display:none"><symbol id="icon-email" viewBox="0 0 15 15"><path d="M7.5 9.643L5.644 8.019.338 12.567c.193.179.454.29.74.29h12.843c.286 0 .545-.111.737-.29L9.356 8.019 7.5 9.643z" fill="#333"/><path d="M14.662 2.433a1.079 1.079 0 0 0-.74-.29H1.078c-.286 0-.545.111-.738.293L7.5 8.572l7.16-6.139zM0 3.084v8.901l5.178-4.4L0 3.084zM9.822 7.585l5.178 4.4V3.081L9.822 7.585z" fill="#333"/></symbol><symbol id="icon-map" viewBox="0 0 12 17"><path d="M7.678 7.818A2.477 2.477 0 0 0 8.43 6c0-.71-.251-1.316-.753-1.818a2.477 2.477 0 0 0-1.818-.753c-.71 0-1.316.25-1.818.753A2.477 2.477 0 0 0 3.288 6c0 .71.251 1.316.754 1.818a2.477 2.477 0 0 0 1.818.753c.71 0 1.316-.25 1.818-.753zM11.002 6c0 .73-.11 1.33-.331 1.798l-3.656 7.774a1.21 1.21 0 0 1-.482.523c-.208.127-.432.19-.673.19-.241 0-.47-.063-.683-.19a1.166 1.166 0 0 1-.462-.522L1.048 7.797C.828 7.329.717 6.73.717 6c0-1.42.502-2.632 1.506-3.636C3.228 1.359 4.44.857 5.86.857s2.631.502 3.636 1.507C10.5 3.368 11.002 4.58 11.002 6z" fill="#333"/></symbol><symbol id="icon-phone" viewBox="0 0 15 15"><path d="M14.992 12.027c0 .18-.033.418-.1.713a4.01 4.01 0 0 1-.21.683c-.142.335-.55.69-1.226 1.065-.63.341-1.253.512-1.869.512-.18 0-.358-.01-.532-.03a5.152 5.152 0 0 1-.573-.13 19.52 19.52 0 0 1-.482-.141c-.1-.04-.284-.11-.552-.211-.268-.1-.432-.161-.492-.181a9.1 9.1 0 0 1-1.758-.834c-.857-.529-1.745-1.249-2.662-2.16-.91-.917-1.63-1.804-2.16-2.661a9.097 9.097 0 0 1-.833-1.758c-.02-.06-.08-.224-.181-.492-.1-.268-.17-.452-.211-.553-.034-.107-.08-.268-.14-.482a5.155 5.155 0 0 1-.131-.572 4.641 4.641 0 0 1-.03-.533c0-.616.17-1.239.512-1.868.375-.676.73-1.085 1.065-1.225A4.01 4.01 0 0 1 3.11.958c.294-.067.532-.1.713-.1.094 0 .164.01.21.03.121.04.299.294.533.763.074.127.174.308.301.542l.352.643c.107.187.211.365.311.532.02.027.077.11.171.251.1.141.174.262.221.362.047.094.07.188.07.281 0 .134-.097.302-.29.503-.188.2-.396.385-.624.552a6.853 6.853 0 0 0-.622.532c-.188.188-.282.342-.282.462 0 .06.017.138.05.231.034.087.06.154.081.201l.14.241c.074.114.114.178.121.191.51.918 1.092 1.704 1.748 2.36.656.657 1.443 1.24 2.36 1.748.014.007.077.047.191.121.114.067.194.114.241.14l.201.081a.72.72 0 0 0 .231.05c.12 0 .275-.094.462-.281a6.85 6.85 0 0 0 .533-.623c.167-.228.351-.435.552-.623.201-.194.368-.29.502-.29.094 0 .188.023.282.07.1.046.22.12.361.22.14.094.224.151.251.171.168.1.345.204.533.312.194.107.408.224.643.351.234.127.415.228.542.302.469.234.723.411.763.532.02.047.03.117.03.21z" fill="#333"/></symbol><symbol id="temp-icon-left-arrow" viewBox="0 0 31.494 31.494"><path d="M10.273 5.01a1.117 1.117 0 0 1 1.587 1.57l-8.047 8.047h26.554c.62 0 1.127.492 1.127 1.11 0 .62-.508 1.128-1.127 1.128H3.813l8.047 8.032c.43.444.43 1.16 0 1.587a1.112 1.112 0 0 1-1.587 0L.32 16.532a1.12 1.12 0 0 1 0-1.57l9.953-9.953z" fill="#1E201D"/></symbol><symbol id="temp-icon-right-arrow" viewBox="0 0 31.49 31.49"><path d="M21.205 5.007a1.117 1.117 0 0 0-1.587 1.57l8.047 8.048H1.11c-.618 0-1.11.493-1.11 1.112 0 .62.492 1.127 1.11 1.127h26.555l-8.047 8.032c-.43.444-.43 1.16 0 1.587.444.444 1.16.444 1.587 0l9.952-9.952a1.092 1.092 0 0 0 0-1.57l-9.952-9.95z" fill="#1E201D"/></symbol></svg>